<svg viewBox="0 0 330 200" xmlns="http://www.w3.org/2000/svg"><g><g><g><g><g><line x1="56.2000036239624" y1="174.23999977111816" x2="51.2000036239624" y2="174.23999977111816" style="visibility: inherit;" fill="rgb(0, 0, 0)" stroke="rgb(204, 204, 204)" stroke-width="1px"></line><line x1="56.2000036239624" y1="149.348571232387" x2="51.2000036239624" y2="149.348571232387" style="visibility: inherit;" fill="rgb(0, 0, 0)" stroke="rgb(204, 204, 204)" stroke-width="1px"></line><line x1="56.2000036239624" y1="124.45714269365583" x2="51.2000036239624" y2="124.45714269365583" style="visibility: inherit;" fill="rgb(0, 0, 0)" stroke="rgb(204, 204, 204)" stroke-width="1px"></line><line x1="56.2000036239624" y1="99.56571415492465" x2="51.2000036239624" y2="99.56571415492465" style="visibility: inherit;" fill="rgb(0, 0, 0)" stroke="rgb(204, 204, 204)" stroke-width="1px"></line><line x1="56.2000036239624" y1="74.67428561619349" x2="51.2000036239624" y2="74.67428561619349" style="visibility: inherit;" fill="rgb(0, 0, 0)" stroke="rgb(204, 204, 204)" stroke-width="1px"></line><line x1="56.2000036239624" y1="49.782857077462324" x2="51.2000036239624" y2="49.782857077462324" style="visibility: inherit;" fill="rgb(0, 0, 0)" stroke="rgb(204, 204, 204)" stroke-width="1px"></line><line x1="56.2000036239624" y1="24.891428538731162" x2="51.2000036239624" y2="24.891428538731162" style="visibility: inherit;" fill="rgb(0, 0, 0)" stroke="rgb(204, 204, 204)" stroke-width="1px"></line><line x1="56.2000036239624" y1="0" x2="51.2000036239624" y2="0" style="visibility: inherit;" fill="rgb(0, 0, 0)" stroke="rgb(204, 204, 204)" stroke-width="1px"></line></g><g transform="translate(46.2000036239624, 0)"><text style="text-anchor: end; visibility: hidden; font-family: &quot;Helvetica Neue&quot;, sans-serif; font-size: 12px; font-weight: 200;" x="0" y="174.23999977111816" dx="0em" dy="0.3em" fill="rgb(50, 49, 63)" stroke="none" stroke-width="1px">-0.05</text><text style="text-anchor: end; visibility: inherit; font-family: &quot;Helvetica Neue&quot;, sans-serif; font-size: 12px; font-weight: 200;" x="0" y="149.348571232387" dx="0em" dy="0.3em" fill="rgb(50, 49, 63)" stroke="none" stroke-width="1px">0</text><text style="text-anchor: end; visibility: hidden; font-family: &quot;Helvetica Neue&quot;, sans-serif; font-size: 12px; font-weight: 200;" x="0" y="124.45714269365583" dx="0em" dy="0.3em" fill="rgb(50, 49, 63)" stroke="none" stroke-width="1px">0.05</text><text style="text-anchor: end; visibility: inherit; font-family: &quot;Helvetica Neue&quot;, sans-serif; font-size: 12px; font-weight: 200;" x="0" y="99.56571415492465" dx="0em" dy="0.3em" fill="rgb(50, 49, 63)" stroke="none" stroke-width="1px">0.1</text><text style="text-anchor: end; visibility: hidden; font-family: &quot;Helvetica Neue&quot;, sans-serif; font-size: 12px; font-weight: 200;" x="0" y="74.67428561619349" dx="0em" dy="0.3em" fill="rgb(50, 49, 63)" stroke="none" stroke-width="1px">0.15</text><text style="text-anchor: end; visibility: inherit; font-family: &quot;Helvetica Neue&quot;, sans-serif; font-size: 12px; font-weight: 200;" x="0" y="49.782857077462324" dx="0em" dy="0.3em" fill="rgb(50, 49, 63)" stroke="none" stroke-width="1px">0.2</text><text style="text-anchor: end; visibility: hidden; font-family: &quot;Helvetica Neue&quot;, sans-serif; font-size: 12px; font-weight: 200;" x="0" y="24.891428538731162" dx="0em" dy="0.3em" fill="rgb(50, 49, 63)" stroke="none" stroke-width="1px">0.25</text><text style="text-anchor: end; visibility: hidden; font-family: &quot;Helvetica Neue&quot;, sans-serif; font-size: 12px; font-weight: 200;" x="0" y="0" dx="0em" dy="0.3em" fill="rgb(50, 49, 63)" stroke="none" stroke-width="1px">0.3</text></g><line x1="56.2000036239624" y1="0" x2="56.2000036239624" y2="174.23999977111816" fill="rgb(0, 0, 0)" stroke="rgb(204, 204, 204)" stroke-width="1px"></line></g></g><g transform="translate(56, 0)" clip-path="url(#clip_0)"><clipPath id="clip_0"><rect width="273" height="174"></rect></clipPath><g><g><g><line x1="0" y1="0" x2="0" y2="174.23999977111816" fill="rgb(0, 0, 0)" stroke="rgb(60, 60, 60)" stroke-width="1px" opacity="0.25"></line><line x1="18.25333309173584" y1="0" x2="18.25333309173584" y2="174.23999977111816" fill="rgb(0, 0, 0)" stroke="rgb(60, 60, 60)" stroke-width="1px" opacity="0.25"></line><line x1="36.50666618347168" y1="0" x2="36.50666618347168" y2="174.23999977111816" fill="rgb(0, 0, 0)" stroke="rgb(60, 60, 60)" stroke-width="1px" opacity="0.25"></line><line x1="54.75999927520752" y1="0" x2="54.75999927520752" y2="174.23999977111816" fill="rgb(0, 0, 0)" stroke="rgb(60, 60, 60)" stroke-width="1px" opacity="0.25"></line><line x1="73.01333236694336" y1="0" x2="73.01333236694336" y2="174.23999977111816" fill="rgb(0, 0, 0)" stroke="rgb(60, 60, 60)" stroke-width="1px" opacity="0.25"></line><line x1="91.2666654586792" y1="0" x2="91.2666654586792" y2="174.23999977111816" fill="rgb(0, 0, 0)" stroke="rgb(60, 60, 60)" stroke-width="1px" opacity="0.25"></line><line x1="109.51999855041504" y1="0" x2="109.51999855041504" y2="174.23999977111816" fill="rgb(0, 0, 0)" stroke="rgb(60, 60, 60)" stroke-width="1px" opacity="0.25"></line><line x1="127.77333164215088" y1="0" x2="127.77333164215088" y2="174.23999977111816" fill="rgb(0, 0, 0)" stroke="rgb(60, 60, 60)" stroke-width="1px" opacity="0.25"></line><line x1="146.02666473388672" y1="0" x2="146.02666473388672" y2="174.23999977111816" fill="rgb(0, 0, 0)" stroke="rgb(60, 60, 60)" stroke-width="1px" opacity="0.25"></line><line x1="164.27999782562256" y1="0" x2="164.27999782562256" y2="174.23999977111816" fill="rgb(0, 0, 0)" stroke="rgb(60, 60, 60)" stroke-width="1px" opacity="0.25"></line><line x1="182.5333309173584" y1="0" x2="182.5333309173584" y2="174.23999977111816" fill="rgb(0, 0, 0)" stroke="rgb(60, 60, 60)" stroke-width="1px" opacity="0.25"></line><line x1="200.78666400909424" y1="0" x2="200.78666400909424" y2="174.23999977111816" fill="rgb(0, 0, 0)" stroke="rgb(60, 60, 60)" stroke-width="1px" opacity="0.25"></line><line x1="219.03999710083008" y1="0" x2="219.03999710083008" y2="174.23999977111816" fill="rgb(0, 0, 0)" stroke="rgb(60, 60, 60)" stroke-width="1px" opacity="0.25"></line><line x1="237.29333019256592" y1="0" x2="237.29333019256592" y2="174.23999977111816" fill="rgb(0, 0, 0)" stroke="rgb(60, 60, 60)" stroke-width="1px" opacity="0.25"></line><line x1="255.54666328430176" y1="0" x2="255.54666328430176" y2="174.23999977111816" fill="rgb(0, 0, 0)" stroke="rgb(60, 60, 60)" stroke-width="1px" opacity="0.25"></line><line x1="273.7999963760376" y1="0" x2="273.7999963760376" y2="174.23999977111816" fill="rgb(0, 0, 0)" stroke="rgb(60, 60, 60)" stroke-width="1px" opacity="0.25"></line></g><g><line x1="0" y1="174.23999977111816" x2="273.7999963760376" y2="174.23999977111816" fill="rgb(0, 0, 0)" stroke="rgb(60, 60, 60)" stroke-width="1px" opacity="0.25"></line><line x1="0" y1="149.348571232387" x2="273.7999963760376" y2="149.348571232387" fill="rgb(0, 0, 0)" stroke="rgb(60, 60, 60)" stroke-width="1px" opacity="0.25"></line><line x1="0" y1="124.45714269365583" x2="273.7999963760376" y2="124.45714269365583" fill="rgb(0, 0, 0)" stroke="rgb(60, 60, 60)" stroke-width="1px" opacity="0.25"></line><line x1="0" y1="99.56571415492465" x2="273.7999963760376" y2="99.56571415492465" fill="rgb(0, 0, 0)" stroke="rgb(60, 60, 60)" stroke-width="1px" opacity="0.25"></line><line x1="0" y1="74.67428561619349" x2="273.7999963760376" y2="74.67428561619349" fill="rgb(0, 0, 0)" stroke="rgb(60, 60, 60)" stroke-width="1px" opacity="0.25"></line><line x1="0" y1="49.782857077462324" x2="273.7999963760376" y2="49.782857077462324" fill="rgb(0, 0, 0)" stroke="rgb(60, 60, 60)" stroke-width="1px" opacity="0.25"></line><line x1="0" y1="24.891428538731162" x2="273.7999963760376" y2="24.891428538731162" fill="rgb(0, 0, 0)" stroke="rgb(60, 60, 60)" stroke-width="1px" opacity="0.25"></line><line x1="0" y1="0" x2="273.7999963760376" y2="0" fill="rgb(0, 0, 0)" stroke="rgb(60, 60, 60)" stroke-width="1px" opacity="0.25"></line></g></g></g><g><g><line x1="0" y1="149.348571232387" x2="273.7999963760376" y2="149.348571232387" fill="rgb(0, 0, 0)" stroke="rgb(153, 153, 153)" stroke-width="1.5px"></line></g></g><g><g><line x1="18.25333309173584" y1="0" x2="18.25333309173584" y2="174.23999977111816" fill="rgb(0, 0, 0)" stroke="rgb(153, 153, 153)" stroke-width="1.5px"></line></g></g><g><g><g><g><g><path style="fill: none;" stroke="rgb(255, 112, 67)" stroke-width="2px" d="M18.25333309173584,148.8912430102425L19.165999746322633,147.26825898238982L20.078666400909423,145.24489080733693L20.991333055496213,142.5651084670296L21.90399971008301,139.4584560576565L22.8166663646698,137.02459966078032L23.729333019256593,133.6485387921211L24.641999673843383,131.68442072718082L25.554666328430176,128.79528224810997L26.467332983016966,124.58177244837916L27.37999963760376,121.34792043218677L28.292666292190553,119.18079286195211L29.205332946777347,117.88353938174944L30.117999601364136,115.97188785524747L31.030666255950926,112.16051403596514L31.94333291053772,108.1525561448622L32.85599956512451,105.60838384877185L33.76866621971131,102.56350482174952L34.6813328742981,100.7367753297773L35.593999528884886,99.18556699666074L36.50666618347168,98.16422561171785L37.419332838058466,95.97201811039302L38.33199949264527,94.57720737702492L39.24466614723206,92.11964463806424L40.157332801818846,90.64340380015837L41.06999945640564,89.04744151093608L41.982666110992426,87.62925899195692L42.89533276557923,85.58461207306914L43.80799942016602,84.35782472532452L44.720666074752806,82.71327221168451L45.6333327293396,81.54627510712872L46.54599938392639,80.84607694346442L47.458666038513186,80.09240208366866L48.37133269309997,78.12976370183125L49.283999347686766,76.95218070871724L50.19666600227356,75.16405982210166L51.10933265686035,74.09118730193609L52.021999311447146,73.44746379408615L52.93466596603393,73.06122969090595L53.847332620620726,72.80152549315001L54.75999927520752,72.64570297471863L55.67266592979431,71.14514748207495L56.585332584381106,69.5100895652499L57.49799923896789,68.10084823319477L58.41066589355469,67.25530343411793L59.32333254814148,66.74797655472807L60.23599920272827,66.09498622252039L61.14866585731506,65.00793531950617L62.06133251190185,64.35570477771324L62.97399916648865,63.67747406617249L63.88666582107544,63.074092171687255L64.79933247566223,62.55443764883026L65.71199913024903,62.242644935117L66.62466578483581,62.055569306889396L67.53733243942261,60.3614945312861L68.4499990940094,59.34504966592482L69.3626657485962,58.70320426763742L70.27533240318299,58.31809702866501L71.18799905776977,58.087032685281656L72.10066571235656,57.572987446640155L73.01333236694336,57.264560303455255L73.92599902153016,56.05797899556204L74.83866567611693,55.11638842698902L75.75133233070373,54.55143408584517L76.66399898529053,54.212461481158925L77.57666563987732,53.83757748642171L78.48933229446412,53.6126470895794L79.40199894905089,53.47768885147403L80.31466560363769,53.30926195211292L81.2273322582245,52.43982322607279L82.13999891281128,51.918159990448686L83.05266556739808,51.605162049074224L83.96533222198485,51.41736328424955L84.87799887657165,51.30468402535476L85.79066553115845,51.23707647001787L86.70333218574524,50.61353153368138L87.61599884033204,50.239404571879504L88.52866549491881,50.01492839479836L89.44133214950561,48.81862068339167L90.35399880409241,48.10083605654765L91.2666654586792,47.67016528044125L92.17933211326599,47.41176281477739L93.09199876785279,46.728158054605444L94.00466542243957,46.31799519850226L94.91733207702637,46.07189748484035L95.82999873161316,45.9242388566432L96.74266538619995,45.83564367972491L97.65533204078675,45.575070069395196L98.56799869537353,45.418725903197355L99.48066534996033,45.324919403478674L100.39333200454712,44.283860362271355L101.3059986591339,43.65922493754701L102.2186653137207,43.28444368271235L103.13133196830749,42.587544448820665L104.04399862289429,42.16940490848566L104.95666527748108,41.91852118428463L105.86933193206787,41.767990949764055L106.78199858665467,41.6776728090517L107.69466524124145,41.62348192462426L108.60733189582825,41.590967393967816L109.51999855041504,41.57145867557392L110.43266520500183,41.55975344453762L111.34533185958863,41.552730305915844L112.25799851417541,41.48504610008095L113.17066516876221,40.90983682893895L114.083331823349,40.56471126625371L114.99599847793579,40.187473744287075L115.90866513252259,39.88526654015365L116.82133178710939,39.703942217673585L117.73399844169616,39.577803816987824L118.64666509628296,39.49318033327677L119.55933175086975,39.44240624305007L120.47199840545655,39.411941788914106L121.38466506004335,39.393663116432464L122.29733171463012,38.214120924614804L123.20999836921692,37.50639560952416L124.1226650238037,37.08176042046978L125.0353316783905,36.826979307037135L125.9479983329773,36.67411063897757L126.86066498756408,36.5823894381418L127.77333164215088,36.52735671764037L128.68599829673767,36.19841820417565L129.59866495132445,36.00105509609685L130.51133160591127,35.78912606956817L131.42399826049805,35.661968653651L132.33666491508484,35.585674204100684L133.24933156967163,35.53989753437048L134.1619982242584,35.09330188896149L135.07466487884523,34.825344501716074L135.987331533432,34.664570069368864L136.8999981880188,34.56810540996054L137.81266484260559,34.51022661431551L138.7253314971924,34.44814686220681L139.6379981517792,34.41089901094162L140.55066480636597,34.388550300182516L141.46333146095276,34.23342926121262L142.37599811553955,34.140356637830706L143.28866477012633,34.08451306380158L144.20133142471312,34.051006919384065L145.11399807929993,34.03090323273358L146.02666473388672,34.01884102074331L146.9393313884735,34.01160369354912L147.85199804306032,34.00726129723262L148.7646646976471,34.00465585944272L149.67733135223386,34.00309259676877L150.58999800682068,34.00215463916439L151.50266466140747,34.00159186460178L152.41533131599425,33.31718714492433L153.32799797058107,32.81273048790629L154.24066462516785,32.51005649369546L155.15333127975464,32.039114664142744L156.06599793434142,31.756549566411138L156.97866458892824,31.587010507772163L157.89133124351503,31.48528707258876L158.80399789810178,31.424253011478754L159.7166645526886,31.187479995359382L160.62933120727538,30.740067258454786L161.54199786186217,30.471619616311983L162.454664516449,30.310551031026336L163.36733117103577,30.213909879854924L164.27999782562256,30.15592518915207L165.19266448020937,30.12113437473039L166.10533113479616,30.100259886077367L167.01799778938292,30.08773519288556L167.9306644439697,30.08022037697046L168.84333109855652,30.075711487421415L169.7559977531433,29.99950639247959L170.6686644077301,29.953783335514487L171.5813310623169,29.926349501335437L172.4939977169037,29.570051467596983L173.40666437149048,29.234738403521135L174.3193310260773,29.01829276240491L175.23199768066408,28.888425377735132L176.14466433525084,28.810504946933264L177.05733098983762,28.763752688452172L177.96999764442444,28.735701333363522L178.88266429901122,28.718870520310332L179.795330953598,28.708772032478407L180.70799760818483,28.702712939779246L181.6206642627716,28.699077484159773L182.5333309173584,28.49193365503575L183.4459975719452,28.36764735756134L184.35866422653197,27.86836743122325L185.27133088111876,27.568799475420406L186.18399753570557,27.389058701938666L187.09666419029236,27.28121423784964L188.00933084487914,27.216507559396234L188.92199749946593,27.177683552324197L189.83466415405275,27.15438914808098L190.74733080863953,27.14041250553501L191.65999746322632,27.132026520007457L192.57266411781313,27.12699492869092L193.4853307723999,27.12397597390097L194.39799742698668,27.122164601027038L195.3106640815735,27.121077777302673L196.22333073616028,27.12042568306805L197.13599739074706,27.12003442652727L198.04866404533388,26.848349060754998L198.96133069992067,26.685337841291584L199.87399735450745,26.587531109613565L200.78666400909424,26.52884707060676L201.69933066368102,26.493636647202663L202.6119973182678,26.472510393160206L203.5246639728546,26.214944237308885L204.4373306274414,26.060404543798057L205.3499972820282,25.967680727691572L206.26266393661498,25.91204643802766L207.1753305912018,25.87866586422936L208.08799724578859,25.85863751995035L209.00066390037537,25.84662051338296L209.91333055496216,25.839410309442513L210.82599720954894,25.83508418707825L211.73866386413573,25.832488513659683L212.65133051872252,25.830931109608542L213.56399717330933,25.82999666717788L214.47666382789612,25.829436001719472L215.3893304824829,25.70922110615939L216.30199713706972,25.6370921688233L217.2146637916565,25.593814806421676L218.12733044624326,25.52285834539964L219.03999710083008,25.480284468786465L219.95266375541686,25.454740142818537L220.86533041000365,25.439413547237763L221.77799706459047,25.2776781379456L222.69066371917725,25.180636892370302L223.60333037376404,25.12241214502515L224.51599702835082,24.97426926715599L225.42866368293764,24.885383540434475L226.34133033752443,24.832052104401612L227.25399699211118,24.800053242781843L228.166663646698,24.780853925809993L229.07933030128478,24.707858031517134L229.99199695587157,24.664060494941424L230.90466361045839,24.63778197299601L231.81733026504517,24.615688598589145L232.72999691963196,24.589946219678495L233.64266357421877,24.435732531013656L234.55533022880556,24.343204317814752L235.46799688339232,24.28768738989541L236.3806635379791,24.2543772331438L237.29333019256592,24.23439113909282L238.2059968471527,24.189171774706807L239.1186635017395,24.162040156075193L240.0313301563263,24.14576118489623L240.9439968109131,24.135993802188835L241.85666346549988,24.11196169159291L242.7693301200867,24.097542425235304L243.68199677467348,24.02100521596506L244.59466342926024,23.975082890402945L245.50733008384702,23.793260113336487L246.41999673843384,23.6841664470966L247.33266339302062,23.618710247352652L248.2453300476074,23.579436527506317L249.15799670219423,23.555872295598476L250.070663356781,23.541733756453795L250.9833300113678,23.53325063296694L251.8959966659546,23.52816075887489L252.80866332054137,23.52510683441963L253.72132997512816,23.523274479746476L254.63399662971497,23.522175066942594L255.54666328430176,23.521515419260254L256.4593299388886,23.511529350948024L257.37199659347533,23.50553770996072L258.28466324806215,23.429914739753883L259.1973299026489,23.325515634656938L260.1099965572357,23.262876171598776L261.02266321182253,23.225292493763902L261.9353298664093,23.20274228706299L262.8479965209961,23.18921216304244L263.7606631755829,23.18109408863009" fill="none"></path></g></g></g></g><g opacity="0.2"><g><g><g><path style="fill: none;" stroke="rgb(255, 112, 67)" stroke-width="2px" d="M18.25333309173584,148.8912430102425L19.165999746322633,146.29446856567822L20.078666400909423,143.30245735928614L20.991333055496213,139.4136844348282L21.90399971008301,135.40241067197897L22.8166663646698,133.6577000755977L23.729333019256593,128.8207177329645L24.641999673843383,128.8207177329645L25.554666328430176,124.53436417773865L26.467332983016966,118.32520145506496L27.37999963760376,116.52647320767355L28.292666292190553,115.94189491913698L29.205332946777347,115.94189491913698L30.117999601364136,113.10815568984242L31.030666255950926,106.44793343389273L31.94333291053772,102.14344603063662L32.85599956512451,101.79320201308698L33.76866621971131,97.99695937567108L34.6813328742981,97.99695937567108L35.593999528884886,96.8588962835719L36.50666618347168,96.63226954709242L37.419332838058466,92.68377899392738L38.33199949264527,92.48501881507752L39.24466614723206,88.4333296417968L40.157332801818846,88.42905303578762L41.06999945640564,86.65350488315282L41.982666110992426,85.50198884222857L42.89533276557923,82.51764483375213L43.80799942016602,82.51764483375213L44.720666074752806,80.24644435014369L45.6333327293396,79.79577983728399L46.54599938392639,79.79577983728399L47.458666038513186,78.96188988394867L48.37133269309997,75.18580626965496L49.283999347686766,75.18580626965496L50.19666600227356,72.48187853828688L51.10933265686035,72.48187853828688L52.021999311447146,72.48187853828688L52.93466596603393,72.48187853828688L53.847332620620726,72.41196919738401L54.75999927520752,72.41196919738401L55.67266592979431,68.89431424491471L56.585332584381106,67.05750269119262L57.49799923896789,65.98698623572238L58.41066589355469,65.98698623572238L59.32333254814148,65.98698623572238L60.23599920272827,65.11550072426995L61.14866585731506,63.37735896504586L62.06133251190185,63.37735896504586L62.97399916648865,62.66012799887507L63.88666582107544,62.169019329966716L64.79933247566223,61.7749558645485L65.71199913024903,61.7749558645485L66.62466578483581,61.7749558645485L67.53733243942261,57.82038236788384L68.4499990940094,57.82038236788384L69.3626657485962,57.74043617020662L70.27533240318299,57.74043617020662L71.18799905776977,57.74043617020662L72.10066571235656,56.80191958867796L73.01333236694336,56.80191958867796L73.92599902153016,54.24810703372228L74.83866567611693,53.70400257412949L75.75133233070373,53.70400257412949L76.66399898529053,53.70400257412949L77.57666563987732,53.275251494315924L78.48933229446412,53.275251494315924L79.40199894905089,53.275251494315924L80.31466560363769,53.05662160307132L81.2273322582245,51.13566513701254L82.13999891281128,51.13566513701254L83.05266556739808,51.13566513701254L83.96533222198485,51.13566513701254L84.87799887657165,51.13566513701254L85.79066553115845,51.13566513701254L86.70333218574524,49.67821412917668L87.61599884033204,49.67821412917668L88.52866549491881,49.67821412917668L89.44133214950561,47.02415911628164L90.35399880409241,47.02415911628164L91.2666654586792,47.02415911628164L92.17933211326599,47.02415911628164L93.09199876785279,45.70275091434749L94.00466542243957,45.70275091434749L94.91733207702637,45.70275091434749L95.82999873161316,45.70275091434749L96.74266538619995,45.70275091434749L97.65533204078675,45.18420965390064L98.56799869537353,45.18420965390064L99.48066534996033,45.18420965390064L100.39333200454712,42.72227180046045L101.3059986591339,42.72227180046045L102.2186653137207,42.72227180046045L103.13133196830749,41.54219559798315L104.04399862289429,41.54219559798315L104.95666527748108,41.54219559798315L105.86933193206787,41.54219559798315L106.78199858665467,41.54219559798315L107.69466524124145,41.54219559798315L108.60733189582825,41.54219559798315L109.51999855041504,41.54219559798315L110.43266520500183,41.54219559798315L111.34533185958863,41.54219559798315L112.25799851417541,41.38351979132861L113.17066516876221,40.04702292222589L114.083331823349,40.04702292222589L114.99599847793579,39.62161746133714L115.90866513252259,39.43195573395349L116.82133178710939,39.43195573395349L117.73399844169616,39.388596215959296L118.64666509628296,39.366245107710114L119.55933175086975,39.366245107710114L120.47199840545655,39.366245107710114L121.38466506004335,39.366245107710114L122.29733171463012,36.444807636888186L123.20999836921692,36.444807636888186L124.1226650238037,36.444807636888186L125.0353316783905,36.444807636888186L125.9479983329773,36.444807636888186L126.86066498756408,36.444807636888186L127.77333164215088,36.444807636888186L128.68599829673767,35.7050104339786L129.59866495132445,35.7050104339786L130.51133160591127,35.47123252977519L131.42399826049805,35.47123252977519L132.33666491508484,35.47123252977519L133.24933156967163,35.47123252977519L134.1619982242584,34.423408420848006L135.07466487884523,34.423408420848006L135.987331533432,34.423408420848006L136.8999981880188,34.423408420848006L137.81266484260559,34.423408420848006L138.7253314971924,34.35502723404383L139.6379981517792,34.35502723404383L140.55066480636597,34.35502723404383L141.46333146095276,34.00074770275785L142.37599811553955,34.00074770275785L143.28866477012633,34.00074770275785L144.20133142471312,34.00074770275785L145.11399807929993,34.00074770275785L146.02666473388672,34.00074770275785L146.9393313884735,34.00074770275785L147.85199804306032,34.00074770275785L148.7646646976471,34.00074770275785L149.67733135223386,34.00074770275785L150.58999800682068,34.00074770275785L151.50266466140747,34.00074770275785L152.41533131599425,32.29058006540822L153.32799797058107,32.05604550237922L154.24066462516785,32.05604550237922L155.15333127975464,31.3327019198137L156.06599793434142,31.3327019198137L156.97866458892824,31.3327019198137L157.89133124351503,31.3327019198137L158.80399789810178,31.3327019198137L159.7166645526886,30.83232047118031L160.62933120727538,30.068948153097836L161.54199786186217,30.068948153097836L162.454664516449,30.068948153097836L163.36733117103577,30.068948153097836L164.27999782562256,30.068948153097836L165.19266448020937,30.068948153097836L166.10533113479616,30.068948153097836L167.01799778938292,30.068948153097836L167.9306644439697,30.068948153097836L168.84333109855652,30.068948153097836L169.7559977531433,29.88519875006685L170.6686644077301,29.88519875006685L171.5813310623169,29.88519875006685L172.4939977169037,29.03560441698926L173.40666437149048,28.731768807407377L174.3193310260773,28.693624300730534L175.23199768066408,28.693624300730534L176.14466433525084,28.693624300730534L177.05733098983762,28.693624300730534L177.96999764442444,28.693624300730534L178.88266429901122,28.693624300730534L179.795330953598,28.693624300730534L180.70799760818483,28.693624300730534L181.6206642627716,28.693624300730534L182.5333309173584,28.181217911349734L183.4459975719452,28.181217911349734L184.35866422653197,27.119447541716113L185.27133088111876,27.119447541716113L186.18399753570557,27.119447541716113L187.09666419029236,27.119447541716113L188.00933084487914,27.119447541716113L188.92199749946593,27.119447541716113L189.83466415405275,27.119447541716113L190.74733080863953,27.119447541716113L191.65999746322632,27.119447541716113L192.57266411781313,27.119447541716113L193.4853307723999,27.119447541716113L194.39799742698668,27.119447541716113L195.3106640815735,27.119447541716113L196.22333073616028,27.119447541716113L197.13599739074706,27.119447541716113L198.04866404533388,26.440821012096535L198.96133069992067,26.440821012096535L199.87399735450745,26.440821012096535L200.78666400909424,26.440821012096535L201.69933066368102,26.440821012096535L202.6119973182678,26.440821012096535L203.5246639728546,25.82859500353186L204.4373306274414,25.82859500353186L205.3499972820282,25.82859500353186L206.26266393661498,25.82859500353186L207.1753305912018,25.82859500353186L208.08799724578859,25.82859500353186L209.00066390037537,25.82859500353186L209.91333055496216,25.82859500353186L210.82599720954894,25.82859500353186L211.73866386413573,25.82859500353186L212.65133051872252,25.82859500353186L213.56399717330933,25.82859500353186L214.47666382789612,25.82859500353186L215.3893304824829,25.52889876281924L216.30199713706972,25.52889876281924L217.2146637916565,25.52889876281924L218.12733044624326,25.416423653866644L219.03999710083008,25.416423653866644L219.95266375541686,25.416423653866644L220.86533041000365,25.416423653866644L221.77799706459047,25.03507502400737L222.69066371917725,25.03507502400737L223.60333037376404,25.03507502400737L224.51599702835082,24.752054950352232L225.42866368293764,24.752054950352232L226.34133033752443,24.752054950352232L227.25399699211118,24.752054950352232L228.166663646698,24.752054950352232L229.07933030128478,24.59836419007786L229.99199695587157,24.59836419007786L230.90466361045839,24.59836419007786L231.81733026504517,24.58254853697889L232.72999691963196,24.551332651312578L233.64266357421877,24.204411998016383L234.55533022880556,24.204411998016383L235.46799688339232,24.204411998016383L236.3806635379791,24.204411998016383L237.29333019256592,24.204411998016383L238.2059968471527,24.121342728127757L239.1186635017395,24.121342728127757L240.0313301563263,24.121342728127757L240.9439968109131,24.121342728127757L241.85666346549988,24.07591352569895L242.7693301200867,24.07591352569895L243.68199677467348,23.90619940205977L244.59466342926024,23.90619940205977L245.50733008384702,23.520525947736758L246.41999673843384,23.520525947736758L247.33266339302062,23.520525947736758L248.2453300476074,23.520525947736758L249.15799670219423,23.520525947736758L250.070663356781,23.520525947736758L250.9833300113678,23.520525947736758L251.8959966659546,23.520525947736758L252.80866332054137,23.520525947736758L253.72132997512816,23.520525947736758L254.63399662971497,23.520525947736758L255.54666328430176,23.520525947736758L256.4593299388886,23.496550248479736L257.37199659347533,23.496550248479736L258.28466324806215,23.316480284443628L259.1973299026489,23.168916977011577L260.1099965572357,23.168916977011577L261.02266321182253,23.168916977011577L261.9353298664093,23.168916977011577L262.8479965209961,23.168916977011577L263.7606631755829,23.168916977011577" fill="none"></path></g></g></g></g></g></g><g transform="translate(56, 174)" clip-path="url(#clip_1)"><clipPath id="clip_1"><rect width="273" height="25"></rect></clipPath><g><g><line x1="0" y1="0" x2="0" y2="5" style="visibility: inherit;" fill="rgb(0, 0, 0)" stroke="rgb(204, 204, 204)" stroke-width="1px"></line><line x1="18.25333309173584" y1="0" x2="18.25333309173584" y2="5" style="visibility: inherit;" fill="rgb(0, 0, 0)" stroke="rgb(204, 204, 204)" stroke-width="1px"></line><line x1="36.50666618347168" y1="0" x2="36.50666618347168" y2="5" style="visibility: inherit;" fill="rgb(0, 0, 0)" stroke="rgb(204, 204, 204)" stroke-width="1px"></line><line x1="54.75999927520752" y1="0" x2="54.75999927520752" y2="5" style="visibility: inherit;" fill="rgb(0, 0, 0)" stroke="rgb(204, 204, 204)" stroke-width="1px"></line><line x1="73.01333236694336" y1="0" x2="73.01333236694336" y2="5" style="visibility: inherit;" fill="rgb(0, 0, 0)" stroke="rgb(204, 204, 204)" stroke-width="1px"></line><line x1="91.2666654586792" y1="0" x2="91.2666654586792" y2="5" style="visibility: inherit;" fill="rgb(0, 0, 0)" stroke="rgb(204, 204, 204)" stroke-width="1px"></line><line x1="109.51999855041504" y1="0" x2="109.51999855041504" y2="5" style="visibility: inherit;" fill="rgb(0, 0, 0)" stroke="rgb(204, 204, 204)" stroke-width="1px"></line><line x1="127.77333164215088" y1="0" x2="127.77333164215088" y2="5" style="visibility: inherit;" fill="rgb(0, 0, 0)" stroke="rgb(204, 204, 204)" stroke-width="1px"></line><line x1="146.02666473388672" y1="0" x2="146.02666473388672" y2="5" style="visibility: inherit;" fill="rgb(0, 0, 0)" stroke="rgb(204, 204, 204)" stroke-width="1px"></line><line x1="164.27999782562256" y1="0" x2="164.27999782562256" y2="5" style="visibility: inherit;" fill="rgb(0, 0, 0)" stroke="rgb(204, 204, 204)" stroke-width="1px"></line><line x1="182.5333309173584" y1="0" x2="182.5333309173584" y2="5" style="visibility: inherit;" fill="rgb(0, 0, 0)" stroke="rgb(204, 204, 204)" stroke-width="1px"></line><line x1="200.78666400909424" y1="0" x2="200.78666400909424" y2="5" style="visibility: inherit;" fill="rgb(0, 0, 0)" stroke="rgb(204, 204, 204)" stroke-width="1px"></line><line x1="219.03999710083008" y1="0" x2="219.03999710083008" y2="5" style="visibility: inherit;" fill="rgb(0, 0, 0)" stroke="rgb(204, 204, 204)" stroke-width="1px"></line><line x1="237.29333019256592" y1="0" x2="237.29333019256592" y2="5" style="visibility: inherit;" fill="rgb(0, 0, 0)" stroke="rgb(204, 204, 204)" stroke-width="1px"></line><line x1="255.54666328430176" y1="0" x2="255.54666328430176" y2="5" style="visibility: inherit;" fill="rgb(0, 0, 0)" stroke="rgb(204, 204, 204)" stroke-width="1px"></line><line x1="273.7999963760376" y1="0" x2="273.7999963760376" y2="5" style="visibility: inherit;" fill="rgb(0, 0, 0)" stroke="rgb(204, 204, 204)" stroke-width="1px"></line></g><g transform="translate(0, 8)"><text style="text-anchor: middle; visibility: hidden; font-family: &quot;Helvetica Neue&quot;, sans-serif; font-size: 12px; font-weight: 200;" x="0" y="0" dx="0em" dy="0.95em" fill="rgb(50, 49, 63)" stroke="none" stroke-width="1px">-20</text><text style="text-anchor: middle; visibility: inherit; font-family: &quot;Helvetica Neue&quot;, sans-serif; font-size: 12px; font-weight: 200;" x="18.25333309173584" y="0" dx="0em" dy="0.95em" fill="rgb(50, 49, 63)" stroke="none" stroke-width="1px">0</text><text style="text-anchor: middle; visibility: hidden; font-family: &quot;Helvetica Neue&quot;, sans-serif; font-size: 12px; font-weight: 200;" x="36.50666618347168" y="0" dx="0em" dy="0.95em" fill="rgb(50, 49, 63)" stroke="none" stroke-width="1px">20</text><text style="text-anchor: middle; visibility: inherit; font-family: &quot;Helvetica Neue&quot;, sans-serif; font-size: 12px; font-weight: 200;" x="54.75999927520752" y="0" dx="0em" dy="0.95em" fill="rgb(50, 49, 63)" stroke="none" stroke-width="1px">40</text><text style="text-anchor: middle; visibility: hidden; font-family: &quot;Helvetica Neue&quot;, sans-serif; font-size: 12px; font-weight: 200;" x="73.01333236694336" y="0" dx="0em" dy="0.95em" fill="rgb(50, 49, 63)" stroke="none" stroke-width="1px">60</text><text style="text-anchor: middle; visibility: inherit; font-family: &quot;Helvetica Neue&quot;, sans-serif; font-size: 12px; font-weight: 200;" x="91.2666654586792" y="0" dx="0em" dy="0.95em" fill="rgb(50, 49, 63)" stroke="none" stroke-width="1px">80</text><text style="text-anchor: middle; visibility: hidden; font-family: &quot;Helvetica Neue&quot;, sans-serif; font-size: 12px; font-weight: 200;" x="109.51999855041504" y="0" dx="0em" dy="0.95em" fill="rgb(50, 49, 63)" stroke="none" stroke-width="1px">100</text><text style="text-anchor: middle; visibility: inherit; font-family: &quot;Helvetica Neue&quot;, sans-serif; font-size: 12px; font-weight: 200;" x="127.77333164215088" y="0" dx="0em" dy="0.95em" fill="rgb(50, 49, 63)" stroke="none" stroke-width="1px">120</text><text style="text-anchor: middle; visibility: hidden; font-family: &quot;Helvetica Neue&quot;, sans-serif; font-size: 12px; font-weight: 200;" x="146.02666473388672" y="0" dx="0em" dy="0.95em" fill="rgb(50, 49, 63)" stroke="none" stroke-width="1px">140</text><text style="text-anchor: middle; visibility: inherit; font-family: &quot;Helvetica Neue&quot;, sans-serif; font-size: 12px; font-weight: 200;" x="164.27999782562256" y="0" dx="0em" dy="0.95em" fill="rgb(50, 49, 63)" stroke="none" stroke-width="1px">160</text><text style="text-anchor: middle; visibility: hidden; font-family: &quot;Helvetica Neue&quot;, sans-serif; font-size: 12px; font-weight: 200;" x="182.5333309173584" y="0" dx="0em" dy="0.95em" fill="rgb(50, 49, 63)" stroke="none" stroke-width="1px">180</text><text style="text-anchor: middle; visibility: inherit; font-family: &quot;Helvetica Neue&quot;, sans-serif; font-size: 12px; font-weight: 200;" x="200.78666400909424" y="0" dx="0em" dy="0.95em" fill="rgb(50, 49, 63)" stroke="none" stroke-width="1px">200</text><text style="text-anchor: middle; visibility: hidden; font-family: &quot;Helvetica Neue&quot;, sans-serif; font-size: 12px; font-weight: 200;" x="219.03999710083008" y="0" dx="0em" dy="0.95em" fill="rgb(50, 49, 63)" stroke="none" stroke-width="1px">220</text><text style="text-anchor: middle; visibility: inherit; font-family: &quot;Helvetica Neue&quot;, sans-serif; font-size: 12px; font-weight: 200;" x="237.29333019256592" y="0" dx="0em" dy="0.95em" fill="rgb(50, 49, 63)" stroke="none" stroke-width="1px">240</text><text style="text-anchor: middle; visibility: hidden; font-family: &quot;Helvetica Neue&quot;, sans-serif; font-size: 12px; font-weight: 200;" x="255.54666328430176" y="0" dx="0em" dy="0.95em" fill="rgb(50, 49, 63)" stroke="none" stroke-width="1px">260</text><text style="text-anchor: middle; visibility: hidden; font-family: &quot;Helvetica Neue&quot;, sans-serif; font-size: 12px; font-weight: 200;" x="273.7999963760376" y="0" dx="0em" dy="0.95em" fill="rgb(50, 49, 63)" stroke="none" stroke-width="1px">280</text></g><line x1="0" y1="0" x2="273.7999963760376" y2="0" fill="rgb(0, 0, 0)" stroke="rgb(204, 204, 204)" stroke-width="1px"></line></g></g></g></g></svg>