<svg viewBox="0 0 330 200" xmlns="http://www.w3.org/2000/svg"><g><g><g><g><g><line x1="65.44000434875488" y1="174.23999977111816" x2="60.44000434875488" y2="174.23999977111816" style="visibility: inherit;" fill="rgb(0, 0, 0)" stroke="rgb(204, 204, 204)" stroke-width="1px"></line><line x1="65.44000434875488" y1="160.83692286564752" x2="60.44000434875488" y2="160.83692286564752" style="visibility: inherit;" fill="rgb(0, 0, 0)" stroke="rgb(204, 204, 204)" stroke-width="1px"></line><line x1="65.44000434875488" y1="147.4338459601769" x2="60.44000434875488" y2="147.4338459601769" style="visibility: inherit;" fill="rgb(0, 0, 0)" stroke="rgb(204, 204, 204)" stroke-width="1px"></line><line x1="65.44000434875488" y1="134.03076905470627" x2="60.44000434875488" y2="134.03076905470627" style="visibility: inherit;" fill="rgb(0, 0, 0)" stroke="rgb(204, 204, 204)" stroke-width="1px"></line><line x1="65.44000434875488" y1="120.62769214923566" x2="60.44000434875488" y2="120.62769214923566" style="visibility: inherit;" fill="rgb(0, 0, 0)" stroke="rgb(204, 204, 204)" stroke-width="1px"></line><line x1="65.44000434875488" y1="107.22461524376503" x2="60.44000434875488" y2="107.22461524376503" style="visibility: inherit;" fill="rgb(0, 0, 0)" stroke="rgb(204, 204, 204)" stroke-width="1px"></line><line x1="65.44000434875488" y1="93.8215383382944" x2="60.44000434875488" y2="93.8215383382944" style="visibility: inherit;" fill="rgb(0, 0, 0)" stroke="rgb(204, 204, 204)" stroke-width="1px"></line><line x1="65.44000434875488" y1="80.41846143282378" x2="60.44000434875488" y2="80.41846143282378" style="visibility: inherit;" fill="rgb(0, 0, 0)" stroke="rgb(204, 204, 204)" stroke-width="1px"></line><line x1="65.44000434875488" y1="67.01538452735315" x2="60.44000434875488" y2="67.01538452735315" style="visibility: inherit;" fill="rgb(0, 0, 0)" stroke="rgb(204, 204, 204)" stroke-width="1px"></line><line x1="65.44000434875488" y1="53.61230762188252" x2="60.44000434875488" y2="53.61230762188252" style="visibility: inherit;" fill="rgb(0, 0, 0)" stroke="rgb(204, 204, 204)" stroke-width="1px"></line><line x1="65.44000434875488" y1="40.209230716411895" x2="60.44000434875488" y2="40.209230716411895" style="visibility: inherit;" fill="rgb(0, 0, 0)" stroke="rgb(204, 204, 204)" stroke-width="1px"></line><line x1="65.44000434875488" y1="26.806153810941282" x2="60.44000434875488" y2="26.806153810941282" style="visibility: inherit;" fill="rgb(0, 0, 0)" stroke="rgb(204, 204, 204)" stroke-width="1px"></line><line x1="65.44000434875488" y1="13.403076905470641" x2="60.44000434875488" y2="13.403076905470641" style="visibility: inherit;" fill="rgb(0, 0, 0)" stroke="rgb(204, 204, 204)" stroke-width="1px"></line><line x1="65.44000434875488" y1="0" x2="60.44000434875488" y2="0" style="visibility: inherit;" fill="rgb(0, 0, 0)" stroke="rgb(204, 204, 204)" stroke-width="1px"></line></g><g transform="translate(55.44000434875488, 0)"><text style="text-anchor: end; visibility: hidden; font-family: &quot;Helvetica Neue&quot;, sans-serif; font-size: 12px; font-weight: 200;" x="0" y="174.23999977111816" dx="0em" dy="0.3em" fill="rgb(50, 49, 63)" stroke="none" stroke-width="1px">-1e-5</text><text style="text-anchor: end; visibility: inherit; font-family: &quot;Helvetica Neue&quot;, sans-serif; font-size: 12px; font-weight: 200;" x="0" y="160.83692286564752" dx="0em" dy="0.3em" fill="rgb(50, 49, 63)" stroke="none" stroke-width="1px">0</text><text style="text-anchor: end; visibility: hidden; font-family: &quot;Helvetica Neue&quot;, sans-serif; font-size: 12px; font-weight: 200;" x="0" y="147.4338459601769" dx="0em" dy="0.3em" fill="rgb(50, 49, 63)" stroke="none" stroke-width="1px">1e-5</text><text style="text-anchor: end; visibility: hidden; font-family: &quot;Helvetica Neue&quot;, sans-serif; font-size: 12px; font-weight: 200;" x="0" y="134.03076905470627" dx="0em" dy="0.3em" fill="rgb(50, 49, 63)" stroke="none" stroke-width="1px">2e-5</text><text style="text-anchor: end; visibility: inherit; font-family: &quot;Helvetica Neue&quot;, sans-serif; font-size: 12px; font-weight: 200;" x="0" y="120.62769214923566" dx="0em" dy="0.3em" fill="rgb(50, 49, 63)" stroke="none" stroke-width="1px">3e-5</text><text style="text-anchor: end; visibility: hidden; font-family: &quot;Helvetica Neue&quot;, sans-serif; font-size: 12px; font-weight: 200;" x="0" y="107.22461524376503" dx="0em" dy="0.3em" fill="rgb(50, 49, 63)" stroke="none" stroke-width="1px">4e-5</text><text style="text-anchor: end; visibility: hidden; font-family: &quot;Helvetica Neue&quot;, sans-serif; font-size: 12px; font-weight: 200;" x="0" y="93.8215383382944" dx="0em" dy="0.3em" fill="rgb(50, 49, 63)" stroke="none" stroke-width="1px">5e-5</text><text style="text-anchor: end; visibility: inherit; font-family: &quot;Helvetica Neue&quot;, sans-serif; font-size: 12px; font-weight: 200;" x="0" y="80.41846143282378" dx="0em" dy="0.3em" fill="rgb(50, 49, 63)" stroke="none" stroke-width="1px">6e-5</text><text style="text-anchor: end; visibility: hidden; font-family: &quot;Helvetica Neue&quot;, sans-serif; font-size: 12px; font-weight: 200;" x="0" y="67.01538452735315" dx="0em" dy="0.3em" fill="rgb(50, 49, 63)" stroke="none" stroke-width="1px">7e-5</text><text style="text-anchor: end; visibility: hidden; font-family: &quot;Helvetica Neue&quot;, sans-serif; font-size: 12px; font-weight: 200;" x="0" y="53.61230762188252" dx="0em" dy="0.3em" fill="rgb(50, 49, 63)" stroke="none" stroke-width="1px">8e-5</text><text style="text-anchor: end; visibility: inherit; font-family: &quot;Helvetica Neue&quot;, sans-serif; font-size: 12px; font-weight: 200;" x="0" y="40.209230716411895" dx="0em" dy="0.3em" fill="rgb(50, 49, 63)" stroke="none" stroke-width="1px">9e-5</text><text style="text-anchor: end; visibility: hidden; font-family: &quot;Helvetica Neue&quot;, sans-serif; font-size: 12px; font-weight: 200;" x="0" y="26.806153810941282" dx="0em" dy="0.3em" fill="rgb(50, 49, 63)" stroke="none" stroke-width="1px">1e-4</text><text style="text-anchor: end; visibility: hidden; font-family: &quot;Helvetica Neue&quot;, sans-serif; font-size: 12px; font-weight: 200;" x="0" y="13.403076905470641" dx="0em" dy="0.3em" fill="rgb(50, 49, 63)" stroke="none" stroke-width="1px">1.1e-4</text><text style="text-anchor: end; visibility: hidden; font-family: &quot;Helvetica Neue&quot;, sans-serif; font-size: 12px; font-weight: 200;" x="0" y="0" dx="0em" dy="0.3em" fill="rgb(50, 49, 63)" stroke="none" stroke-width="1px">1.2e-4</text></g><line x1="65.44000434875488" y1="0" x2="65.44000434875488" y2="174.23999977111816" fill="rgb(0, 0, 0)" stroke="rgb(204, 204, 204)" stroke-width="1px"></line></g></g><g transform="translate(65, 0)" clip-path="url(#clip_0)"><clipPath id="clip_0"><rect width="264" height="174"></rect></clipPath><g><g><g><line x1="0" y1="0" x2="0" y2="174.23999977111816" fill="rgb(0, 0, 0)" stroke="rgb(60, 60, 60)" stroke-width="1px" opacity="0.25"></line><line x1="24.05090869556774" y1="0" x2="24.05090869556774" y2="174.23999977111816" fill="rgb(0, 0, 0)" stroke="rgb(60, 60, 60)" stroke-width="1px" opacity="0.25"></line><line x1="48.10181739113548" y1="0" x2="48.10181739113548" y2="174.23999977111816" fill="rgb(0, 0, 0)" stroke="rgb(60, 60, 60)" stroke-width="1px" opacity="0.25"></line><line x1="72.15272608670321" y1="0" x2="72.15272608670321" y2="174.23999977111816" fill="rgb(0, 0, 0)" stroke="rgb(60, 60, 60)" stroke-width="1px" opacity="0.25"></line><line x1="96.20363478227095" y1="0" x2="96.20363478227095" y2="174.23999977111816" fill="rgb(0, 0, 0)" stroke="rgb(60, 60, 60)" stroke-width="1px" opacity="0.25"></line><line x1="120.25454347783868" y1="0" x2="120.25454347783868" y2="174.23999977111816" fill="rgb(0, 0, 0)" stroke="rgb(60, 60, 60)" stroke-width="1px" opacity="0.25"></line><line x1="144.30545217340642" y1="0" x2="144.30545217340642" y2="174.23999977111816" fill="rgb(0, 0, 0)" stroke="rgb(60, 60, 60)" stroke-width="1px" opacity="0.25"></line><line x1="168.35636086897415" y1="0" x2="168.35636086897415" y2="174.23999977111816" fill="rgb(0, 0, 0)" stroke="rgb(60, 60, 60)" stroke-width="1px" opacity="0.25"></line><line x1="192.4072695645419" y1="0" x2="192.4072695645419" y2="174.23999977111816" fill="rgb(0, 0, 0)" stroke="rgb(60, 60, 60)" stroke-width="1px" opacity="0.25"></line><line x1="216.45817826010966" y1="0" x2="216.45817826010966" y2="174.23999977111816" fill="rgb(0, 0, 0)" stroke="rgb(60, 60, 60)" stroke-width="1px" opacity="0.25"></line><line x1="240.50908695567736" y1="0" x2="240.50908695567736" y2="174.23999977111816" fill="rgb(0, 0, 0)" stroke="rgb(60, 60, 60)" stroke-width="1px" opacity="0.25"></line><line x1="264.5599956512451" y1="0" x2="264.5599956512451" y2="174.23999977111816" fill="rgb(0, 0, 0)" stroke="rgb(60, 60, 60)" stroke-width="1px" opacity="0.25"></line></g><g><line x1="0" y1="174.23999977111816" x2="264.5599956512451" y2="174.23999977111816" fill="rgb(0, 0, 0)" stroke="rgb(60, 60, 60)" stroke-width="1px" opacity="0.25"></line><line x1="0" y1="160.83692286564752" x2="264.5599956512451" y2="160.83692286564752" fill="rgb(0, 0, 0)" stroke="rgb(60, 60, 60)" stroke-width="1px" opacity="0.25"></line><line x1="0" y1="147.4338459601769" x2="264.5599956512451" y2="147.4338459601769" fill="rgb(0, 0, 0)" stroke="rgb(60, 60, 60)" stroke-width="1px" opacity="0.25"></line><line x1="0" y1="134.03076905470627" x2="264.5599956512451" y2="134.03076905470627" fill="rgb(0, 0, 0)" stroke="rgb(60, 60, 60)" stroke-width="1px" opacity="0.25"></line><line x1="0" y1="120.62769214923566" x2="264.5599956512451" y2="120.62769214923566" fill="rgb(0, 0, 0)" stroke="rgb(60, 60, 60)" stroke-width="1px" opacity="0.25"></line><line x1="0" y1="107.22461524376503" x2="264.5599956512451" y2="107.22461524376503" fill="rgb(0, 0, 0)" stroke="rgb(60, 60, 60)" stroke-width="1px" opacity="0.25"></line><line x1="0" y1="93.8215383382944" x2="264.5599956512451" y2="93.8215383382944" fill="rgb(0, 0, 0)" stroke="rgb(60, 60, 60)" stroke-width="1px" opacity="0.25"></line><line x1="0" y1="80.41846143282378" x2="264.5599956512451" y2="80.41846143282378" fill="rgb(0, 0, 0)" stroke="rgb(60, 60, 60)" stroke-width="1px" opacity="0.25"></line><line x1="0" y1="67.01538452735315" x2="264.5599956512451" y2="67.01538452735315" fill="rgb(0, 0, 0)" stroke="rgb(60, 60, 60)" stroke-width="1px" opacity="0.25"></line><line x1="0" y1="53.61230762188252" x2="264.5599956512451" y2="53.61230762188252" fill="rgb(0, 0, 0)" stroke="rgb(60, 60, 60)" stroke-width="1px" opacity="0.25"></line><line x1="0" y1="40.209230716411895" x2="264.5599956512451" y2="40.209230716411895" fill="rgb(0, 0, 0)" stroke="rgb(60, 60, 60)" stroke-width="1px" opacity="0.25"></line><line x1="0" y1="26.806153810941282" x2="264.5599956512451" y2="26.806153810941282" fill="rgb(0, 0, 0)" stroke="rgb(60, 60, 60)" stroke-width="1px" opacity="0.25"></line><line x1="0" y1="13.403076905470641" x2="264.5599956512451" y2="13.403076905470641" fill="rgb(0, 0, 0)" stroke="rgb(60, 60, 60)" stroke-width="1px" opacity="0.25"></line><line x1="0" y1="0" x2="264.5599956512451" y2="0" fill="rgb(0, 0, 0)" stroke="rgb(60, 60, 60)" stroke-width="1px" opacity="0.25"></line></g></g></g><g><g><line x1="0" y1="160.83692286564752" x2="264.5599956512451" y2="160.83692286564752" fill="rgb(0, 0, 0)" stroke="rgb(153, 153, 153)" stroke-width="1.5px"></line></g></g><g><g><line x1="24.05090869556774" y1="0" x2="24.05090869556774" y2="174.23999977111816" fill="rgb(0, 0, 0)" stroke="rgb(153, 153, 153)" stroke-width="1.5px"></line></g></g><g><g><g><g><g><path style="fill: none;" stroke="rgb(255, 112, 67)" stroke-width="2px" d="M24.101415603828432,26.806157196843287L24.251733783175727,26.806157196843287L24.326291600131988,26.806157196843287L24.620915231652692,26.806157196843287L24.695473048608953,26.806157196843287L24.747182502304423,26.806157196843287L24.755600320347874,26.806157196843287L24.828955591869356,26.806157196843287L24.909526135999506,26.807627010856493L25.022565406868676,26.808499361697557L25.270289766433024,26.809019384056057L25.653901760127326,26.80933018739657L25.716434122735805,26.80951623584184L25.7777639399095,26.81399613757756L26.136122479473464,26.816681830754078L26.139730115777795,26.81829243825743L26.30808647664677,26.819258511913375L26.825181013601476,26.827113798737543L26.9237897392533,26.83182646022007L27.03923410099203,26.83465387331367L27.040436646426805,26.83635025500857L27.27974318794771,26.837368060208604L27.93513044990193,26.848159926070736L27.95437117685838,26.85463499104273L28.025321357510308,26.85852001038981L28.40171807859594,26.87394215152102L28.4041231694655,26.883195419363005L28.464250441204417,26.888747374006982L28.80817843555104,26.892078544611365L29.24229733750603,26.910074466525856L29.342108608592643,26.920872017128374L29.452742788592253,26.92735054657328L29.473186060983483,26.931237663910196L30.0287620518511,26.952473254076068L30.224776957719975,26.96521460778615L30.478514044458215,26.972859419872066L30.933076218804448,26.999251828280165L31.15434457880367,27.0150872732205L31.254155849890275,27.024588540147107L31.506690391193736,27.030289300289496L32.10676056314815,27.05841357838443L32.121191108365494,27.075288145226978L32.2931551055388,27.085412885327287L32.42784019423398,27.09148772938562L32.6551212814071,27.12273085793106L33.021897639014504,27.1414767350563L33.02550527531884,27.152724261330633L33.4283579959696,27.18996930012642L33.47044708618684,27.212316323403343L33.75064017249021,27.225724537369302L33.887730352054945,27.23376946574882L33.93703471488086,27.23859642277651L34.270139800314475,27.27487961932877L34.28216525466225,27.296649537260123L34.727107065530255,27.309711488018934L34.795652155312624,27.31754865847421L35.1864794216156,27.358524581579132L35.436608872049504,27.38311013544208L35.54002777944045,27.397861467759867L35.71319432204853,27.40671226715054L36.556178671828185,27.451179065304075L36.652382306610455,27.477859144196174L36.70409176030592,27.49386719153145L37.16466666182605,27.54551103613909L37.23802193334753,27.57649734290362L37.302959386825556,27.595089126962392L37.91866264943209,27.651154208865137L37.95954919421456,27.684793258006778L38.102652100953186,27.70497668749178L38.44417500443025,27.71708674518277L38.45018773160414,27.724352779797357L38.678671364212036,27.776493407294595L38.83019208899412,27.807777783792943L39.53608625920903,27.877192610063958L39.72488589246923,27.91884150582652L39.75735461920825,27.943830843284076L40.40191897224946,28.012324038156493L40.42957751724937,28.05341995507993L41.24009314029,28.134436390466533L41.68984513289712,28.1830462516985L41.82332767615752,28.212212168437674L41.936366947026684,28.288910392504533L42.65789420789372,28.334929326944632L43.00783492941423,28.424583051231593L43.43113092245623,28.478375285803736L44.322217089627,28.57552887815197L44.573549085495685,28.70152347072147L44.61082799397382,28.77712022626318L44.87538798962507,28.822478279588182L44.90184398919019,28.849693111583207L45.147163257884976,28.8660220107802L45.16399889397188,28.87581935029843L46.239074512663755,29.025547879336045L47.10250213483464,29.191520982498474L47.53782358222441,29.291104844395875L47.66890103461526,29.350855161534355L47.778332669180095,29.386705351817454L48.09580466396158,29.487144430812577L48.165552299178735,29.54740787820964L48.17637520809174,29.583565946647894L48.3952384772214,29.605260787710847L48.404858840699625,29.618277692348613L48.490239566568896,29.626087835131244L48.63093738243797,29.630773920800863L48.74998938048103,29.715299714495757L48.79688865243738,29.766015190712693L49.038600284827844,29.796444476442844L49.042207921132174,29.814702047880928L49.129993737871,29.82565659074379L49.40056646069613,29.832229316461536L49.47752936852195,29.836172951892138L49.58335336678245,29.923030651294L49.68797481960817,29.975145270935087L50.324121354605936,30.00641404271977L50.80153189221295,30.112436398166835L50.90374825416912,30.176049811435036L50.937419526342914,30.214217859395973L51.875404965470054,30.327137652355248L51.88743041981784,30.39488952813079L51.94034241894809,30.43554065359612L52.05338168981726,30.55269646243812L52.14357259742563,30.62298994774332L52.222940596121006,30.6651660389264L52.358828230250964,30.690471693636283L52.515159136772155,30.7056550864622L52.52838713655472,30.714765122157758L52.552438045250284,30.72023114357509L53.088773309161446,30.8190181585596L53.25111694285653,30.878290367550306L53.253522033726085,30.91385369294477L53.29921876024767,30.93519168818139L53.6587798452464,30.94799448532339L53.78624966133291,31.053906330270138L54.035176566332034,31.117453437238197L54.41878856002634,31.15558170141901L54.58473983002576,31.279407690307693L55.09101145806746,31.353703283640897L55.1331005482847,31.398280639640802L55.222088910458304,31.42502705324077L55.68146126654365,31.54473109307324L56.27551871132417,31.72290126670245L56.27672125675895,31.829803370879972L56.70482743154005,31.893944633386496L57.126920879147264,32.04146479786854L57.244770331755554,32.12997689655779L57.28685942197279,32.1830841557713L57.51173541827635,32.21494851129941L57.62116705284119,32.234067124616274L58.2488957697955,32.35724185278909L58.37516304044724,32.43114668969275L58.888649941097604,32.58984960279585L58.919916122401844,32.685071350657665L58.99928412109722,32.74220439937477L59.16643793653141,32.77648422860503L59.240995753487674,32.7970521261432L59.491125203921584,32.80939286466608L59.65948156479055,32.93380596790129L59.92163646957224,33.00845382984244L60.13328446609324,33.05324254700713L60.164550647397476,33.080115777305934L60.336514644570784,33.09623971548524L60.52050409609188,33.22555578443985L60.692468093265184,33.3031454258126L60.86322954500372,33.34969921063623L60.976268815872885,33.37763148153044L60.99310445195979,33.39439084406695L61.818050620217754,33.5267056103263L61.86254480130455,33.6060944700819L62.388057156302715,33.77859657574555L62.455399700650304,33.88209783914374L62.781289513475244,33.94419859718266L63.05546987260472,34.10892187965402L63.184142234126,34.207755849136845L63.32243495912552,34.26705623082654L63.44870222977725,34.30263645984036L63.607438227168,34.323984597248625L63.617058590646224,34.3367934796936L63.77579458803697,34.34447880916062L63.9525687669494,34.47912736828266L64.1858625812964,34.559916503755915L64.2195338534702,34.60838998503985L64.62118402868617,34.63747407381021L64.63561457390352,34.65492452707244L64.67890620955554,34.66539479902977L64.74384366303357,34.671676962204174L64.78833784412038,34.80805425453573L64.83283202520718,34.88988062993468L64.98074511368492,34.93897645517407L65.37277492542266,34.96843395031766L65.56878983129154,34.986108447403836L65.65777819346515,35.131864467406075L66.54044654259249,35.35700882767284L66.56569999672283,35.49209544383291L66.72082835780924,35.57314741352894L67.06716144302541,35.62177859534654L67.28602471215508,35.6509573044371L67.38703852867647,35.80867520062779L68.09894542606527,35.903305938342186L68.13502178910862,35.96008438097084L68.2648966960647,36.136870337328986L68.3647079671513,36.24294191114387L68.7880039601933,36.30658485543279L69.13313449997469,36.48997432797904L69.46383449453874,36.60000801150679L69.59851958323392,36.66602822162341L70.29479338997061,36.85331716643191L70.61346793018689,36.965690533317L70.75777338236028,37.183252782525784L70.92733228866403,37.31379013205111L71.30613410061923,37.39211254176627L71.79436754713926,37.59168222215973L72.04329445213838,37.71142403039579L72.17677699539877,37.78326911533745L72.5086795353976,37.981374803118285L72.75399880409242,38.10023821578676L72.95001370996128,38.171556263387885L72.9548238917004,38.2143470919485L73.01855879974366,38.240021589084904L73.10634461648247,38.25542628736676L73.40337333887274,38.42207454216805L73.68116133430654,38.522063495048826L73.76533951474103,38.582056866777265L74.00344351082715,38.61805288981435L74.71895804452029,38.79944713525006L75.09896240191027,39.0704559066711L75.12060821973627,39.233061169523694L75.37314276103973,39.330624327235256L76.38328092625358,39.55368273290651L76.52878892386177,39.68751777630925L76.6153721951658,39.9346797986623L76.64784092190483,40.08297701207414L76.65265110364393,40.17195534012123L76.72841146603497,40.225342336949524L76.9544900077733,40.25737453504644L77.05069364255559,40.27659385390464L77.20341691277244,40.28812544521952L77.21183473081588,40.29504440000849L77.26474672994613,40.29919577288186L77.3284816379894,40.30168659660589L77.94418490059593,40.47235916756617L78.12216162494313,40.57476271014232L78.6128001623327,40.807680488784484L78.77514379602779,40.94743115596978L78.95672815667933,41.03128155628093L79.75040814363307,41.25535332350833L79.7696488705895,41.389796383844754L79.86464995993701,41.470462220046585L80.93251030602022,41.87314097665353L81.33776811754052,42.11474823061769L81.41833866167069,42.25971258299617L81.46523793362704,42.3466911944233L81.63118920362646,42.39887836127957L81.70935465688706,42.61067718276823L81.73701320188697,42.7377564756614L81.86448301797346,42.81400405139732L81.99075028862521,42.85975259683889L82.046067378625,42.88720172410382L82.40081828188464,42.90367120046278L83.30272735796841,43.096239463804125L83.39772844731591,43.39665145225098L83.54924917209799,43.57689864531906L84.18539570709575,43.68504696115991L84.24552297883467,43.93696802916975L84.37660043122553,44.088120669975666L84.41267679426886,44.17881225445919L85.16306514557058,44.42240472848286L85.35547241513513,44.56856021289704L85.54186695752577,44.65625350354554L85.65370368296016,44.708869477934655L86.34035712621862,44.931734725068395L86.58447384947864,45.065453873348645L86.93441457099915,45.33908356074872L87.00776984252063,45.503261373188735L87.19656947578083,45.60176806065277L87.40340729056271,45.6608720731312L87.67277746795307,45.891811810129155L87.71246146730077,46.030375652327905L87.89645091882186,46.11351395764717L87.91448910034353,46.16339694083871L88.34860800229853,46.193326730753625L88.63481381577579,46.40881766043978L88.64323163381924,46.53811221825147L88.64804181555834,46.6156889529385L88.82241090360121,46.662234993750715L88.87532290273147,46.69016261823805L89.13627526207837,46.70691919293043L89.8193210690325,46.91654631647421L89.95881633946678,47.04232259060049L90.11514724598798,47.117788355076286L90.169261790553,47.16306781376174L90.55046869337775,47.39182148503113L90.8438897794637,47.52907368779276L90.85351014294191,47.61142500944972L91.04832250337601,47.86441121097907L91.11205741141926,48.016202931896686L91.79871085467772,48.10727796444725L92.00314357859004,48.36747220175471L92.01997921467695,48.523588744139175L92.12460066750266,48.61725866956988L92.339856300328,48.673460624828266L92.37954029967568,48.707181797983324L92.9627748355432,48.93490632242518L93.17803046836853,49.071541037090284L94.32766390401667,49.36294068597479L94.46715917445096,49.749102890074894L94.66317408031985,49.98080021253493L94.69564280705886,50.119818606010966L94.7160860794501,50.20322964209659L95.31856134227407,50.46647496753981L95.37508097770865,50.62442216280574L95.52058897531683,50.71919047996529L95.77071842575073,50.776051470261024L95.8067947887941,50.81016806443847L96.41889041509629,51.04569350971538L96.42610568770495,51.187008776881555L96.45256168727009,51.27179793718123L96.56079077640013,51.32267143336105L96.77484386379068,51.35319553106895L97.6527020311789,51.58839495778126L97.73808275704818,51.72951461380866L97.93289511748227,52.03287744997715L98.22391111269863,52.214895151678235L98.77587946726193,52.54458338567153L98.87208310204419,52.74239632606751L99.22923909617337,52.86108409030511L99.2665180046515,52.93229674884766L99.65975036182402,53.19726122170496L99.8401321770408,53.35623990541933L100.07583108225735,53.45162711564795L100.42817689464744,53.732832179423355L100.6181790733424,53.901555217688596L100.85147288768943,54.002789040647755L101.28438924420963,54.289210626306456L101.64034269290404,54.461063577701694L101.83996523507726,54.56417534853884L102.08287941290249,54.85340885231669L102.51098558768359,55.0269489545834L102.56750522311818,55.13107301594343L102.93909176246468,55.422575638574656L102.9895986707254,55.59747721215341L103.47783211724541,55.70241815630065L103.77726593050524,55.996049248291214L104.36531064811186,56.17222790348558L104.59259173528498,56.51020875532117L104.64670627985001,56.71299726642253L105.15057281702215,56.83467037308334L106.14026770984475,57.14153552497169L106.16191352767076,57.325654616104686L106.27856043484428,57.43612607078448L106.33989025201797,57.737826654186875L106.5335000670173,57.9188470042283L107.23217896462354,58.26441384350642L107.24901460071044,58.47175394707328L107.5737018681006,58.59615800921338L107.8911738628821,58.67080044649748L107.98617495222959,58.9540462503097L108.12687276809865,59.123993732597015L108.78466512092244,59.22596222196941L108.92656548222628,59.527085964370485L109.01795893526943,59.70776020981111L109.32941820287705,59.816164757075484L109.4268243830941,59.88120748543412L109.94632401091835,60.16163077290133L110.09784473570043,60.329884745381634L110.12911091700468,60.43083712886984L110.26860618743896,60.49140855896276L110.52114072874242,60.52775141701852L110.58247054591612,60.79238247831694L110.60892654548125,60.951161115095985L110.64861054482893,61.046428297163416L110.6786741806984,61.10358860640389L110.99133599374078,61.13788479194817L110.99374108461033,61.158462503274734L111.11640071895773,61.170809130070666L111.12000835526206,61.178217106148225L111.30520035221794,61.182661891794766L111.50362034895636,61.429554499999156L111.68400216417314,61.57769006492178L111.84754834330299,61.666571403875366L112.05198106721531,61.719900207247534L112.2191348826495,61.75189748927082L112.79154650960402,62.016698580800096L112.8480661450386,62.17557923571765L112.92021887112531,62.27090762866818L112.94787741612521,62.32810466443853L113.26414686547193,62.6093752880534L114.1227643059037,63.02640853774217L114.44745157329386,63.27662848755543L114.80581011285781,63.67632640147768L114.82745593068383,63.91614514983105L114.9236595654661,64.06003639884308L115.35777846742108,64.14637114825028L115.70651664350683,64.44900570478195L115.96265882111462,64.63058643870094L116.02398863828833,64.73953487905234L116.1971551808964,64.80490394326318L116.253674816331,64.8441253817897L116.39437263220006,64.86765824490563L116.53386790263437,65.13385212685408L116.54228572067781,65.29356845602317L116.88501116958966,65.38939825352462L117.28425625393608,65.44689613202547L117.73040061023885,65.73467827392628L118.011796241977,65.90734755906676L118.09958205871582,66.01094913015105L118.78142532023516,66.3275754326618L118.8631984098001,66.51755121416822L118.95579440827802,66.6315366830721L118.97263004436492,66.69992796441441L119.01952931632128,66.99658663328721L119.0580107702342,67.1745818346109L119.55466203479767,67.28137895540512L119.769917667623,67.34545722788162L120.22447984196923,67.64065542517196L120.29182238631681,67.81777434354618L120.29663256805594,67.9240456945707L120.37479802131654,67.9878085051854L120.45296347457713,68.02606619155422L120.72353619740227,68.30687206525549L120.74277692435871,68.47535558947625L120.9159434669668,68.57644570400869L120.94720964827104,68.63709977272818L120.99170382935783,68.67349221395986L121.45227873087796,68.69532767869886L121.47512709413876,68.70842895754228L121.59778672848616,68.9752098083336L121.91525872326764,69.13527831880839L122.0511463573976,69.23131942509328L122.09323544761484,69.2889440888642L122.6019121665261,69.58348438736469L123.54470778739235,70.02118437617658L123.58559433217482,70.28380436946371L123.68059542152231,70.44137636543599L124.18325941325968,70.79788617816068L124.77851940347497,71.01179206579549L124.9721292184743,71.40305791166847L125.30162666760357,71.63781741919227L125.55656629977659,71.77867312370655L125.78745502325404,72.12703725219649L125.88967138521022,72.33605572929045L126.04840738260096,72.46146681554683L126.2913215604262,72.53671346730067L126.3742971954259,72.58186145835298L126.47050083020817,72.60895025298434L126.87816373259804,72.8899514215636L126.91544264107617,73.05855212271118L126.95512664042387,73.15971254339972L127.0922168199886,73.22040879581284L127.16797718237963,73.25682654726073L127.48665172259591,73.54429887109626L128.40780152563616,73.98324261225186L128.5100178875923,74.24660885694519L128.68198188476563,74.40462860376118L129.1449618771553,74.49944045185079L129.21350696693767,74.82359927578476L129.4732567808498,75.0180945701451L129.66927168671867,75.13479174676132L130.03965568063043,75.47286583037571L130.68542257910642,75.67571028054432L130.85498148541018,75.7974169506455L131.3925192947561,76.13924958644515L131.49473565671227,76.3443491679249L131.51397638366873,76.46740891681276L131.97334873975407,76.81077504950845L131.9937920121453,77.01679472912586L132.24752909888355,77.1404065368963L132.3220869158398,77.21457362155857L132.56500109366505,77.25907387235591L132.82114327127283,77.55600255096867L133.5955825312701,78.00505142376298L133.84330689083444,78.27448074743954L134.23293161170264,78.43613834164552L134.25698252039822,78.53313289816907L134.26059015670256,78.59132963208322L134.36280651865872,78.8977712690805L134.36641415496305,79.08163625127887L134.82939414735276,79.19195524059788L135.5617443171328,79.53027875700754L135.6326944977847,79.73327286685333L136.03915485473982,80.12777487446951L136.15580176191332,80.36447607903922L136.45403302973833,80.50649680178104L136.97112756669304,80.86496089036383L137.73474391777734,81.35380590520997L138.03297518560234,81.64711291411764L138.16164754712366,81.82309711946225L138.36127008929685,81.92868764266902L138.5139933595137,82.26629416898248L138.67874208407835,82.46885808477055L138.74608462842596,82.59039643424339L138.78456608233887,82.6633194439271L138.8699468082081,82.70707324973733L139.32691407342392,82.73332553322346L139.43394061711916,83.02378355992722L139.4615991621191,83.19805837594947L139.85723661016118,83.30262326556284L140.13863224189933,83.36536219933086L140.21679769515993,83.67813935476501L140.8854129568967,83.8658056480255L140.96959113733118,83.9784054239818L141.19807476993907,84.32149306641556L141.4145329481992,84.52734565187582L141.65504203515485,84.65085720315197L141.75124566993713,84.72496413391765L141.88352566776277,84.76942829237706L142.15530093602268,85.07199733952912L142.38618965950013,85.25353876782033L142.4703678399346,85.36246362479505L142.52929256623875,85.42781853897989L143.16904673754084,85.74325945952654L143.7113947286259,86.20905429657059L143.8388645447124,86.488531198797L143.84126963558197,86.65621734013287L144.16595690297214,86.75682902493439L144.98609288949098,87.09400132755027L145.0137514344909,87.29630470911978L145.208563794925,87.41768673806148L145.33723615644627,87.76756309730574L145.40818633709821,87.97748891285227L145.5043899718805,88.10344440218022L145.59458087948886,88.17901769577698L145.69439215057548,88.22436167193501L145.78939323992293,88.25156805762987L145.91085032883555,88.26789188904675L146.0262946905743,88.27768618789689L146.10806778013924,88.28356276720697L146.61794704448525,88.56435040115508L146.64199795318083,88.73282298152394L147.07972449144017,89.11135155411989L147.32263866926542,89.33846869767747L147.36112012317832,89.474738983812L147.42605757665635,89.55650115549274L147.5342866657864,89.60555845850118L147.76878302556818,89.63499284030624L147.8060619340463,89.65265346938926L147.87220193295914,89.94084505235172L147.91429102317636,90.11376000212918L147.92631647752415,90.21750897199564L148.16081283730594,90.27975835391553L148.4686644686092,90.31710798306747L148.534804467522,90.33951776055864L149.05189900447672,90.63068365844686L149.44753645251882,90.8053831971798L149.51728408773596,90.91020292041954L149.96222589860395,91.25090450435883L150.10412625990782,91.4553254547224L150.17627898599451,91.57797802494055L150.19311462208142,91.65156956707143L150.21115280360308,91.69572449234995L150.2267858942552,91.72221744751708L150.43001607273274,92.01598343314886L150.8400840659922,92.19224302452793L151.0517320625132,92.29799877935537L151.16236624251277,92.36145223225184L151.24894951381683,92.67742572299144L151.26578514990373,92.86700981743522L151.77325932338022,92.98076027410147L151.84180441316258,93.04901054810122L151.9897175016403,93.08996071250107L152.20136549816132,93.3924322301427L152.32162004163914,93.57391514072769L152.84713239663733,93.68280488707869L153.64201492902583,94.02600894742078L153.72980074576463,94.23193138362603L154.46575855184904,94.63329459534462L154.63050727641365,95.15183060336491L155.41937708162828,95.46295220817709L155.42057962706306,95.6496251710644L155.4903272622802,96.03922610471378L155.73083634923586,96.27298666490341L156.11685343379972,96.41324300101718L156.40666688358132,96.77483987665572L156.56059269923298,96.99179800203882L156.60027669858067,97.12197287726869L156.83357051292768,97.20007780240662L157.03559814597043,97.24694075748937L157.07888978162245,97.27505853053901L157.10173814488323,97.29192919436882L157.21718250662195,97.57931327902872L157.7667457703157,97.75174372982468L157.8160501331416,97.85520200030224L157.92187413140212,97.91727696258879L158.1888392179229,98.23157103224433L158.37282866944398,98.42014747403765L158.6337810287909,98.53329333911365L159.30119374509292,98.87798419948982L159.53448755943992,99.08479871571552L159.5813868313963,99.20888742545092L159.82069337291716,99.55987288641263L160.3257624555241,99.77046416298967L160.64684208660992,100.17304495056723L160.82962899269626,100.41459342311376L161.11703735160827,100.55952250664168L161.49223152725915,100.9223724592392L161.69305661486712,101.14008243079772L162.12717551682212,101.27070841373283L162.45907805682097,101.62461178035389L162.52281296486422,101.83695380032651L162.9521216850801,101.96435901231008L162.96655223029745,102.04080213950023L163.2635809526877,102.36179986058328L163.39946858681765,102.55439849323311L163.59307840181697,102.66995767282299L163.70130749094704,102.73929318057694L164.09093221181524,103.0556011418414L164.35549220746648,103.24538591860006L164.40118893398804,103.35925678465526L164.4877722052921,103.4275793042884L164.53467147724845,103.46857281606826L164.76796529159546,103.49316892313618L164.78480092768237,103.78217879976633L164.8052442000736,103.95558472574442L164.93511910702964,104.05962828133127L165.51234091572326,104.12205441468339L165.74082454833118,104.43327665639113L165.88031981876546,104.62001000141575L166.1448798144167,104.73205000843053L166.17975363202527,104.7992740126394L166.7341270774581,105.11286007010241L167.04318125419616,105.30101170458022L167.07805507180473,105.4139026852669L167.1514103433262,105.48163727367891L167.51698415549887,105.79498551883923L167.71901178854162,105.9829944659354L168.3311074148438,106.36793000660697L169.78979502723,106.87041687806308L169.7909975726648,107.17190900093676L169.95815138809897,107.62369594028763L169.99422775114235,107.89476810389816L170.04353211396824,108.05741140206447L170.5630317417925,108.15499738096426L170.6135386500532,108.21354896830412L171.0079735526605,108.51890649843799L171.5094349989631,108.70212101651829L171.52386554418044,108.81204972736647L171.65013281483215,109.14753918764272L172.04577026287427,109.34883286380848L172.69634734308937,109.73841770324685L172.72520843352405,109.97216860690988L172.76489243287173,110.1124191491077L173.2904047878699,110.46462525207104L173.36977278656525,110.67594891384906L173.40344405873907,110.80274311091586L173.80629677938984,110.87881962915594L174.08047713851929,110.92446554009999L174.0973127746062,110.95185308666642L174.15022477373643,111.23555732968646L174.42079749656156,111.40577987549847L174.71782621895184,111.50791340298568L176.1055636506861,112.10127358889468L176.39778219133723,112.4572897004401L176.6960134591623,112.93564920957218L176.75974836720553,113.22266491505141L176.8908258195964,113.39487433833898L177.05076436242192,113.4981999923115L177.27203272242113,113.56019538469502L177.42595853807276,113.59739262012513L177.5402003543767,113.88356166716457L177.7181770787239,114.05526309538824L177.7566585326368,114.15828395232245L177.83001380415828,114.22009646648296L177.8516596219843,114.25718397497927L178.11140943589643,114.27943648007705L178.34229815937388,114.29278798313572L178.46736288459084,114.56371924785863L179.00129305763244,114.72627800669237L179.35484141545732,115.08577792672955L179.56167923023915,115.30147787875188L179.66750322849967,115.43089784996528L179.68193377371702,115.50854983269329L179.69155413719523,115.5551410223301L179.7829475902384,115.5830957361122L179.83465704393387,115.59986856438147L180.29162430914965,115.87091197186336L180.46719594262728,116.03353801635252L181.22720465740724,116.39107914328396L181.49537228936282,116.60560381944282L182.17481046001262,116.99323870862341L182.18803845979517,117.22581964213178L182.4020915471857,117.3653682022368L182.46702900066376,117.4490973382998L182.6377904524023,117.75718608181758L183.59982680022497,118.19879056173265L183.88843770457183,118.4637532496817L184.23717588065753,118.62273086245112L184.37186096935272,118.9737393797758L184.6243955106562,119.18434449017062L184.71097878196025,119.3107075564075L185.02364059500263,119.38652539614961L185.200414773915,119.68648341025946L185.64415403934828,119.86645821872537L185.65978713000035,119.9744431038049L185.76200349195653,120.03923403485264L186.24662930217224,120.33139200828155L186.37409911825873,120.5066867923389L187.13410783303868,120.86393587644784L187.4431620097767,121.0782853269132L187.84841982129706,121.45772772887759L187.9338005471663,121.6853931700562L188.02759909107903,121.82199243476337L188.4064009030342,121.90395199358768L188.4124136302081,121.95312772888227L188.43045181172977,121.98263317005902L188.82729180520664,122.24990335400157L188.86577325911955,122.41026546436711L189.1026747097709,122.50648273058643L189.37926015976993,122.81248494104005L189.47907143085655,122.99608626731222L189.50191979411733,123.10624706307553L189.6257819738995,123.17234354053352L189.96129215020267,123.21200142700829L190.53610886802673,123.48274758584367L190.56978014020052,123.64519528114488L190.67319904759148,123.74266389832562L191.13136885824204,124.04674779094935L191.15782485780716,124.22919812652358L191.51498085193634,124.33866832786813L191.6893499399792,124.40435044867488L191.744667029979,124.44375972115891L192.37720592867245,124.71163297187019L192.42530774606357,124.87235692229696L192.4349281095418,124.96879129255304L192.46138410910692,125.02665191470666L192.4734095634547,125.06136828799885L192.56480301649788,125.08219811197417L192.60568956128034,125.09469600635934L192.71031101410605,125.10219474299046L192.74758992258418,125.10669398496913L193.3091786406257,125.35221887662131L193.59658699953772,125.49953381161261L193.8767800858411,125.82932042305941L194.63558625518627,126.26713406350292L194.6788778908383,126.52982224776903L194.79552479801177,126.6874351583287L195.04805933931524,126.7820029046645L195.04926188475002,126.83874355246598L195.40882296974877,127.11124828258863L195.71547205561723,127.27475112066223L195.88503096192102,127.37285282350638L196.23857931974584,127.66866749926393L196.42617640757126,127.84615630471846L196.59814040474458,127.95264958799119L196.70155931213552,128.01654555795483L196.93725821735208,128.054883139933L196.96732185322153,128.0778856891199L197.1188425780036,128.32710590442875L197.2030207584381,128.47663803361405L197.48922657191537,128.56635731112522L197.5601767525673,128.62018887763193L197.70327965930593,128.65248781753596L197.85239529321842,128.90572749416805L199.16918254430078,129.28994593406847L199.27500654256127,129.52047699800872L199.32190581451763,129.65879563637287L199.37121017734353,129.74178681939136L199.9977363488631,130.0222461043003L200.1023578016888,130.19052167524566L200.45951379581797,130.5205161788303L201.2652192371195,130.94588029745884L201.4155374164668,131.20109876863597L202.2549141299421,131.57991211842767L202.3739661279852,131.80720012830267L202.53751230711504,131.9435729342277L202.684222850158,132.0253966177827L202.75397048537513,132.07449082791572L202.83694612037485,132.10394735399552L202.84175630211396,132.12162126964338L202.96321339102658,132.35619738146815L203.06663229841752,132.496943048563L203.76170355971942,132.58139044881992L203.8975911938494,132.85429479150363L204.05151700950103,133.01803739711386L204.0695551910227,133.11628296048L204.29563373276105,133.17523029849968L204.35696354993473,133.21059870131148L204.43993918493445,133.2318197429986L204.44474936667356,133.24455236801083L205.07849081080175,133.47266955599082L205.10133917406256,133.60953986877882L205.19754280884484,133.69166205645163L205.34425335188777,133.7409353690553L205.4705206225395,133.7704993566175L205.68577625536486,134.00693074211128L205.70261189145174,134.14878957340756L205.74590352710376,134.2339048721853L205.79520788992969,134.28497405145197L205.90824716079885,134.31561555901195L205.967171887103,134.33400046354797L206.0838187942765,134.34503140626956L206.1836300653631,134.3516499719025L206.28825151818882,134.3556211112823L206.30989733601484,134.35800379491013L206.4722409697099,134.57631837317444L207.46674604427164,134.92236163370129L207.75896458492278,135.1299875900174L208.70897547839772,135.46776186759894L208.78954602252787,135.67042643414783L208.86290129404935,135.7920251740772L209.29581765056955,136.07630488239977L209.86943182295886,136.45629250268098L210.04139582013215,136.6842850748497L210.67273217339084,137.02857438910414L210.76653071730354,137.2351479776568L211.14773762012828,137.3590921307884L211.31128379925815,137.43345862266736L211.3293219807798,137.47807851779476L212.0195830603426,137.7103977222439L212.11939433142922,137.84978924491338L212.4320561444716,138.13700151745462L212.64129905012305,138.3093288809794L212.72908486686188,138.41272529909423L212.9046565003395,138.47476314996314L212.92750486360032,138.5119858604845L213.00687286229567,138.5343194867973L213.200482677295,138.74930468344087L213.30991431185984,138.87829580142704L213.3676364927292,138.95569047221875L213.59972776164142,139.00212727469375L213.8234012125102,139.02998935617876L213.96530157381406,139.24627783339375L214.0182135729443,139.37605091972273L214.047074663379,139.45391477152015L214.10239175337878,139.50063308259857L214.8924641040282,139.7261990753872L215.08006119185362,139.8615386710604L215.2363920983748,139.9427424284643L215.42759682250457,139.99146468290667L215.74627136272082,140.21617438988073L215.88336154228557,140.3510002140652L216.19241571902361,140.4318957085759L216.70109243793488,140.67383071611312L216.76121970967378,140.81899172063544L216.96805752445567,140.90608832334885L217.01255170554248,140.9583462849769L217.30958042793276,140.98970106195372L217.60540660488823,141.1998110534434L217.8519284190178,141.3258770483372L217.8855996911916,141.40151664527346L218.09845023314736,141.44690040343522L218.8031418579275,141.66330623126143L218.83080040292742,141.79314972795714L219.03403058140495,141.87105582597457L219.03523312683973,141.91779948478504L219.11099348923076,142.1328792213799L219.2096022148826,142.26192706333686L219.36473057596902,142.339355768511L219.43327566575135,142.3858129916155L219.56435311814224,142.4136873254782L219.64973384401148,142.43041192579582L219.81207747770657,142.4404466859864L220.21974038009645,142.63133857254275L220.4217680131392,142.74587370447654L221.21544800009292,142.99728282396612L221.356145815962,143.1481282956599L222.01634325965534,143.41912014964663L222.2532447103067,143.5817152620387L222.30134652769783,143.67927232947395L222.44925961617557,143.91606865510403L223.02768397030397,144.05814645048207L223.18882505856428,144.1433931277089L223.4329417818243,144.37056074176735L223.6698432324756,144.50686131020242L224.03180940834395,144.58864165126346L224.0594679533438,144.63770985590008L224.27592613160394,144.84090889251507L224.29035667682126,144.96282831448406L224.71966539703715,145.03597996766547L224.81226139551512,145.0798709595743L225.05517557334034,145.2776831582204L225.1573919352965,145.3963704774081L225.2908744785569,145.46758286892072L225.3522042957306,145.51031030382828L225.65043556355565,145.5359467647728L226.12303591942356,145.7205062304643L226.29499991659682,145.83124190987922L226.54633191246552,145.89768331752816L226.7387391820301,146.10440818322675L226.94437445137717,146.2284431026459L227.11994608485483,146.3028640542974L227.1331740846374,146.34751662528828L227.2883024457238,146.37430816788282L227.31235335441937,146.39038309343954L227.66950934854853,146.56455148542446L227.94729734398234,146.6690525206154L228.26116170245953,146.73175314172997L228.33090933767667,146.7693735143987L228.43913842680672,146.95411454895185L228.5966718787627,147.06495916968376L228.70971114963186,147.1314659421229L229.0788925981088,147.17137000558637L229.94111767484492,147.3551090752779L230.4317562122345,147.62275990332944L230.47865548419085,147.78335040016034L230.49068093853865,147.8797046982589L231.16651147288408,148.09251737673716L231.3889823783181,148.22020498382412L232.0575976400549,148.44939378264064L232.20310563766304,148.58690706193056L232.3005118178801,148.6694150295045L232.3185499994018,148.71891981004887L232.44601981548828,148.74862267837548L232.65646526657451,148.91657970284263L232.75988417396547,149.0173539175229L232.98716526113856,149.0778184463311L233.79166815700532,149.26177544515778L234.07186124330866,149.3721496444538L234.4025612378727,149.58357933280757L234.6286397796111,149.71043714581984L234.70079250569776,149.78655183362721L234.82465468547994,149.8322206463116L234.95092195613168,149.85962193392228L235.15896231634835,150.01877818406194L235.79631139678088,150.11427193414573L236.0223899385192,150.31177885493236L236.03922557460612,150.4302830074043L236.05726375612778,150.5013854988875L236.14144193656227,150.5440469937774L236.39998920503965,150.56964389071135L237.00366701329838,150.72269253333656L237.70595354720896,150.949676941471L237.7251942741654,151.0858675863517L237.83582845416504,151.1675819732801L237.9873491789471,151.21661060543715L238.33488480959807,151.24602778473138L238.89887861850912,151.3962829173277L238.9060938911178,151.48643599688552L238.94698043590026,151.5405278446202L239.10331134242145,151.572982953261L239.16343861416036,151.5924560184455L239.50736660850697,151.73417965700352L239.54224042611554,151.81921384013836L239.85730733002748,151.87023435001925L239.91623205633164,151.9008466559478L240.1242724165483,151.9192140395049L240.29864150459116,152.05769559068338L240.46820041089492,152.14078452139046L240.88788876763257,152.1906378798147L240.92396513067592,152.22054989486924L241.2077658532836,152.3633651623106L241.23542439828353,152.44905432277542L241.7705571167599,152.5004678190543L241.77536729849902,152.53131591682165L241.84150729741182,152.54982477548205L242.0327120215416,152.68319118982012L242.06878838458496,152.76321103842295L242.19385310980192,152.81122294758467L242.26841092675815,152.84003009308168L242.35258910719264,152.8573143803799L242.47645128697482,152.86768495275882L243.01879927805987,152.9935485146321L243.5178556334929,153.0690666517561L243.9183032632741,153.23138546275032L243.98324071675214,153.32877674934684L244.04938071566494,153.38721152130478L244.05539344283883,153.42227238447953L244.3860934374029,153.4433089023844L244.44261307283747,153.4559308131273L244.44501816370706,153.46350395957305L244.70116034131485,153.58240980880575L244.83584543001,153.65375331834537L245.09078506218304,153.69655942406914L245.22426760544343,153.7222430875034L245.23629305979122,153.73765328556397L245.49844796457293,153.85860272078241L246.21516504370084,154.04020486328503L246.22719049804863,154.1491661487866L246.3113686784831,154.21454292008755L246.59156176478646,154.2537689828681L247.26137957195803,154.38365432067056L247.7303722915216,154.46158552335203L248.0033501052163,154.61199921763068L248.01898319586843,154.70224743419786L248.27151773717188,154.75639636413817L248.37012646282372,154.78888572210235L248.55171082347522,154.80837933688088L248.585382095649,154.82007550574798L248.8367140915177,154.92804272504952L248.96779154390853,154.99282305663047L249.03513408825614,155.03169125557903L249.09526135999508,155.05501217494816L249.10848935977762,155.06900472656963L249.64843225999311,155.17563261840903L249.73742062216672,155.23960935351263L250.0609053441221,155.27799539457482L250.1162224341219,155.3010270192121L250.21362861433897,155.31484599399448L250.58160751738114,155.418642099192L251.60978386411665,155.57368635867658L251.63503731824702,155.66671291436734L251.64345513629047,155.72252884778177L251.67111368129036,155.75601840783045L251.7192154986815,155.77611214385965L252.02706712998477,155.78816838547718L252.2026387634624,155.88542036322872L252.45036312302676,155.94377154987967L252.4539707593311,155.9787822618702L252.80150638998205,155.99978868906456L252.94100166041633,156.01239254538115L253.0660663856333,156.1072148544449L253.50138783302307,156.16410823988315" fill="none"></path></g></g></g></g><g opacity="0.2"><g><g><g><path style="fill: none;" stroke="rgb(255, 112, 67)" stroke-width="2px" d="M24.101415603828432,26.806157196843287L24.251733783175727,26.806157196843287L24.326291600131988,26.806157196843287L24.620915231652692,26.806157196843287L24.695473048608953,26.806157196843287L24.747182502304423,26.806157196843287L24.755600320347874,26.806157196843287L24.828955591869356,26.806157196843287L24.909526135999506,26.80979470102932L25.022565406868676,26.80979470102932L25.270289766433024,26.80979470102932L25.653901760127326,26.80979470102932L25.716434122735805,26.80979470102932L25.7777639399095,26.820707213587298L26.136122479473464,26.820707213587298L26.139730115777795,26.820707213587298L26.30808647664677,26.820707213587298L26.825181013601476,26.83889473451731L26.9237897392533,26.83889473451731L27.03923410099203,26.83889473451731L27.040436646426805,26.83889473451731L27.27974318794771,26.83889473451731L27.93513044990193,26.864347511797376L27.95437117685838,26.864347511797376L28.025321357510308,26.864347511797376L28.40171807859594,26.897075297449447L28.4041231694655,26.897075297449447L28.464250441204417,26.897075297449447L28.80817843555104,26.897075297449447L29.24229733750603,26.93706833945157L29.342108608592643,26.93706833945157L29.452742788592253,26.93706833945157L29.473186060983483,26.93706833945157L30.0287620518511,26.984326637803747L30.224776957719975,26.984326637803747L30.478514044458215,26.984326637803747L30.933076218804448,27.038840440484023L31.15434457880367,27.038840440484023L31.254155849890275,27.038840440484023L31.506690391193736,27.038840440484023L32.10676056314815,27.100599995470475L32.121191108365494,27.100599995470475L32.2931551055388,27.100599995470475L32.42784019423398,27.100599995470475L32.6551212814071,27.16959555074115L33.021897639014504,27.16959555074115L33.02550527531884,27.16959555074115L33.4283579959696,27.245836858317972L33.47044708618684,27.245836858317972L33.75064017249021,27.245836858317972L33.887730352054945,27.245836858317972L33.93703471488086,27.245836858317972L34.270139800314475,27.329304414157093L34.28216525466225,27.329304414157093L34.727107065530255,27.329304414157093L34.795652155312624,27.329304414157093L35.1864794216156,27.419988466236504L35.436608872049504,27.419988466236504L35.54002777944045,27.419988466236504L35.71319432204853,27.419988466236504L36.556178671828185,27.517879262534336L36.652382306610455,27.517879262534336L36.70409176030592,27.517879262534336L37.16466666182605,27.622976803050506L37.23802193334753,27.622976803050506L37.302959386825556,27.622976803050506L37.91866264943209,27.73525183171924L37.95954919421456,27.73525183171924L38.102652100953186,27.73525183171924L38.44417500443025,27.73525183171924L38.45018773160414,27.73525183171924L38.678671364212036,27.85470434854051L38.83019208899412,27.85470434854051L39.53608625920903,27.981314849470408L39.72488589246923,27.981314849470408L39.75735461920825,27.981314849470408L40.40191897224946,28.11506383046509L40.42957751724937,28.11506383046509L41.24009314029,28.25596104354642L41.68984513289712,28.25596104354642L41.82332767615752,28.25596104354642L41.936366947026684,28.40395772860478L42.65789420789372,28.40395772860478L43.00783492941423,28.559063637662007L43.43113092245623,28.559063637662007L44.322217089627,28.72125926667428L44.573549085495685,28.890515359575744L44.61082799397382,28.890515359575744L44.87538798962507,28.890515359575744L44.90184398919019,28.890515359575744L45.147163257884976,28.890515359575744L45.16399889397188,28.890515359575744L46.239074512663755,29.25014067289254L47.10250213483464,29.440480637242075L47.53782358222441,29.440480637242075L47.66890103461526,29.440480637242075L47.778332669180095,29.440480637242075L48.09580466396158,29.637803049305234L48.165552299178735,29.637803049305234L48.17637520809174,29.637803049305234L48.3952384772214,29.637803049305234L48.404858840699625,29.637803049305234L48.490239566568896,29.637803049305234L48.63093738243797,29.637803049305234L48.74998938048103,29.842088405038083L48.79688865243738,29.842088405038083L49.038600284827844,29.842088405038083L49.042207921132174,29.842088405038083L49.129993737871,29.842088405038083L49.40056646069613,29.842088405038083L49.47752936852195,29.842088405038083L49.58335336678245,30.053317200396776L49.68797481960817,30.053317200396776L50.324121354605936,30.053317200396776L50.80153189221295,30.271469931337407L50.90374825416912,30.271469931337407L50.937419526342914,30.271469931337407L51.875404965470054,30.496517341794117L51.88743041981784,30.496517341794117L51.94034241894809,30.496517341794117L52.05338168981726,30.728430175701106L52.14357259742563,30.728430175701106L52.222940596121006,30.728430175701106L52.358828230250964,30.728430175701106L52.515159136772155,30.728430175701106L52.52838713655472,30.728430175701106L52.552438045250284,30.728430175701106L53.088773309161446,30.967198681036365L53.25111694285653,30.967198681036365L53.253522033726085,30.967198681036365L53.29921876024767,30.967198681036365L53.6587798452464,30.967198681036365L53.78624966133291,31.212774097690215L54.035176566332034,31.212774097690215L54.41878856002634,31.212774097690215L54.58473983002576,31.465146673640703L55.09101145806746,31.465146673640703L55.1331005482847,31.465146673640703L55.222088910458304,31.465146673640703L55.68146126654365,31.724287152821972L56.27551871132417,31.99015652714627L56.27672125675895,31.99015652714627L56.70482743154005,31.99015652714627L57.126920879147264,32.26274504459161L57.244770331755554,32.26274504459161L57.28685942197279,32.26274504459161L57.51173541827635,32.26274504459161L57.62116705284119,32.26274504459161L58.2488957697955,32.542003945048265L58.37516304044724,32.542003945048265L58.888649941097604,32.82790397245043L58.919916122401844,32.82790397245043L58.99928412109722,32.82790397245043L59.16643793653141,32.82790397245043L59.240995753487674,32.82790397245043L59.491125203921584,32.82790397245043L59.65948156479055,33.12042562275417L59.92163646957224,33.12042562275417L60.13328446609324,33.12042562275417L60.164550647397476,33.12042562275417L60.336514644570784,33.12042562275417L60.52050409609188,33.41952988787173L60.692468093265184,33.41952988787173L60.86322954500372,33.41952988787173L60.976268815872885,33.41952988787173L60.99310445195979,33.41952988787173L61.818050620217754,33.725177759715336L61.86254480130455,33.725177759715336L62.388057156302715,34.03734973424102L62.455399700650304,34.03734973424102L62.781289513475244,34.03734973424102L63.05546987260472,34.35600680336108L63.184142234126,34.35600680336108L63.32243495912552,34.35600680336108L63.44870222977725,34.35600680336108L63.607438227168,34.35600680336108L63.617058590646224,34.35600680336108L63.77579458803697,34.35600680336108L63.9525687669494,34.681100206965766L64.1858625812964,34.681100206965766L64.2195338534702,34.681100206965766L64.62118402868617,34.681100206965766L64.63561457390352,34.681100206965766L64.67890620955554,34.681100206965766L64.74384366303357,34.681100206965766L64.78833784412038,35.01262019303309L64.83283202520718,35.01262019303309L64.98074511368492,35.01262019303309L65.37277492542266,35.01262019303309L65.56878983129154,35.01262019303309L65.65777819346515,35.35049849740949L66.54044654259249,35.694725368072966L66.56569999672283,35.694725368072966L66.72082835780924,35.694725368072966L67.06716144302541,35.694725368072966L67.28602471215508,35.694725368072966L67.38703852867647,36.04525204491381L68.09894542606527,36.04525204491381L68.13502178910862,36.04525204491381L68.2648966960647,36.40204927186619L68.3647079671513,36.40204927186619L68.7880039601933,36.40204927186619L69.13313449997469,36.76505853679839L69.46383449453874,36.76505853679839L69.59851958323392,36.76505853679839L70.29479338997061,37.134250583644615L70.61346793018689,37.134250583644615L70.75777338236028,37.509596156339L70.92733228866403,37.509596156339L71.30613410061923,37.509596156339L71.79436754713926,37.89103674274992L72.04329445213838,37.89103674274992L72.17677699539877,37.89103674274992L72.5086795353976,38.2785333347895L72.75399880409242,38.2785333347895L72.95001370996128,38.2785333347895L72.9548238917004,38.2785333347895L73.01855879974366,38.2785333347895L73.10634461648247,38.2785333347895L73.40337333887274,38.672046924369994L73.68116133430654,38.672046924369994L73.76533951474103,38.672046924369994L74.00344351082715,38.672046924369994L74.71895804452029,39.071538503403644L75.09896240191027,39.47696906380264L75.12060821973627,39.47696906380264L75.37314276103973,39.47696906380264L76.38328092625358,39.888270341413346L76.52878892386177,39.888270341413346L76.6153721951658,40.30542283219188L76.64784092190483,40.30542283219188L76.65265110364393,40.30542283219188L76.72841146603497,40.30542283219188L76.9544900077733,40.30542283219188L77.05069364255559,40.30542283219188L77.20341691277244,40.30542283219188L77.21183473081588,40.30542283219188L77.26474672994613,40.30542283219188L77.3284816379894,40.30542283219188L77.94418490059593,40.728368024006585L78.12216162494313,40.728368024006585L78.6128001623327,41.1570571567477L78.77514379602779,41.1570571567477L78.95672815667933,41.1570571567477L79.75040814363307,41.59146097434939L79.7696488705895,41.59146097434939L79.86464995993701,41.59146097434939L80.93251030602022,42.477159111563935L81.33776811754052,42.477159111563935L81.41833866167069,42.477159111563935L81.46523793362704,42.477159111563935L81.63118920362646,42.477159111563935L81.70935465688706,42.92837541500117L81.73701320188697,42.92837541500117L81.86448301797346,42.92837541500117L81.99075028862521,42.92837541500117L82.046067378625,42.92837541500117L82.40081828188464,42.92837541500117L83.30272735796841,43.385091858816224L83.39772844731591,43.8472694349212L83.54924917209799,43.8472694349212L84.18539570709575,43.8472694349212L84.24552297883467,44.3148496311845L84.37660043122553,44.3148496311845L84.41267679426886,44.3148496311845L85.16306514557058,44.78779343951834L85.35547241513513,44.78779343951834L85.54186695752577,44.78779343951834L85.65370368296016,44.78779343951834L86.34035712621862,45.26603259576902L86.58447384947864,45.26603259576902L86.93441457099915,45.749528091848816L87.00776984252063,45.749528091848816L87.19656947578083,45.749528091848816L87.40340729056271,45.749528091848816L87.67277746795307,46.23822141562604L87.71246146730077,46.23822141562604L87.89645091882186,46.23822141562604L87.91448910034353,46.23822141562604L88.34860800229853,46.23822141562604L88.63481381577579,46.732054054969L88.64323163381924,46.732054054969L88.64804181555834,46.732054054969L88.82241090360121,46.732054054969L88.87532290273147,46.732054054969L89.13627526207837,46.732054054969L89.8193210690325,47.23098700178993L89.95881633946678,47.23098700178993L90.11514724598798,47.23098700178993L90.169261790553,47.23098700178993L90.55046869337775,47.73495199193519L90.8438897794637,47.73495199193519L90.85351014294191,47.73495199193519L91.04832250337601,48.2438905132731L91.11205741141926,48.2438905132731L91.79871085467772,48.2438905132731L92.00314357859004,48.75776355771589L92.01997921467695,48.75776355771589L92.12460066750266,48.75776355771589L92.339856300328,48.75776355771589L92.37954029967568,48.75776355771589L92.9627748355432,49.276493109087966L93.17803046836853,49.276493109087966L94.32766390401667,49.80004015930156L94.46715917445096,50.328346196225L94.66317408031985,50.328346196225L94.69564280705886,50.328346196225L94.7160860794501,50.328346196225L95.31856134227407,50.86134295570464L95.37508097770865,50.86134295570464L95.52058897531683,50.86134295570464L95.77071842575073,50.86134295570464L95.8067947887941,50.86134295570464L96.41889041509629,51.39898167763077L96.42610568770495,51.39898167763077L96.45256168727009,51.39898167763077L96.56079077640013,51.39898167763077L96.77484386379068,51.39898167763077L97.6527020311789,51.941194097849746L97.73808275704818,51.941194097849746L97.93289511748227,52.487921704229905L98.22391111269863,52.487921704229905L98.77587946726193,53.0391157366615L98.87208310204419,53.0391157366615L99.22923909617337,53.0391157366615L99.2665180046515,53.0391157366615L99.65975036182402,53.59470793099091L99.8401321770408,53.59470793099091L100.07583108225735,53.59470793099091L100.42817689464744,54.15463977508648L100.6181790733424,54.15463977508648L100.85147288768943,54.15463977508648L101.28438924420963,54.71884300479455L101.64034269290404,54.71884300479455L101.83996523507726,54.71884300479455L102.08287941290249,55.28725910798347L102.51098558768359,55.28725910798347L102.56750522311818,55.28725910798347L102.93909176246468,55.859829572521534L102.9895986707254,55.859829572521534L103.47783211724541,55.859829572521534L103.77726593050524,56.4364958862771L104.36531064811186,56.4364958862771L104.59259173528498,57.01718003307455L104.64670627985001,57.01718003307455L105.15057281702215,57.01718003307455L106.14026770984475,57.6018332528042L106.16191352767076,57.6018332528042L106.27856043484428,57.6018332528042L106.33989025201797,58.19037752929046L106.5335000670173,58.19037752929046L107.23217896462354,58.78276410242357L107.24901460071044,58.78276410242357L107.5737018681006,58.78276410242357L107.8911738628821,58.78276410242357L107.98617495222959,59.37891495602801L108.12687276809865,59.37891495602801L108.78466512092244,59.37891495602801L108.92656548222628,59.97877157797207L109.01795893526943,59.97877157797207L109.32941820287705,59.97877157797207L109.4268243830941,59.97877157797207L109.94632401091835,60.58226570410213L110.09784473570043,60.58226570410213L110.12911091700468,60.58226570410213L110.26860618743896,60.58226570410213L110.52114072874242,60.58226570410213L110.58247054591612,61.18932907026458L110.60892654548125,61.18932907026458L110.64861054482893,61.18932907026458L110.6786741806984,61.18932907026458L110.99133599374078,61.18932907026458L110.99374108461033,61.18932907026458L111.11640071895773,61.18932907026458L111.12000835526206,61.18932907026458L111.30520035221794,61.18932907026458L111.50362034895636,61.799893412305764L111.68400216417314,61.799893412305764L111.84754834330299,61.799893412305764L112.05198106721531,61.799893412305764L112.2191348826495,61.799893412305764L112.79154650960402,62.413900218094014L112.8480661450386,62.413900218094014L112.92021887112531,62.413900218094014L112.94787741612521,62.413900218094014L113.26414686547193,63.031281223475716L114.1227643059037,63.65195841227532L114.44745157329386,63.65195841227532L114.80581011285781,64.2758732723611L114.82745593068383,64.2758732723611L114.9236595654661,64.2758732723611L115.35777846742108,64.2758732723611L115.70651664350683,64.90295753957946L115.96265882111462,64.90295753957946L116.02398863828833,64.90295753957946L116.1971551808964,64.90295753957946L116.253674816331,64.90295753957946L116.39437263220006,64.90295753957946L116.53386790263437,65.53314294977677L116.54228572067781,65.53314294977677L116.88501116958966,65.53314294977677L117.28425625393608,65.53314294977677L117.73040061023885,66.16635148677746L118.011796241977,66.16635148677746L118.09958205871582,66.16635148677746L118.78142532023516,66.80251488642791L118.8631984098001,66.80251488642791L118.95579440827802,66.80251488642791L118.97263004436492,66.80251488642791L119.01952931632128,67.44157463659643L119.0580107702342,67.44157463659643L119.55466203479767,67.44157463659643L119.769917667623,67.44157463659643L120.22447984196923,68.08345272110746L120.29182238631681,68.08345272110746L120.29663256805594,68.08345272110746L120.37479802131654,68.08345272110746L120.45296347457713,68.08345272110746L120.72353619740227,68.72808087580738L120.74277692435871,68.72808087580738L120.9159434669668,68.72808087580738L120.94720964827104,68.72808087580738L120.99170382935783,68.72808087580738L121.45227873087796,68.72808087580738L121.47512709413876,68.72808087580738L121.59778672848616,69.3753810845206L121.91525872326764,69.3753810845206L122.0511463573976,69.3753810845206L122.09323544761484,69.3753810845206L122.6019121665261,70.02529483511543L123.54470778739235,70.6777343593944L123.58559433217482,70.6777343593944L123.68059542152231,70.6777343593944L124.18325941325968,71.33265089724775L124.77851940347497,71.33265089724775L124.9721292184743,71.98995668047795L125.30162666760357,71.98995668047795L125.55656629977659,71.98995668047795L125.78745502325404,72.6495834449314L125.88967138521022,72.6495834449314L126.04840738260096,72.6495834449314L126.2913215604262,72.6495834449314L126.3742971954259,72.6495834449314L126.47050083020817,72.6495834449314L126.87816373259804,73.31145317443251L126.91544264107617,73.31145317443251L126.95512664042387,73.31145317443251L127.0922168199886,73.31145317443251L127.16797718237963,73.31145317443251L127.48665172259591,73.97550735684962L128.40780152563616,74.6416582239852L128.5100178875923,74.6416582239852L128.68198188476563,74.6416582239852L129.1449618771553,74.6416582239852L129.21350696693767,75.30983751168563L129.4732567808498,75.30983751168563L129.66927168671867,75.30983751168563L130.03965568063043,75.97997695579728L130.68542257910642,75.97997695579728L130.85498148541018,75.97997695579728L131.3925192947561,76.65199854014458L131.49473565671227,76.65199854014458L131.51397638366873,76.65199854014458L131.97334873975407,77.32582424855197L131.9937920121453,77.32582424855197L132.24752909888355,77.32582424855197L132.3220869158398,77.32582424855197L132.56500109366505,77.32582424855197L132.82114327127283,78.00139556888774L133.5955825312701,78.67862473295443L133.84330689083444,78.67862473295443L134.23293161170264,78.67862473295443L134.25698252039822,78.67862473295443L134.26059015670256,78.67862473295443L134.36280651865872,79.35743372457641L134.36641415496305,79.35743372457641L134.82939414735276,79.35743372457641L135.5617443171328,80.03776403162205L135.6326944977847,80.03776403162205L136.03915485473982,80.71952788589377L136.15580176191332,80.71952788589377L136.45403302973833,80.71952788589377L136.97112756669304,81.40265702323802L137.73474391777734,82.08707342747917L138.03297518560234,82.08707342747917L138.16164754712366,82.08707342747917L138.36127008929685,82.08707342747917L138.5139933595137,82.77270395845264L138.67874208407835,82.77270395845264L138.74608462842596,82.77270395845264L138.78456608233887,82.77270395845264L138.8699468082081,82.77270395845264L139.32691407342392,82.77270395845264L139.43394061711916,83.45947059998288L139.4615991621191,83.45947059998288L139.85723661016118,83.45947059998288L140.13863224189933,83.45947059998288L140.21679769515993,84.14730508791625L140.8854129568967,84.14730508791625L140.96959113733118,84.14730508791625L141.19807476993907,84.8361245300662L141.4145329481992,84.8361245300662L141.65504203515485,84.8361245300662L141.75124566993713,84.8361245300662L141.88352566776277,84.8361245300662L142.15530093602268,85.52585091025716L142.38618965950013,85.52585091025716L142.4703678399346,85.52585091025716L142.52929256623875,85.52585091025716L143.16904673754084,86.21642084034649L143.7113947286259,86.90774655213666L143.8388645447124,86.90774655213666L143.84126963558197,86.90774655213666L144.16595690297214,86.90774655213666L144.98609288949098,87.59975978147405L145.0137514344909,87.59975978147405L145.208563794925,87.59975978147405L145.33723615644627,88.29237763617212L145.40818633709821,88.29237763617212L145.5043899718805,88.29237763617212L145.59458087948886,88.29237763617212L145.69439215057548,88.29237763617212L145.78939323992293,88.29237763617212L145.91085032883555,88.29237763617212L146.0262946905743,88.29237763617212L146.10806778013924,88.29237763617212L146.61794704448525,88.98553185207723L146.64199795318083,88.98553185207723L147.07972449144017,89.67914441301383L147.32263866926542,89.67914441301383L147.36112012317832,89.67914441301383L147.42605757665635,89.67914441301383L147.5342866657864,89.67914441301383L147.76878302556818,89.67914441301383L147.8060619340463,89.67914441301383L147.87220193295914,90.37313242679537L147.91429102317636,90.37313242679537L147.92631647752415,90.37313242679537L148.16081283730594,90.37313242679537L148.4686644686092,90.37313242679537L148.534804467522,90.37313242679537L149.05189900447672,91.06743250527919L149.44753645251882,91.06743250527919L149.51728408773596,91.06743250527919L149.96222589860395,91.76195688026777L150.10412625990782,91.76195688026777L150.17627898599451,91.76195688026777L150.19311462208142,91.76195688026777L150.21115280360308,91.76195688026777L150.2267858942552,91.76195688026777L150.43001607273274,92.45663241159652L150.8400840659922,92.45663241159652L151.0517320625132,92.45663241159652L151.16236624251277,92.45663241159652L151.24894951381683,93.15138595910085L151.26578514990373,93.15138595910085L151.77325932338022,93.15138595910085L151.84180441316258,93.15138595910085L151.9897175016403,93.15138595910085L152.20136549816132,93.84613950660517L152.32162004163914,93.84613950660517L152.84713239663733,93.84613950660517L153.64201492902583,94.54081503793392L153.72980074576463,94.54081503793392L154.46575855184904,95.23533941292251L154.63050727641365,95.92963461539536L155.41937708162828,95.92963461539536L155.42057962706306,95.92963461539536L155.4903272622802,96.62362750518787L155.73083634923586,96.62362750518787L156.11685343379972,96.62362750518787L156.40666688358132,97.31723519011348L156.56059269923298,97.31723519011348L156.60027669858067,97.31723519011348L156.83357051292768,97.31723519011348L157.03559814597043,97.31723519011348L157.07888978162245,97.31723519011348L157.10173814488323,97.31723519011348L157.21718250662195,98.0103894060186L157.7667457703157,98.0103894060186L157.8160501331416,98.0103894060186L157.92187413140212,98.0103894060186L158.1888392179229,98.70301213672765L158.37282866944398,98.70301213672765L158.6337810287909,98.70301213672765L159.30119374509292,99.39502049005407L159.53448755943992,99.39502049005407L159.5813868313963,99.39502049005407L159.82069337291716,100.0863510778552L160.3257624555241,100.0863510778552L160.64684208660992,100.77691613193356L160.82962899269626,100.77691613193356L161.11703735160827,100.77691613193356L161.49223152725915,101.4666473881355L161.69305661486712,101.4666473881355L162.12717551682212,101.4666473881355L162.45907805682097,102.15546683028545L162.52281296486422,102.15546683028545L162.9521216850801,102.15546683028545L162.96655223029745,102.15546683028545L163.2635809526877,102.84329644220783L163.39946858681765,102.84329644220783L163.59307840181697,102.84329644220783L163.70130749094704,102.84329644220783L164.09093221181524,103.53006308373807L164.35549220746648,103.53006308373807L164.40118893398804,103.53006308373807L164.4877722052921,103.53006308373807L164.53467147724845,103.53006308373807L164.76796529159546,103.53006308373807L164.78480092768237,104.21569361471155L164.8052442000736,104.21569361471155L164.93511910702964,104.21569361471155L165.51234091572326,104.21569361471155L165.74082454833118,104.9001100189527L165.88031981876546,104.9001100189527L166.1448798144167,104.9001100189527L166.17975363202527,104.9001100189527L166.7341270774581,105.58323915629694L167.04318125419616,105.58323915629694L167.07805507180473,105.58323915629694L167.1514103433262,105.58323915629694L167.51698415549887,106.26500788657967L167.71901178854162,106.26500788657967L168.3311074148438,106.94533331761431L169.78979502723,107.62414718524727L169.7909975726648,107.62414718524727L169.95815138809897,108.30137634931394L169.99422775114235,108.30137634931394L170.04353211396824,108.30137634931394L170.5630317417925,108.30137634931394L170.6135386500532,108.30137634931394L171.0079735526605,108.97694279363876L171.5094349989631,108.97694279363876L171.52386554418044,108.97694279363876L171.65013281483215,109.65077337805711L172.04577026287427,109.65077337805711L172.69634734308937,110.32279496240442L172.72520843352405,110.32279496240442L172.76489243287173,110.32279496240442L173.2904047878699,110.99293440651607L173.36977278656525,110.99293440651607L173.40344405873907,110.99293440651607L173.80629677938984,110.99293440651607L174.08047713851929,110.99293440651607L174.0973127746062,110.99293440651607L174.15022477373643,111.66111369421648L174.42079749656156,111.66111369421648L174.71782621895184,111.66111369421648L176.1055636506861,112.99131386775821L176.39778219133723,112.99131386775821L176.6960134591623,113.65318847327029L176.75974836720553,113.65318847327029L176.8908258195964,113.65318847327029L177.05076436242192,113.65318847327029L177.27203272242113,113.65318847327029L177.42595853807276,113.65318847327029L177.5402003543767,114.31281523772374L177.7181770787239,114.31281523772374L177.7566585326368,114.31281523772374L177.83001380415828,114.31281523772374L177.8516596219843,114.31281523772374L178.11140943589643,114.31281523772374L178.34229815937388,114.31281523772374L178.46736288459084,114.97011614494298L179.00129305763244,114.97011614494298L179.35484141545732,115.62502780678534L179.56167923023915,115.62502780678534L179.66750322849967,115.62502780678534L179.68193377371702,115.62502780678534L179.69155413719523,115.62502780678534L179.7829475902384,115.62502780678534L179.83465704393387,115.62502780678534L180.29162430914965,116.27747708308625L180.46719594262728,116.27747708308625L181.22720465740724,116.9273908336811L181.49537228936282,116.9273908336811L182.17481046001262,117.57469104239432L182.18803845979517,117.57469104239432L182.4020915471857,117.57469104239432L182.46702900066376,117.57469104239432L182.6377904524023,118.21931919709424L183.59982680022497,118.86119728160526L183.88843770457183,118.86119728160526L184.23717588065753,118.86119728160526L184.37186096935272,119.50025215576281L184.6243955106562,119.50025215576281L184.71097878196025,119.50025215576281L185.02364059500263,119.50025215576281L185.200414773915,120.13642043142423L185.64415403934828,120.13642043142423L185.65978713000035,120.13642043142423L185.76200349195653,120.13642043142423L186.24662930217224,120.76962896842491L186.37409911825873,120.76962896842491L187.13410783303868,121.39980950261126L187.4431620097767,121.39980950261126L187.84841982129706,122.02689133182413L187.9338005471663,122.02689133182413L188.02759909107903,122.02689133182413L188.4064009030342,122.02689133182413L188.4124136302081,122.02689133182413L188.43045181172977,122.02689133182413L188.82729180520664,122.65080862991542L188.86577325911955,122.65080862991542L189.1026747097709,122.65080862991542L189.37926015976993,123.27148825672049L189.47907143085655,123.27148825672049L189.50191979411733,123.27148825672049L189.6257819738995,123.27148825672049L189.96129215020267,123.27148825672049L190.53610886802673,123.88886682409671L190.56978014020052,123.88886682409671L190.67319904759148,123.88886682409671L191.13136885824204,124.50287362988496L191.15782485780716,124.50287362988496L191.51498085193634,124.50287362988496L191.6893499399792,124.50287362988496L191.744667029979,124.50287362988496L192.37720592867245,125.11344284793714L192.42530774606357,125.11344284793714L192.4349281095418,125.11344284793714L192.46138410910692,125.11344284793714L192.4734095634547,125.11344284793714L192.56480301649788,125.11344284793714L192.60568956128034,125.11344284793714L192.71031101410605,125.11344284793714L192.74758992258418,125.11344284793714L193.3091786406257,125.72050621409957L193.59658699953772,125.72050621409957L193.8767800858411,126.32400034022962L194.63558625518627,126.9238545241682L194.6788778908383,126.9238545241682L194.79552479801177,126.9238545241682L195.04805933931524,126.9238545241682L195.04926188475002,126.9238545241682L195.40882296974877,127.52000537777263L195.71547205561723,127.52000537777263L195.88503096192102,127.52000537777263L196.23857931974584,128.11238951290028L196.42617640757126,128.11238951290028L196.59814040474458,128.11238951290028L196.70155931213552,128.11238951290028L196.93725821735208,128.11238951290028L196.96732185322153,128.11238951290028L197.1188425780036,128.700936227392L197.2030207584381,128.700936227392L197.48922657191537,128.700936227392L197.5601767525673,128.700936227392L197.70327965930593,128.700936227392L197.85239529321842,129.28558700911617L199.16918254430078,129.86627359391912L199.27500654256127,129.86627359391912L199.32190581451763,129.86627359391912L199.37121017734353,129.86627359391912L199.9977363488631,130.4429350316637L200.1023578016888,130.4429350316637L200.45951379581797,131.01550793420725L201.2652192371195,131.58392647540165L201.4155374164668,131.58392647540165L202.2549141299421,132.14813214311522L202.3739661279852,132.14813214311522L202.53751230711504,132.14813214311522L202.684222850158,132.14813214311522L202.75397048537513,132.14813214311522L202.83694612037485,132.14813214311522L202.84175630211396,132.14813214311522L202.96321339102658,132.7080615492053L203.06663229841752,132.7080615492053L203.76170355971942,132.7080615492053L203.8975911938494,133.2636513055292L204.05151700950103,133.2636513055292L204.0695551910227,133.2636513055292L204.29563373276105,133.2636513055292L204.35696354993473,133.2636513055292L204.43993918493445,133.2636513055292L204.44474936667356,133.2636513055292L205.07849081080175,133.81484533796083L205.10133917406256,133.81484533796083L205.19754280884484,133.81484533796083L205.34425335188777,133.81484533796083L205.4705206225395,133.81484533796083L205.68577625536486,134.36157782035195L205.70261189145174,134.36157782035195L205.74590352710376,134.36157782035195L205.79520788992969,134.36157782035195L205.90824716079885,134.36157782035195L205.967171887103,134.36157782035195L206.0838187942765,134.36157782035195L206.1836300653631,134.36157782035195L206.28825151818882,134.36157782035195L206.30989733601484,134.36157782035195L206.4722409697099,134.9037902405709L207.46674604427164,135.44142652449156L207.75896458492278,135.44142652449156L208.70897547839772,135.9744232839712L208.78954602252787,135.9744232839712L208.86290129404935,135.9744232839712L209.29581765056955,136.50272444488365L209.86943182295886,137.02627393310274L210.04139582013215,137.02627393310274L210.67273217339084,137.5450083604858L210.76653071730354,137.5450083604858L211.14773762012828,137.5450083604858L211.31128379925815,137.5450083604858L211.3293219807798,137.5450083604858L212.0195830603426,138.0588765289176L212.11939433142922,138.0588765289176L212.4320561444716,138.5678199262665L212.64129905012305,138.5678199262665L212.72908486686188,138.5678199262665L212.9046565003395,138.5678199262665L212.92750486360032,138.5678199262665L213.00687286229567,138.5678199262665L213.200482677295,139.07178247840628L213.30991431185984,139.07178247840628L213.3676364927292,139.07178247840628L213.59972776164142,139.07178247840628L213.8234012125102,139.07178247840628L213.96530157381406,139.57071054921624L214.0182135729443,139.57071054921624L214.047074663379,139.57071054921624L214.10239175337878,139.57071054921624L214.8924641040282,140.06454806457018L215.08006119185362,140.06454806457018L215.2363920983748,140.06454806457018L215.42759682250457,140.06454806457018L215.74627136272082,140.5532389503419L215.88336154228557,140.5532389503419L216.19241571902361,140.5532389503419L216.70109243793488,141.03673322741895L216.76121970967378,141.03673322741895L216.96805752445567,141.03673322741895L217.01255170554248,141.03673322741895L217.30958042793276,141.03673322741895L217.60540660488823,141.51497604067788L217.8519284190178,141.51497604067788L217.8855996911916,141.51497604067788L218.09845023314736,141.51497604067788L218.8031418579275,141.98791497300073L218.83080040292742,141.98791497300073L219.03403058140495,141.98791497300073L219.03523312683973,141.98791497300073L219.11099348923076,142.45549882627225L219.2096022148826,142.45549882627225L219.36473057596902,142.45549882627225L219.43327566575135,142.45549882627225L219.56435311814224,142.45549882627225L219.64973384401148,142.45549882627225L219.81207747770657,142.45549882627225L220.21974038009645,142.91767640237725L220.4217680131392,142.91767640237725L221.21544800009292,143.3743965032005L221.356145815962,143.3743965032005L222.01634325965534,143.8256079306268L222.2532447103067,143.8256079306268L222.30134652769783,143.8256079306268L222.44925961617557,144.27126314354913L223.02768397030397,144.27126314354913L223.18882505856428,144.27126314354913L223.4329417818243,144.71131216285505L223.6698432324756,144.71131216285505L224.03180940834395,144.71131216285505L224.0594679533438,144.71131216285505L224.27592613160394,145.14570744743753L224.29035667682126,145.14570744743753L224.71966539703715,145.14570744743753L224.81226139551512,145.14570744743753L225.05517557334034,145.57440145618963L225.1573919352965,145.57440145618963L225.2908744785569,145.57440145618963L225.3522042957306,145.57440145618963L225.65043556355565,145.57440145618963L226.12303591942356,145.9973454290016L226.29499991659682,145.9973454290016L226.54633191246552,145.9973454290016L226.7387391820301,146.41449548177465L226.94437445137717,146.41449548177465L227.11994608485483,146.41449548177465L227.1331740846374,146.41449548177465L227.2883024457238,146.41449548177465L227.31235335441937,146.41449548177465L227.66950934854853,146.8258040734018L227.94729734398234,146.8258040734018L228.26116170245953,146.8258040734018L228.33090933767667,146.8258040734018L228.43913842680672,147.2312261007816L228.5966718787627,147.2312261007816L228.70971114963186,147.2312261007816L229.0788925981088,147.2312261007816L229.94111767484492,147.63071767981523L230.4317562122345,148.02423614540672L230.47865548419085,148.02423614540672L230.49068093853865,148.02423614540672L231.16651147288408,148.41173639445455L231.3889823783181,148.41173639445455L232.0575976400549,148.7931769808654L232.20310563766304,148.7931769808654L232.3005118178801,148.7931769808654L232.3185499994018,148.7931769808654L232.44601981548828,148.7931769808654L232.65646526657451,149.16851523954335L232.75988417396547,149.16851523954335L232.98716526113856,149.16851523954335L233.79166815700532,149.5377109433978L234.07186124330866,149.5377109433978L234.4025612378727,149.90072386533825L234.6286397796111,149.90072386533825L234.70079250569776,149.90072386533825L234.82465468547994,149.90072386533825L234.95092195613168,149.90072386533825L235.15896231634835,150.25751255927142L235.79631139678088,150.25751255927142L236.0223899385192,150.60803923611226L236.03922557460612,150.60803923611226L236.05726375612778,150.60803923611226L236.14144193656227,150.60803923611226L236.39998920503965,150.60803923611226L237.00366701329838,150.95226549727437L237.70595354720896,151.2901535536727L237.7251942741654,151.2901535536727L237.83582845416504,151.2901535536727L237.9873491789471,151.2901535536727L238.33488480959807,151.2901535536727L238.89887861850912,151.62166561622223L238.9060938911178,151.62166561622223L238.94698043590026,151.62166561622223L239.10331134242145,151.62166561622223L239.16343861416036,151.62166561622223L239.50736660850697,151.94676511484062L239.54224042611554,151.94676511484062L239.85730733002748,151.94676511484062L239.91623205633164,151.94676511484062L240.1242724165483,151.94676511484062L240.29864150459116,152.26541791745106L240.46820041089492,152.26541791745106L240.88788876763257,152.26541791745106L240.92396513067592,152.26541791745106L241.2077658532836,152.57758806347266L241.23542439828353,152.57758806347266L241.7705571167599,152.57758806347266L241.77536729849902,152.57758806347266L241.84150729741182,152.57758806347266L242.0327120215416,152.88324081132723L242.06878838458496,152.88324081132723L242.19385310980192,152.88324081132723L242.26841092675815,152.88324081132723L242.35258910719264,152.88324081132723L242.47645128697482,152.88324081132723L243.01879927805987,153.18234385744205L243.5178556334929,153.18234385744205L243.9183032632741,153.47486367924168L243.98324071675214,153.47486367924168L244.04938071566494,153.47486367924168L244.05539344283883,153.47486367924168L244.3860934374029,153.47486367924168L244.44261307283747,153.47486367924168L244.44501816370706,153.47486367924168L244.70116034131485,153.7607685826548L244.83584543001,153.7607685826548L245.09078506218304,153.7607685826548L245.22426760544343,153.7607685826548L245.23629305979122,153.7607685826548L245.49844796457293,154.0400268736101L246.21516504370084,154.31260807703896L246.22719049804863,154.31260807703896L246.3113686784831,154.31260807703896L246.59156176478646,154.31260807703896L247.26137957195803,154.57848232737422L247.7303722915216,154.57848232737422L248.0033501052163,154.83761975904864L248.01898319586843,154.83761975904864L248.27151773717188,154.83761975904864L248.37012646282372,154.83761975904864L248.55171082347522,154.83761975904864L248.585382095649,154.83761975904864L248.8367140915177,155.08999355400186L248.96779154390853,155.08999355400186L249.03513408825614,155.08999355400186L249.09526135999508,155.08999355400186L249.10848935977762,155.08999355400186L249.64843225999311,155.33557445616808L249.73742062216672,155.33557445616808L250.0609053441221,155.33557445616808L250.1162224341219,155.33557445616808L250.21362861433897,155.33557445616808L250.58160751738114,155.57433625698826L251.60978386411665,155.80625274790344L251.63503731824702,155.80625274790344L251.64345513629047,155.80625274790344L251.67111368129036,155.80625274790344L251.7192154986815,155.80625274790344L252.02706712998477,155.80625274790344L252.2026387634624,156.03129832985604L252.45036312302676,156.03129832985604L252.4539707593311,156.03129832985604L252.80150638998205,156.03129832985604L252.94100166041633,156.03129832985604L253.0660663856333,156.2494483180405L253.50138783302307,156.2494483180405" fill="none"></path></g></g></g></g></g></g><g transform="translate(65, 174)" clip-path="url(#clip_1)"><clipPath id="clip_1"><rect width="264" height="25"></rect></clipPath><g><g><line x1="0" y1="0" x2="0" y2="5" style="visibility: inherit;" fill="rgb(0, 0, 0)" stroke="rgb(204, 204, 204)" stroke-width="1px"></line><line x1="24.05090869556774" y1="0" x2="24.05090869556774" y2="5" style="visibility: inherit;" fill="rgb(0, 0, 0)" stroke="rgb(204, 204, 204)" stroke-width="1px"></line><line x1="48.10181739113548" y1="0" x2="48.10181739113548" y2="5" style="visibility: inherit;" fill="rgb(0, 0, 0)" stroke="rgb(204, 204, 204)" stroke-width="1px"></line><line x1="72.15272608670321" y1="0" x2="72.15272608670321" y2="5" style="visibility: inherit;" fill="rgb(0, 0, 0)" stroke="rgb(204, 204, 204)" stroke-width="1px"></line><line x1="96.20363478227095" y1="0" x2="96.20363478227095" y2="5" style="visibility: inherit;" fill="rgb(0, 0, 0)" stroke="rgb(204, 204, 204)" stroke-width="1px"></line><line x1="120.25454347783868" y1="0" x2="120.25454347783868" y2="5" style="visibility: inherit;" fill="rgb(0, 0, 0)" stroke="rgb(204, 204, 204)" stroke-width="1px"></line><line x1="144.30545217340642" y1="0" x2="144.30545217340642" y2="5" style="visibility: inherit;" fill="rgb(0, 0, 0)" stroke="rgb(204, 204, 204)" stroke-width="1px"></line><line x1="168.35636086897415" y1="0" x2="168.35636086897415" y2="5" style="visibility: inherit;" fill="rgb(0, 0, 0)" stroke="rgb(204, 204, 204)" stroke-width="1px"></line><line x1="192.4072695645419" y1="0" x2="192.4072695645419" y2="5" style="visibility: inherit;" fill="rgb(0, 0, 0)" stroke="rgb(204, 204, 204)" stroke-width="1px"></line><line x1="216.45817826010966" y1="0" x2="216.45817826010966" y2="5" style="visibility: inherit;" fill="rgb(0, 0, 0)" stroke="rgb(204, 204, 204)" stroke-width="1px"></line><line x1="240.50908695567736" y1="0" x2="240.50908695567736" y2="5" style="visibility: inherit;" fill="rgb(0, 0, 0)" stroke="rgb(204, 204, 204)" stroke-width="1px"></line><line x1="264.5599956512451" y1="0" x2="264.5599956512451" y2="5" style="visibility: inherit;" fill="rgb(0, 0, 0)" stroke="rgb(204, 204, 204)" stroke-width="1px"></line></g><g transform="translate(0, 8)"><text style="text-anchor: middle; visibility: hidden; font-family: &quot;Helvetica Neue&quot;, sans-serif; font-size: 12px; font-weight: 200;" x="0" y="0" dx="0em" dy="0.95em" fill="rgb(50, 49, 63)" stroke="none" stroke-width="1px">-20k</text><text style="text-anchor: middle; visibility: inherit; font-family: &quot;Helvetica Neue&quot;, sans-serif; font-size: 12px; font-weight: 200;" x="24.05090869556774" y="0" dx="0em" dy="0.95em" fill="rgb(50, 49, 63)" stroke="none" stroke-width="1px">0</text><text style="text-anchor: middle; visibility: hidden; font-family: &quot;Helvetica Neue&quot;, sans-serif; font-size: 12px; font-weight: 200;" x="48.10181739113548" y="0" dx="0em" dy="0.95em" fill="rgb(50, 49, 63)" stroke="none" stroke-width="1px">20k</text><text style="text-anchor: middle; visibility: inherit; font-family: &quot;Helvetica Neue&quot;, sans-serif; font-size: 12px; font-weight: 200;" x="72.15272608670321" y="0" dx="0em" dy="0.95em" fill="rgb(50, 49, 63)" stroke="none" stroke-width="1px">40k</text><text style="text-anchor: middle; visibility: hidden; font-family: &quot;Helvetica Neue&quot;, sans-serif; font-size: 12px; font-weight: 200;" x="96.20363478227095" y="0" dx="0em" dy="0.95em" fill="rgb(50, 49, 63)" stroke="none" stroke-width="1px">60k</text><text style="text-anchor: middle; visibility: inherit; font-family: &quot;Helvetica Neue&quot;, sans-serif; font-size: 12px; font-weight: 200;" x="120.25454347783868" y="0" dx="0em" dy="0.95em" fill="rgb(50, 49, 63)" stroke="none" stroke-width="1px">80k</text><text style="text-anchor: middle; visibility: hidden; font-family: &quot;Helvetica Neue&quot;, sans-serif; font-size: 12px; font-weight: 200;" x="144.30545217340642" y="0" dx="0em" dy="0.95em" fill="rgb(50, 49, 63)" stroke="none" stroke-width="1px">100k</text><text style="text-anchor: middle; visibility: inherit; font-family: &quot;Helvetica Neue&quot;, sans-serif; font-size: 12px; font-weight: 200;" x="168.35636086897415" y="0" dx="0em" dy="0.95em" fill="rgb(50, 49, 63)" stroke="none" stroke-width="1px">120k</text><text style="text-anchor: middle; visibility: hidden; font-family: &quot;Helvetica Neue&quot;, sans-serif; font-size: 12px; font-weight: 200;" x="192.4072695645419" y="0" dx="0em" dy="0.95em" fill="rgb(50, 49, 63)" stroke="none" stroke-width="1px">140k</text><text style="text-anchor: middle; visibility: inherit; font-family: &quot;Helvetica Neue&quot;, sans-serif; font-size: 12px; font-weight: 200;" x="216.45817826010966" y="0" dx="0em" dy="0.95em" fill="rgb(50, 49, 63)" stroke="none" stroke-width="1px">160k</text><text style="text-anchor: middle; visibility: hidden; font-family: &quot;Helvetica Neue&quot;, sans-serif; font-size: 12px; font-weight: 200;" x="240.50908695567736" y="0" dx="0em" dy="0.95em" fill="rgb(50, 49, 63)" stroke="none" stroke-width="1px">180k</text><text style="text-anchor: middle; visibility: hidden; font-family: &quot;Helvetica Neue&quot;, sans-serif; font-size: 12px; font-weight: 200;" x="264.5599956512451" y="0" dx="0em" dy="0.95em" fill="rgb(50, 49, 63)" stroke="none" stroke-width="1px">200k</text></g><line x1="0" y1="0" x2="264.5599956512451" y2="0" fill="rgb(0, 0, 0)" stroke="rgb(204, 204, 204)" stroke-width="1px"></line></g></g></g></g></svg>