<svg viewBox="0 0 330 200" xmlns="http://www.w3.org/2000/svg"><g><g><g><g><g><line x1="28.48000144958496" y1="174.23999977111816" x2="23.48000144958496" y2="174.23999977111816" style="visibility: inherit;" fill="rgb(0, 0, 0)" stroke="rgb(204, 204, 204)" stroke-width="1px"></line><line x1="28.48000144958496" y1="152.4599997997284" x2="23.48000144958496" y2="152.4599997997284" style="visibility: inherit;" fill="rgb(0, 0, 0)" stroke="rgb(204, 204, 204)" stroke-width="1px"></line><line x1="28.48000144958496" y1="130.67999982833862" x2="23.48000144958496" y2="130.67999982833862" style="visibility: inherit;" fill="rgb(0, 0, 0)" stroke="rgb(204, 204, 204)" stroke-width="1px"></line><line x1="28.48000144958496" y1="108.89999985694885" x2="23.48000144958496" y2="108.89999985694885" style="visibility: inherit;" fill="rgb(0, 0, 0)" stroke="rgb(204, 204, 204)" stroke-width="1px"></line><line x1="28.48000144958496" y1="87.11999988555908" x2="23.48000144958496" y2="87.11999988555908" style="visibility: inherit;" fill="rgb(0, 0, 0)" stroke="rgb(204, 204, 204)" stroke-width="1px"></line><line x1="28.48000144958496" y1="65.33999991416931" x2="23.48000144958496" y2="65.33999991416931" style="visibility: inherit;" fill="rgb(0, 0, 0)" stroke="rgb(204, 204, 204)" stroke-width="1px"></line><line x1="28.48000144958496" y1="43.55999994277954" x2="23.48000144958496" y2="43.55999994277954" style="visibility: inherit;" fill="rgb(0, 0, 0)" stroke="rgb(204, 204, 204)" stroke-width="1px"></line><line x1="28.48000144958496" y1="21.77999997138977" x2="23.48000144958496" y2="21.77999997138977" style="visibility: inherit;" fill="rgb(0, 0, 0)" stroke="rgb(204, 204, 204)" stroke-width="1px"></line><line x1="28.48000144958496" y1="0" x2="23.48000144958496" y2="0" style="visibility: inherit;" fill="rgb(0, 0, 0)" stroke="rgb(204, 204, 204)" stroke-width="1px"></line></g><g transform="translate(18.48000144958496, 0)"><text style="text-anchor: end; visibility: hidden; font-family: &quot;Helvetica Neue&quot;, sans-serif; font-size: 12px; font-weight: 200;" x="0" y="174.23999977111816" dx="0em" dy="0.3em" fill="rgb(50, 49, 63)" stroke="none" stroke-width="1px">5</text><text style="text-anchor: end; visibility: inherit; font-family: &quot;Helvetica Neue&quot;, sans-serif; font-size: 12px; font-weight: 200;" x="0" y="152.4599997997284" dx="0em" dy="0.3em" fill="rgb(50, 49, 63)" stroke="none" stroke-width="1px">6</text><text style="text-anchor: end; visibility: hidden; font-family: &quot;Helvetica Neue&quot;, sans-serif; font-size: 12px; font-weight: 200;" x="0" y="130.67999982833862" dx="0em" dy="0.3em" fill="rgb(50, 49, 63)" stroke="none" stroke-width="1px">7</text><text style="text-anchor: end; visibility: inherit; font-family: &quot;Helvetica Neue&quot;, sans-serif; font-size: 12px; font-weight: 200;" x="0" y="108.89999985694885" dx="0em" dy="0.3em" fill="rgb(50, 49, 63)" stroke="none" stroke-width="1px">8</text><text style="text-anchor: end; visibility: hidden; font-family: &quot;Helvetica Neue&quot;, sans-serif; font-size: 12px; font-weight: 200;" x="0" y="87.11999988555908" dx="0em" dy="0.3em" fill="rgb(50, 49, 63)" stroke="none" stroke-width="1px">9</text><text style="text-anchor: end; visibility: inherit; font-family: &quot;Helvetica Neue&quot;, sans-serif; font-size: 12px; font-weight: 200;" x="0" y="65.33999991416931" dx="0em" dy="0.3em" fill="rgb(50, 49, 63)" stroke="none" stroke-width="1px">10</text><text style="text-anchor: end; visibility: hidden; font-family: &quot;Helvetica Neue&quot;, sans-serif; font-size: 12px; font-weight: 200;" x="0" y="43.55999994277954" dx="0em" dy="0.3em" fill="rgb(50, 49, 63)" stroke="none" stroke-width="1px">11</text><text style="text-anchor: end; visibility: inherit; font-family: &quot;Helvetica Neue&quot;, sans-serif; font-size: 12px; font-weight: 200;" x="0" y="21.77999997138977" dx="0em" dy="0.3em" fill="rgb(50, 49, 63)" stroke="none" stroke-width="1px">12</text><text style="text-anchor: end; visibility: hidden; font-family: &quot;Helvetica Neue&quot;, sans-serif; font-size: 12px; font-weight: 200;" x="0" y="0" dx="0em" dy="0.3em" fill="rgb(50, 49, 63)" stroke="none" stroke-width="1px">13</text></g><line x1="28.48000144958496" y1="0" x2="28.48000144958496" y2="174.23999977111816" fill="rgb(0, 0, 0)" stroke="rgb(204, 204, 204)" stroke-width="1px"></line></g></g><g transform="translate(28, 0)" clip-path="url(#clip_0)"><clipPath id="clip_0"><rect width="301" height="174"></rect></clipPath><g><g><g><line x1="0" y1="0" x2="0" y2="174.23999977111816" fill="rgb(0, 0, 0)" stroke="rgb(60, 60, 60)" stroke-width="1px" opacity="0.25"></line><line x1="27.41090895912864" y1="0" x2="27.41090895912864" y2="174.23999977111816" fill="rgb(0, 0, 0)" stroke="rgb(60, 60, 60)" stroke-width="1px" opacity="0.25"></line><line x1="54.82181791825728" y1="0" x2="54.82181791825728" y2="174.23999977111816" fill="rgb(0, 0, 0)" stroke="rgb(60, 60, 60)" stroke-width="1px" opacity="0.25"></line><line x1="82.23272687738591" y1="0" x2="82.23272687738591" y2="174.23999977111816" fill="rgb(0, 0, 0)" stroke="rgb(60, 60, 60)" stroke-width="1px" opacity="0.25"></line><line x1="109.64363583651456" y1="0" x2="109.64363583651456" y2="174.23999977111816" fill="rgb(0, 0, 0)" stroke="rgb(60, 60, 60)" stroke-width="1px" opacity="0.25"></line><line x1="137.05454479564318" y1="0" x2="137.05454479564318" y2="174.23999977111816" fill="rgb(0, 0, 0)" stroke="rgb(60, 60, 60)" stroke-width="1px" opacity="0.25"></line><line x1="164.46545375477183" y1="0" x2="164.46545375477183" y2="174.23999977111816" fill="rgb(0, 0, 0)" stroke="rgb(60, 60, 60)" stroke-width="1px" opacity="0.25"></line><line x1="191.87636271390048" y1="0" x2="191.87636271390048" y2="174.23999977111816" fill="rgb(0, 0, 0)" stroke="rgb(60, 60, 60)" stroke-width="1px" opacity="0.25"></line><line x1="219.28727167302912" y1="0" x2="219.28727167302912" y2="174.23999977111816" fill="rgb(0, 0, 0)" stroke="rgb(60, 60, 60)" stroke-width="1px" opacity="0.25"></line><line x1="246.69818063215777" y1="0" x2="246.69818063215777" y2="174.23999977111816" fill="rgb(0, 0, 0)" stroke="rgb(60, 60, 60)" stroke-width="1px" opacity="0.25"></line><line x1="274.10908959128636" y1="0" x2="274.10908959128636" y2="174.23999977111816" fill="rgb(0, 0, 0)" stroke="rgb(60, 60, 60)" stroke-width="1px" opacity="0.25"></line><line x1="301.51999855041504" y1="0" x2="301.51999855041504" y2="174.23999977111816" fill="rgb(0, 0, 0)" stroke="rgb(60, 60, 60)" stroke-width="1px" opacity="0.25"></line></g><g><line x1="0" y1="174.23999977111816" x2="301.51999855041504" y2="174.23999977111816" fill="rgb(0, 0, 0)" stroke="rgb(60, 60, 60)" stroke-width="1px" opacity="0.25"></line><line x1="0" y1="152.4599997997284" x2="301.51999855041504" y2="152.4599997997284" fill="rgb(0, 0, 0)" stroke="rgb(60, 60, 60)" stroke-width="1px" opacity="0.25"></line><line x1="0" y1="130.67999982833862" x2="301.51999855041504" y2="130.67999982833862" fill="rgb(0, 0, 0)" stroke="rgb(60, 60, 60)" stroke-width="1px" opacity="0.25"></line><line x1="0" y1="108.89999985694885" x2="301.51999855041504" y2="108.89999985694885" fill="rgb(0, 0, 0)" stroke="rgb(60, 60, 60)" stroke-width="1px" opacity="0.25"></line><line x1="0" y1="87.11999988555908" x2="301.51999855041504" y2="87.11999988555908" fill="rgb(0, 0, 0)" stroke="rgb(60, 60, 60)" stroke-width="1px" opacity="0.25"></line><line x1="0" y1="65.33999991416931" x2="301.51999855041504" y2="65.33999991416931" fill="rgb(0, 0, 0)" stroke="rgb(60, 60, 60)" stroke-width="1px" opacity="0.25"></line><line x1="0" y1="43.55999994277954" x2="301.51999855041504" y2="43.55999994277954" fill="rgb(0, 0, 0)" stroke="rgb(60, 60, 60)" stroke-width="1px" opacity="0.25"></line><line x1="0" y1="21.77999997138977" x2="301.51999855041504" y2="21.77999997138977" fill="rgb(0, 0, 0)" stroke="rgb(60, 60, 60)" stroke-width="1px" opacity="0.25"></line><line x1="0" y1="0" x2="301.51999855041504" y2="0" fill="rgb(0, 0, 0)" stroke="rgb(60, 60, 60)" stroke-width="1px" opacity="0.25"></line></g></g></g><g><g><line x1="0" y1="283.139999628067" x2="301.51999855041504" y2="283.139999628067" fill="rgb(0, 0, 0)" stroke="rgb(153, 153, 153)" stroke-width="1.5px"></line></g></g><g><g><line x1="27.41090895912864" y1="0" x2="27.41090895912864" y2="174.23999977111816" fill="rgb(0, 0, 0)" stroke="rgb(153, 153, 153)" stroke-width="1.5px"></line></g></g><g><g><g><g><g><path style="fill: none;" stroke="rgb(255, 112, 67)" stroke-width="2px" d="M34.22389038092006,-2.059151400878136L34.44728928893696,1.8468298707641395L34.73647437845577,2.7944726553594705L35.2545405577833,11.842854900507149L35.506720920207286,13.553513177749437L35.62047619238767,14.331818997956987L35.90829073645852,14.503097845715416L36.59219291498878,14.744050639993077L36.60863946036425,14.92835313610513L36.80462745942202,16.26379376331957L36.95812854959315,16.26032210211119L37.217161639256915,17.39399053070946L37.63517800088362,16.878677764825966L37.63928963722749,16.66569319204669L38.098422362292894,20.97711948366816L38.14639145297137,24.808508704226682L38.465728542345225,26.531685697363287L38.621970723412254,27.00440860539655L38.67816308677847,26.45769979148892L39.0578041758624,33.46374120494991L39.071509630341964,36.77248376049212L39.578611446085844,34.38381636620838L39.65673253661936,32.38913353901904L40.102159807205204,28.06119959449893L40.387233260380135,27.273088830209275L40.50510016890439,28.384004840258314L40.70245871341012,29.00821478569881L41.66321107242758,29.373377174178984L41.77285470826409,29.232379781995462L41.831788162526216,28.885576215499015L42.35670706909353,34.26325516140332L42.44031034141888,36.734079647248336L42.514319795608515,37.64152431357073L43.21603906496221,39.216815620677096L43.26263761019273,40.57562462833553L43.42573251849955,42.63306727312019L43.814967425719175,42.992640603449814L43.821820152958956,43.235162609119755L44.08222378807068,43.79136885855203L44.254912514513194,42.40837556945087L45.05942269246361,41.64915954432274L45.27459832779277,40.87660590469889L45.3116030548876,40.91553316240328L46.04621541499225,45.08710446976772L46.077737960295245,47.14925283643045L47.001485592217875,52.7775534931161L47.51406958975358,54.7681675635702L47.666200134476746,55.80082110126993L47.79503140658465,53.06305095413009L48.61735867535852,52.81434907672261L49.01618740071383,51.1323258893033L49.4986193983945,50.67096857403247L50.51419357533021,53.40878620758231L50.800637573953104,55.189604114496106L50.84312448283976,57.21242382925357L51.14464448139017,58.12358981011674L51.17479648124522,58.733333618522536L51.45438775262833,58.83453209965343L51.47357538889972,58.80297797983502L52.69884301937277,56.46062339948473L53.68289465100548,58.76175880314395L54.17903210316572,60.82044789509581L54.328421556992964,62.22448825434202L54.453141192757,63.4185077910832L54.81496519101749,64.40992790510062L54.894456826998976,65.42951423351225L54.906791736030584,66.08929695243215L55.156231007558645,66.25694285208927L55.1671953711423,66.32935657142492L55.26450409794721,66.63584908368665L55.42485791535811,66.86934580252638L55.5605419147058,66.35922761764333L55.6139931871761,64.09442397460633L55.889472822215346,63.57049551540949L55.89358445855921,63.21872566680821L55.99363427626003,63.32898323049194L56.302007002050225,63.84449815782135L56.38972191071944,64.48775537122665L56.5103299101396,59.49558410361236L56.629567364111814,61.88732186331113L57.354585906080764,64.16912449726614L57.89869244891947,65.40937586235427L58.01518881199577,66.66848197247873L58.05356408453855,67.3185617580766L59.12258953394456,67.95007696768018L59.13629498842413,68.27115955543233L59.19659898813421,68.42404505479111L59.325430260242115,64.87223918878237L59.428221168838846,63.97309356428738L59.51867716840397,64.34788862094554L59.67354880402304,65.58280251884806L59.851719712257385,67.47974987950853L59.86679571218491,68.62729849151016L59.894206621144036,69.32426069550425L60.50546989093261,68.31464595892422L60.69049352640672,69.01599781991004L60.693234617302636,69.5333609764748L60.74531534432498,69.76807263272013L61.15510843326395,69.9723592668869L61.30038625074734,65.26638208991139L61.58408915847431,68.03714776612345L62.021293156372415,70.15160963555137L62.210428428190404,70.38013190475364L62.78742806178006,72.71692190675711L62.83539715245854,73.9967625707174L62.936817515607316,74.91508243520455L63.46036587672668,72.23352933708601L64.13741532801714,74.78020691642062L64.1387858734651,75.03839752483252L64.6267000529376,75.74610368297672L65.1077615051703,81.10358032243323L65.24207495907004,81.79743576284841L65.2900440497485,80.91026740802123L65.54633604851635,81.010535547126L65.67105568428039,81.18903312324349L66.38648040811366,81.02493683742208L66.53038768014908,82.10543422642886L67.11561058642647,77.64391887717754L67.15124476807334,75.0006088802291L67.24170076763846,72.4370054364448L67.4322065849044,73.92671069102592L67.51718040267771,75.07507031194609L67.80225385585265,76.99184484905973L67.99413021856655,80.21226580029773L68.29290912622105,81.55428057121773L68.53412512506138,82.56037018606932L68.56975930670825,83.06487138247873L68.76574730576601,83.2218675030426L68.97544075930335,82.62129095296596L69.17142875836112,81.40450574639605L69.36604621197094,81.70485201764595L69.49487748407884,82.34325201001862L69.51406512035024,82.7395605372241L70.45425929764833,82.6676745724112L70.50496947922272,83.0077268919459L71.1038978399797,83.81234836313901L71.18064838506525,85.06772035067496L71.55206620146144,84.54077532435815L71.86455056359551,86.26748862357249L72.01119892652684,87.89868959884028L72.16881165304184,86.29685107484195L72.31271892507726,84.76465273872003L72.49363092420752,84.52111493275338L72.50459528779116,84.37343026797431L72.68550728692142,85.39242199908499L72.88697746777102,74.60099702251777L73.15286328467455,77.82570463827702L73.19123855721733,79.53569530757622L73.64900073683478,81.98443856287766L73.66544728221027,83.43008032144841L73.7147869183367,84.21422341045262L73.78879637252635,84.51639748123935L73.83950655410074,82.92671434669207L73.89021673567512,84.75920474764294L74.05879382577376,86.33285998307399L74.50559164180756,87.12932958326692L74.72899054982446,87.28760340312868L74.83041091297322,82.23083798074374L75.83639127177325,81.09699532332739L75.86517272618033,81.63574127909506L76.04197308896671,84.08882499325155L76.43669017797816,86.87922829771117L76.68612944950624,88.8446302226314L76.80125526713458,89.65675594532651L77.61261817232479,89.60941838831287L77.65373453576348,89.83067528523426L77.80175344414278,88.20465520999917L77.91550871632316,89.86079870034145L78.39794071400382,89.59787922826538L78.79128725756732,91.88903157927847L79.16818725575534,93.97754008947354L79.32168834592646,94.43410125132444L80.11523416029324,95.36706107989347L80.47842870400169,95.13329236900749L80.64289415775646,92.87678756157658L80.83614106591831,92.54694613817517L81.26786288202459,93.41324067696249L81.8243043338949,96.02778373964627L82.10800724162189,95.533788777659L82.26013778634504,95.47982291434494L82.63840832998102,95.79500913839263L82.91799960136414,96.01593377713736L83.14139850938103,95.68947379810876L83.14688069117285,95.54098898494576L83.21951959991456,95.20617685255873L83.31956941761537,95.2136395865857L83.65809414326061,94.05814678480003L83.97469014173855,93.09955524378664L84.07062832309549,92.40211713147298L84.34199632179087,92.25531436657218L85.15747086332495,92.0439358938288L85.59056322487918,91.22504312963437L85.61523304294239,91.15524299302493L85.90304758701323,92.71381205141296L87.05430576329665,94.26801316275659L87.22014176249938,94.86186639531529L87.31882103475223,98.38203772095325L87.35582576184706,99.96344909552431L87.36130794363889,100.4499910273806L87.44765230686014,100.10053181081102L87.70531485107594,100.37933266725155L87.81495848691247,100.39190226670725L87.98901775880293,99.63586785550872L87.99861157693863,99.11508201722744L88.0589155766487,98.78046859992008L88.13155448539041,98.92204860969389L88.8332737547441,97.97797503335278L89.03611448104165,97.13407151443847L89.59529702380787,99.155380553334L89.780320659282,100.12728853558149L89.98727302192341,100.250205534702L90.89183301757467,99.09564030610034L90.91376174474195,98.63050176983661L91.02203483513051,98.57673443605148L92.23907919291584,100.66737265359721L92.70095300887714,101.87941592353572L92.79277955389024,101.83398462180435L92.84623082636053,101.85571222986133L93.03536609817853,101.87678302777822L93.1244515522957,97.55107257643618L93.15597409759869,92.4357967529718L93.30125191508206,93.90539967028947L93.4451591871175,96.41157201730113L93.50820427772348,99.12940839663051L93.91251518487064,100.19179001165682L94.94042427083795,102.42375253265517L95.04869736122652,95.78339122974735L95.22138608766902,98.11655755737989L95.94640462963797,100.81604232844857L96.0149319020358,102.82248970608464L96.16432135586305,104.10251302453405L96.20543771930174,104.83532427974907L97.06065807882655,105.77416372692453L97.27994535049959,105.83596342097401L97.49237989493284,104.36426079157071L97.61984062159277,103.92451784646414L98.4024220723759,103.96829929152051L98.68064279831107,102.97644721110021L99.07947152366638,104.59615052750458L99.16307479599173,106.00012618804418L99.3782504313209,106.80121878351885L99.61398424836939,106.49516755472767L99.92098642871163,105.66775131109652L99.9662144284942,105.95411170640664L100.17590788203154,106.41182866190609L100.19646606375088,106.65835979044284L100.69123297046315,107.118242670036L101.01742278707678,105.88509084917607L101.02701660521248,105.35020978904463L101.0324987870043,104.98697472601938L101.23122787695797,104.00344688195892L101.29153187666806,104.36309782869401L101.5889402388746,105.27923756268515L102.36741005331386,106.23429706630468L102.5263933252768,107.3680881731658L102.70456423351115,108.16224622183749L102.76623877866918,108.50608481265884L103.20070168567136,108.59726662941223L103.53511477497275,107.55237418892631L103.5460791385564,106.97857931904738L103.76810750112534,107.12012009209951L103.84074640986702,109.64018155376958L104.62332786065015,108.91057600817915L104.85632058680274,108.23815823929961L104.87550822307414,108.30865255415597L104.99474567704634,107.26902791036015L105.24007331223054,109.20399019271245L105.28530131201312,110.58374878513357L105.95001585427198,111.00777364173925L106.19534348945618,109.68958089938224L107.50558493770252,109.13456595708831L107.66456820966548,108.84653872688234L107.88796711768238,110.72944750660281L107.9249718447772,111.71507923778968L107.94827111739245,112.31880042049804L108.63491438681864,114.62051112058684L108.69933002287259,114.74177893252319L108.86516602207531,115.48018870862384L109.15023947525025,114.7241938310778L109.19135583868893,114.08051293186898L109.88896347169876,113.83846362524756L109.89718674438649,113.56827139113979L109.92733874424155,113.16328459103323L110.0506878345576,112.81672401821594L110.29464492429386,113.22321956611347L111.29514310130206,112.44282695250241L111.39245182810696,112.18632707512819L111.6144801906759,109.49451926553236L111.94615218908136,110.25298548379197L112.57523254969337,110.52707895171034L112.68487618552987,110.74583465015732L113.09192818357295,111.83293332477538L113.13441509245959,112.42945555681058L113.58258345394134,111.15387305238278L113.78816527113482,111.0039358337688L114.05679217893427,110.83542163426483L114.45836199518551,113.49868334637429L114.67490817596261,111.56957881668865L114.94079399286618,111.11875888588237L115.43419035413048,113.1160849976923L115.8398718067256,114.37157606265248L116.06738235108637,114.0559396689446L116.34423253157357,112.60561112188233L116.83214671104605,112.1628069450489L116.8965623471,112.01936608460126L117.32006089051853,106.75083073468626L117.37762379933271,105.26114572554457L117.93406525120302,107.67091664778786L118.27533106774418,105.66384528385564L118.94552779179486,109.43752438354838L119.20456088145863,111.06471353746863L119.26623542661667,111.88516955474478L119.84049396931042,113.62485132082045L120.96845287297855,114.12695200715406L120.99312269104176,114.50614115649222L121.12606559949354,114.98286957725577L121.19596341733931,117.53866886809587L121.41662123446031,117.45447181279744L122.212908139723,118.7587728679998L122.2320957759944,119.48603194891729L122.60214304694262,118.98324620149683L122.96396704520312,118.75895513548076L123.07224013559168,117.9940504605358L123.23259395300258,118.18055484405201L123.98228231303476,117.808210068792L124.1440066758936,118.9497255193479L124.24816812993829,120.1797329945318L124.60313940095902,119.49996120968447L124.71415358224348,118.78481572569704L125.30622921576065,118.0406194994087L125.47891794220317,118.97235077000396L125.51455212385005,119.64563848698398L125.67353539581299,119.12828730780484L125.96134993988383,117.77560310313132L126.03124775772962,118.27108004961852L126.06139975758467,119.23181357763178L126.10662775736722,120.10887691639593L126.14089139356614,120.27177150582503L126.4972332100348,119.40867795755253L126.49997430093072,118.88452820753406L126.63976993662227,117.90779571694391L126.64388157296614,117.30402607429767L126.85494557195143,116.69846079171509L127.08108557086423,120.15853172380204L127.28666738805772,119.34838613453229L127.47306156897979,119.38927634222887L127.70605429513238,120.4085972430364L127.89656011239832,121.09655653985982L128.54893974562557,121.34263632120631L128.61335538167953,121.39239865013423L128.69558810855693,121.14854376757707L128.7271106538599,120.91139913879078L129.08756410667246,123.08131396141748L130.06613355651336,120.31284785942486L130.43618082746158,119.00884707044091L130.8446033709526,125.42064120582533L130.86927318901581,126.75875630653218L130.97891682485232,123.10037027256635L131.4736837315646,122.0543835344055L131.87114191147197,118.72191778824448L132.1630680918867,119.51336225274474L132.23296590973248,120.29457249412232L132.4303244542382,120.16780992360563L132.49474009029217,120.36983488520278L132.65509390770305,120.95598436701297L132.81407717966601,119.56968333191116L132.8236709978017,118.77493329704413L133.21427645046927,120.17304645801764L133.6692975391908,121.53638277584884L134.17776990038263,120.26523055851916L134.49847753520444,119.5707678962446L134.59852735290528,119.59743955290568L135.37562662189657,121.26921739366526L135.46882371235762,122.16768951665439L135.57435571185025,122.29455099686095L135.59354334812164,122.21267514837601L135.64699462059195,125.43140955549411L135.69085207492657,127.02766339142815L136.25688734493255,125.55567916206162L136.50221498011675,124.84879725229239L137.0202811594443,123.98530273530389L137.09703170452985,123.38901972684315L137.10251388632167,123.02555866048266L137.19159934043884,122.80690458612733L137.280684794556,122.96413446245485L137.58905752034622,126.1221905009871L137.6109862475135,128.50400499657468L137.80834479201923,127.80340295041742L137.8439789736661,127.1885750634326L137.89468915524048,126.64934760484192L138.41960806180782,126.55603718834507L138.44564842531898,126.55759083629005L138.58544406101055,124.4816363853292L138.94726805927104,123.480920884536L139.10213969489013,123.30460686746906L139.1501087855686,123.21826844652217L139.72984951005415,122.53171528416163L140.80435714125198,123.51988766728527L140.8509556864825,124.20147091805738L140.95922877687107,124.62383479748863L141.53211677411687,125.88839500766923L142.2105367708553,124.10847549364925L142.43119458797628,121.5316790263245L142.80672404071635,121.85999520169497L143.0972796756831,122.85915364518237L143.36042440169075,122.81245792003992L143.47692076476704,127.83119758510604L143.6578327638973,128.12772221428037L143.9346829443845,127.97088697315121L144.02925058029348,127.338305272693L144.13889421612998,127.20969517878524L144.60350912298722,128.21683071479674L144.64599603187386,127.74518116776086L144.69122403165645,127.42507776923895L144.84746621272348,127.15056306299779L144.93381057594473,126.46676135968596L145.2970051196532,126.96085083516809L146.3468429327878,124.1794662638498L146.4633392958641,123.15219021916018L146.65932729492187,124.20186448044718L147.18698729238508,125.64013555074479L147.2651083829186,121.7646122067162L147.5611461996772,120.74089796436682L147.7845451076941,122.0869350528263L148.2066731056647,125.13917829370662L148.94265601121728,126.21112304370624L149.13590291937913,126.54902227020563L149.74853673461567,126.23041734725642L149.86503309769196,126.14187157322272L149.88696182485927,126.19207581185279L150.41051018597864,124.2914068078845L150.43380945859388,123.6263378862634L150.7229945481127,125.50474820571412L150.807968365886,126.65561461067114L151.0848185463732,127.07232662700918L151.37674472678793,126.04787687925764L152.25937599527185,127.18194468394921L152.54170835755087,128.5158834051513L152.98576508268874,128.30787561029706L153.0131759916479,128.1091011535134L153.01728762799178,127.96187452345575L153.13378399106804,124.62813210894949L153.13789562741192,122.70110452895449L153.66555562487517,123.51686016540931L154.50021780268062,126.14907757492402L154.58107998411006,128.3481448324103L155.04432434551933,123.11521529957422L155.1772672539711,123.72233475695751L155.5171625250643,124.74579157685335L156.10649706768555,124.94658455284815L156.97679342713792,125.69555836923566L157.31668869823108,125.35562703205325L157.46333706116243,125.23343129878924L157.6908476055232,125.74598974307096L157.86490687741366,132.474638425778L158.0526716037837,133.53470393249535L158.12942214886925,132.7424526729112L158.17327960320387,131.47979692551917L158.27058833000876,130.7162048046065L158.79139560023222,129.99508002709422L158.91337414510033,129.17336383266775L158.94489669040334,130.08450120935166L159.395806142781,131.27056568408267L159.7165137776028,131.6214033287458L159.80559923171998,134.9936757363721L160.56762250078376,134.8036785881522L160.66356068214068,134.24827521328277L160.92396431725243,132.22928990444268L161.1706624978846,131.3044765729187L161.44477158747586,131.66693680888324L161.5544152233124,131.4993430428257L161.7051752225876,131.6205548798237L162.01491849382575,131.0310310330328L162.27806321983337,130.99977445005962L162.37400140119033,131.07890604015566L162.4411581281402,130.97092216864235L163.170288306453,129.53505299774292L163.78840430348134,128.40074560307505L163.93368212096476,127.88759641156828L163.93642321186064,127.5113120603283L164.3064704828089,128.22907779478038L165.24118247831518,132.2198745751354L165.2727050236182,134.4345212493891L165.49473338618714,135.96464696882575L165.64138174911844,130.32143758855003L165.7222439305479,126.97546710712163L165.8318875663844,126.46738261521455L165.93467847498115,126.44201439116924L166.04843374716154,126.33042835600804L166.15670683755005,126.55899028432782L166.29513192779365,126.90544953882306L166.4267042907975,127.12288807215947L166.51990138125853,127.75685333917448L167.10101265119204,130.60495508372733L167.1284235601512,132.2529362515412L167.62730210320734,132.02870115392673L167.90415228369454,130.71768499543253L167.94800973802913,130.1598806207752L168.02201919221878,130.11529030745885L168.14536828253486,130.79887614920608L168.41262464488636,131.13558961266392L168.455111553773,131.3697213894269L168.53049155341063,131.41472850889377L168.5784606440891,129.17082813572983L168.59216609856864,127.50346338756444L168.85942246092014,127.05127086011913L169.210282095597,127.97897116162648L169.28566209523458,128.69610152756175L169.8749966378559,130.02296941803377L170.32590609023356,130.84915413619473L170.40539772621503,130.9978517343623L170.91249954195888,131.3723146471362L171.07422390481776,131.9273140305666L171.15645663169514,132.17538508712798L171.17564426796653,132.23397345635183L171.19620244968587,132.18026802615964L171.2140195405093,132.10521075702266L171.44564172121395,122.34614885092779L171.9129977189671,126.113375814351L172.15421371780744,129.1212778559859L172.2803038990194,130.99849750112924L172.37898317127227,134.7194462281663L172.39817080754366,136.92473479807305L172.97654098658128,135.40502322771758L173.0546620771148,134.61474833307412L173.22323916721345,134.11289977205683L173.4644551660538,134.0546496324724L173.6015097108494,135.057727448054L174.20043807160638,134.8623156698223L175.10636861270558,133.6304163864825L175.2064184304064,132.80565033648855L176.04519224455575,131.78545821053922L176.23295697092578,133.17597315465952L177.1320347847852,132.76176479260207L177.13340533023313,132.52048886364543L177.21289696621463,131.97400749793073L177.4870060558059,130.98303273424355L177.9269511445999,130.58700227335345L178.2572525975574,133.42158915101734L178.43268241489585,132.4634712440295L178.4779104146784,132.72699390846452L178.74379623158197,133.5705887722468L178.97404786683862,133.86738205095963L179.02338750296505,134.15726430008394L179.0494278664762,134.33013848140803L179.18100022948005,129.00781032780503L179.80733949919616,130.1082914436136L179.86353186256235,130.47233542354653L179.98413986198253,130.83835657220715L180.28840095142886,133.275733311835L180.49809440496617,133.29031079336565L180.79550276717274,133.4758270269249L181.55615549078857,132.7409459150531L181.82204130769207,132.63069199114798L181.8754925801624,132.60279571356742L182.1482311243057,133.97986029809346L182.72386021244745,134.69647372470376L183.0897958470518,136.23080403050102L183.2981187551412,137.54361735476056L183.62567911720276,137.4814754134514L184.05328929696518,133.2071542320454L184.28217038677388,133.08549596442026L184.77693729348616,132.60786063496144L185.15520783712216,135.5206115825891L185.22784674586381,136.85880705831977L185.71713147078427,134.5190846384137L185.73357801615975,133.0102910349356L186.072102741805,134.4832807999004L186.22697437742406,135.4895946362879L186.44763219454506,135.98681510912834L186.57098128486115,136.05175582972362L187.01503800999902,135.675038015465L187.31655800854944,135.0821203759452L187.36863873557178,134.3866513440407L187.46731800782462,133.81641623933842L187.52076928029493,133.246429477506L187.7866550971985,133.09514036968L187.8058427334699,135.10795677648872L187.82914200608514,135.9053274530221L187.9771609144644,134.66648861928508L188.6350227294835,134.38373298308022L188.89542636459524,137.12447015005498L189.05440963655818,136.04008975332394L189.3559296351086,136.98490899243757L189.39567545309933,137.518811991485L190.02749690460726,133.9758176219771L190.37972708473205,133.33396960672144L190.4194729027228,132.97326675380432L190.50307617504814,133.06686507643687L190.9197219912269,136.91387766458504L191.14997362648356,137.25022519656568L191.84758125949338,136.26343664471403L193.51005288786456,135.3281555329443L193.5114234333125,134.76168194569289L193.70192925057844,133.62841104511665L193.74304561401715,134.00255733288452L193.79923797738334,135.1400189622256L194.39131361090054,134.51355569496766L194.44887651971467,134.14046520638044L194.8984154266444,133.83056485850108L195.46993287844225,133.71865258851898L195.4863794238177,133.58936662340088L195.63028669585313,133.85378584283097L196.08119614823082,133.28268058910123L196.82266123557525,133.30694592988112L196.8555543263262,133.40287355388938L196.90078232610875,133.46526562328313L197.49971068686574,130.53043342802783L197.59016668643085,129.2098383324032L197.62854195897364,128.9406785094486L198.08767468403906,131.897769472236L198.40015904617312,133.61543961928817L198.4193466824445,134.69652361052934L198.47965068215458,128.73812646756633L198.78802340794476,129.82193805207248L199.12654813359,130.67389920829126L200.70815758053175,133.47543469036526L201.04120012438514,134.9334496307203L201.38109539547835,130.17155448933113L201.45373430422,129.44476035824218L201.6031237580473,131.84743100339278L201.7854063026255,133.54969315729164L202.03758666504947,134.2315064780616L202.2130164823879,134.40377153382295L202.34321829994374,137.66358715950793L202.5460590262413,137.2719683440329L202.5899164805759,137.10763516195487L202.67351975290126,136.81446889249003L202.69818957096447,136.44724305074016L202.99422738772304,135.6931337045335L203.2573721137307,135.37439196595756L203.39990884031815,135.00216896818526L204.0084310192108,135.4584963929943L204.41137138091003,134.88395427172358L204.6471051979585,134.45369391148807L204.7677131973787,135.09648512763496L204.78415974275416,135.57579564516396L204.7951241063378,135.836574868772L204.89928556038248,135.91459854393952L204.9582190146446,135.67561173165421L205.47902628486807,136.3880482526254L205.6791259202697,137.5343372364074L206.54531064337817,136.10540592898712L206.85094227827244,134.90345165930037L207.62530045636785,136.22596532832424L207.64037645629537,137.16494133731723L207.8843335460316,138.1901374851667L207.95834300022125,138.41446077131354L208.15296045383107,139.27885307044266L209.2493968121962,135.19663128585887L209.57832771970575,134.99736121187823L209.9757858996131,134.81608429330333L210.12928698978422,134.20006474774414L210.41710153385512,135.7774625851118L210.51578080610798,137.0711222305272L210.87212262257665,138.19546950276225L211.0735928034262,140.0984805324889L211.57932407372215,139.485276646954L211.59714116454558,139.16230281716093L211.71363752762187,139.00965761453745L212.26596734314833,137.73788984189522L212.4112451606317,136.98032103773872L213.27742988374015,135.74563245936412L213.62966006386495,135.56003300713613L214.0915338798263,136.64223052798758L214.18884260663117,136.69655052138256L214.2957451515718,137.3405626101528L214.72746696767805,137.73876780651466L214.73431969491784,137.96347107953235L214.7548778766372,138.21110048872092L215.2071578744628,135.7692486332423L215.25101532879742,134.68494105873103L215.52101278204483,135.84335922389772L215.83623823507483,138.11382602211233L215.94999350725521,137.4744355027794L215.97603387076637,136.21832668213284L216.1172000519059,136.22029887425646L216.49958223188574,136.4212911568585L217.1547029560089,136.46164805072556L217.19307822855168,136.49313204635018L217.31094513707595,136.5161600322205L217.83312295274735,133.8525541092117L217.86327495260238,133.21462265177078L218.27032695064545,135.0199086429012L218.46905604059913,136.07447022556266L218.5321011312051,136.42501616219403L219.2530080368302,137.08964761761902L219.30782985474846,137.20434116028406L219.3187942183321,137.2805476171417L219.34894621818714,137.34685142439577L219.36265167266671,137.38481832102474L219.4668131267114,137.29599573316605L219.51341167194195,137.19838927233644L219.63264912591416,136.98377682731805L219.67513603480077,136.86720195291187L220.31518075899646,138.18155040337237L220.64274112105804,139.3169691503171L220.96207821043188,137.398294384138L221.8268923880924,139.427611428059L221.87623202421884,140.7718176782626L222.0091749326706,140.25714627783756L222.29698947674146,140.13093322387226L222.2983600221894,140.05429562052868L222.70815311112838,138.7558658517632L223.05764220035724,138.37016553774723L223.25088910851915,138.19490605101555L223.6538294702183,138.43658496087693L223.8676345600995,139.0208621311984L224.0636225591573,138.44135171342162L224.18148946768153,138.28362142609856L224.450116375481,138.73363280438087L224.48438001167992,138.95453692450556L224.6570687381224,138.44874420759956L224.75300691947936,138.0535894203193L225.079196736093,137.21071371183285L225.16005891752243,136.20831980747397L225.32315382582925,135.79627783945728L225.49310146137583,133.47696828026562L226.99384872688813,136.39272848635812L227.1144567263083,137.99551208289307L227.16790799877862,138.78815178067842L227.2241003621448,139.26517710859454L227.93815454053012,139.75947229545784L228.05739199450232,140.97959987099276L228.46444399254537,138.1557680576425L229.3827094426762,140.71622267192902L229.55402762367078,139.6568524118366L230.51066834634435,138.386916337547L230.64635234569204,138.3619813376655L230.8327465266141,137.4753392819053L230.9999530712648,136.49163822491533L231.07944470724627,136.2553558837135L231.17401234315525,136.48667150428963L231.17949452494707,136.62904595582373L231.31791961519068,136.03700282367905L231.43578652371494,134.5176107548204L232.22796179263372,135.93704551395263L232.38283342825284,133.04128499145054L232.55826324559123,134.06506663895226L232.57882142731057,134.87140531027592L232.83648397152643,136.0838145835852L232.9063817893722,136.59635895232694L233.0009494252812,136.66485675384814L233.006431607073,136.72095211595453L233.72870905814605,138.3598150386598L233.7547494216572,139.22230357643826L233.86439305749374,139.39374724200988L234.0315996021444,138.4973899738849L234.17550687417983,138.15354792186767L234.42083450936403,138.1224878419469L234.44002214563542,137.95535141653448L234.48936178176186,137.35034607791073L234.54555414512808,137.4566309867604L234.67438541723598,137.28374931778757L234.74154214418584,136.95084111748616L234.87448505263762,136.52790320824914L234.988240324818,136.41350989688056L235.1074777787902,136.61984906838958L235.13214759685343,136.7590480561991L235.31717123232752,135.18595345264785L236.45061231778752,136.89266246767497L236.78365486164094,137.79203679195507L237.8663857655265,138.21633233851787L237.9582123105396,138.22914322542795L238.04181558286496,138.58460736408125L238.53521194412923,138.46745204796366L239.18896212280447,138.4178966512346L239.38495012186223,138.9007051109797L240.10448648203936,139.49028226864718L240.21138902697996,138.32505585177253L240.64585193398216,138.6968907491423L240.83224611490422,139.41744115743074L240.85280429662356,139.83160921675866L241.63949738375055,139.0465603863547L241.75325265593094,138.32528591403312L242.1095944723996,138.39926781200575L242.34806938034407,137.85330283321764L242.44811919804488,137.22810411443263L242.6482188334465,137.93423313460997L242.67425919695768,138.46513474014853L242.76471519652281,138.8347267326099L242.9853730136438,139.53343870312548L243.11009264940782,142.30157404351266L243.17587883090974,142.81577826255688L243.44039410236533,143.99009118667544L243.69531555568523,143.78840997184759L243.85703991854407,141.18528018297897L243.91734391825415,139.87474003973534L243.95023700900512,138.71366924636519L244.0132820996111,139.0611031926166L244.9137304589185,136.1443299753004L245.1275355487997,134.7507300947354L245.30570645703403,134.9324210905049L245.5236231832591,136.2375269453981L245.88681772696754,137.5820811573645L246.0430599080346,138.4897151774843L246.39529008815938,139.39955409203662L246.97503081264497,140.44474306938457L247.04355808504278,140.83171846324993L247.27929190209127,141.0020600450178L247.33000208366568,140.93300372568777L247.66852680931092,139.6336059426697L248.0056809895082,139.37829445112519L248.28664280633927,138.98669771306686L248.32501807888207,138.8699143488791L248.56760462317035,138.61910731964804L249.3707442556728,138.69698392257968L249.4022668009758,138.82593407017427L249.63388898168043,138.69051745399344L249.6352595271284,138.61658303984785L249.72160389034966,138.053137820204L249.83398861708207,138.73622005154772L250.01078897986847,140.56564027700853L250.08891007040197,141.37568016138104L250.23829952422923,141.43231296784327L250.33560825103413,141.9487994450626L250.52063188650826,141.89096523095566L250.9852467933655,141.27760051868125L251.21549842862214,140.55967297748185L252.1200584242734,140.60690347071954L252.2804122416843,140.1643459771806L253.03284169261238,140.14674691698033L253.30283914585982,139.69450406316645L253.35766096377807,139.8295850280481L253.5262380538767,137.38337710623804L254.18547041434374,138.08641572462912L254.3691235043699,138.87870261740613L254.6473442303051,139.11257418118498L254.91734168355248,140.40536922105727L255.32987586338737,140.75008898541495L255.36139840869038,140.7757019454944L255.60809658932254,136.55855348030624L255.624543134698,134.51316817100317L256.1138278596184,136.4711282158259L256.21935985911114,137.90671771512473L256.4962100395983,135.81909660702385L256.6127064026746,135.80237094447665L256.7648369473978,137.60999562070202L256.8347347652435,138.4721708905966L257.17463003633674,139.21065840621617L257.7132543973836,141.71733163568604L257.90924239644136,142.84298301572895L258.1956863950643,142.86131149720572L258.4149736667373,142.39715473616053L258.64933693833785,139.91648736165592L258.8494365737395,138.64850491685772L258.864512573667,137.77678985960935L259.0413129364534,137.55337872952984L259.06872384541253,137.49387926589228L259.47577584345555,137.6161224738548L259.7923718419335,138.3119511401242L260.15008420385016,139.44825464005856L260.2295758398316,139.8941941957733L260.3529249301477,140.19984368354665L260.53246638383,140.2604309128405L260.6612976559379,140.11813995917805L261.0820551084605,140.27458583267736L262.06473619464526,140.88754623634406L262.6239187374115,139.57190554960312L262.6773700098818,139.1282756460765L262.6910754643614,138.93470905869304L263.4613220061129,140.55616518094578L263.71487291398483,141.57846558915682L264.4768961830486,141.01824129003182L264.64273218225134,141.32342877316043L264.7537463635358,141.35231223644575L264.7743045452551,141.1321505506603L264.9195823627385,140.72423092297424L265.1594278161309,139.66090129709607L265.2772947246552,140.5607820214411L265.5363278143189,139.93130165936648L266.45322271900176,141.91467265075119L266.7725598083756,141.4744646073121L267.14945980656364,145.41191965549018L267.40712235077945,144.8406804270508L267.48935507765685,143.86259272883447L267.63052125879636,143.39555154544678L267.77442853083176,143.20878814663166L268.01153289332825,143.37827721848404L268.73792198074517,142.57665117807136L268.995584524961,143.85929772481637L269.0147721612324,142.24517771684668L269.0353303429517,141.71735888684003L269.1312685243086,140.43242618462085L269.4259357956193,140.05096900799865L270.1139496104934,140.52410970430748L270.91434815209993,141.76042462087221L270.93627687926727,144.3207086398334L271.06236706047923,145.37880064073582L271.23505578692175,144.87962010286827L271.6311434213812,144.21509837578103L272.2739292364727,143.90303790823197L272.2821525091605,143.72460438876885L272.328751054391,143.6310454443706L272.5069219626253,144.1001470269624L272.57544923502314,144.4047510543374L272.96742523313867,144.78181811604549L273.00717105112943,145.3379354888675L273.366253958494,145.35712426166762L273.4334106854439,145.46320800938486L273.67051504794034,145.50117280654138L273.86924413789404,145.92280524571274L274.06249104605587,144.65404945120474L274.5408114073927,143.43015459098288L274.5819277708314,142.6710046064925L274.9053764965491,143.1062177777752L274.9368990418521,143.85738820233152L275.5467917661927,142.8323297892956L275.55227394798453,142.20522677502873L275.6276539476221,141.61375220582602L275.8455706738472,142.37289654990764L275.8866870372859,143.18100041205798L276.02922376387335,143.54676581712062L276.11419758164664,144.2600520629885L276.2101357630036,145.20708761063915L276.35130194414313,145.65285542910595L276.96941794117146,145.5481740994957L277.5381943020734,143.70110919292836L277.99458593624286,145.57529056367372L278.0685953904325,145.94671673787926L278.1439753900701,146.11339927810866L278.1508281173099,146.25080495850824L278.52772811549795,144.87730325833945L278.5921437515519,144.1632762165177L278.5948848424478,143.75175929865338L278.8868110228625,143.81673026629954L279.0403121130336,142.99950205165572L279.3308677480004,143.66930173328396L279.48299829272355,143.61797435901838L279.4967037472031,143.45454662130925L279.79548265485766,144.61955118002754L280.6123277418397,144.76077707578128L280.62603319631927,144.84379692643768L280.7219713776762,144.11283841015324L281.04130846705004,143.564725214589L281.8047022815618,141.02918497501486L282.3392150062648,141.0319432152852L282.6503288229509,142.6034308066162L282.6681459137743,144.1790919152711L282.95596045784515,144.2345954885239L283.0683451845776,144.40587540786805L283.275297547219,143.4695561377865L283.3136728197618,143.1633271326223L283.60011681838466,139.61461280141842L283.74950627221193,139.82023037577648L283.8262568172975,139.7376686544265L283.89478408969535,139.738281188201L283.90986008962284,139.7074589349471L284.5252349957553,139.4774832987267L284.6266553589041,139.5274507823481L284.9953320844043,139.49071888933832L285.0583771750103,139.1297464501447L285.1693913562948,138.85458869166152L285.5887782633695,141.19027994103192L286.7605946213722,141.41052949292597L286.7893760757793,141.77847607204976L286.798969893915,142.05739043134338L286.830492439218,142.5345929130897L286.88531425713626,143.0158380240128L287.2361738918131,143.15910897457735L287.4362735272147,140.42121724717285L287.71860588949374,140.9588501048997L287.72271752583765,141.19780151230313L288.11880516029703,140.85341880208807L288.27778843225997,140.8959127146027L288.42032515884745,140.88555411602215L288.9164626110077,141.70182175913808" fill="none"></path></g></g></g></g><g opacity="0.2"><g><g><g><path style="fill: none;" stroke="rgb(255, 112, 67)" stroke-width="2px" d="M32.832786751244285,-8.441635998127367L33.32755365795656,2.044679085906637L33.44130893013694,2.2983140915243894L33.567399111348934,-1.8674191450384114L34.22389038092006,-1.1827022536954246L34.44728928893696,7.70580161036105L34.73647437845577,4.215936807816433L35.2545405577833,25.415428128235362L35.506720920207286,16.11950057773288L35.62047619238767,15.499277723933346L35.90829073645852,14.760016116780662L36.59219291498878,15.10547983092647L36.60863946036425,15.204806880051365L36.80462745942202,18.266954703177362L36.95812854959315,16.255114610300097L37.217161639256915,19.09449317331223L37.63517800088362,16.105708616081074L37.63928963722749,16.34621633289771L38.098422362292894,27.444258920858374L38.14639145297137,30.555592534935386L38.465728542345225,29.116451187033363L38.621970723412254,27.713492967440743L38.67816308677847,25.637636570631457L39.0578041758624,43.97280332511082L39.071509630341964,41.73559759379668L39.578611446085844,30.8008152747866L39.65673253661936,29.397109298236956L40.102159807205204,21.569298677721235L40.387233260380135,26.090922683775034L40.50510016890439,30.0503788553317L40.70245871341012,29.944529703859416L41.66321107242758,29.9211207568992L41.77285470826409,29.02088369372018L41.831788162526216,28.365370865754358L42.35670706909353,42.329773580259825L42.44031034141888,40.440316376015744L42.514319795608515,39.002691313054356L43.21603906496221,41.57975258133661L43.26263761019273,42.6138381398232L43.42573251849955,45.71923124029718L43.814967425719175,43.53200059894425L43.821820152958956,43.59894561762462L44.08222378807068,44.625678232700466L44.254912514513194,40.333885635799106L45.05942269246361,40.510335506630554L45.27459832779277,39.717775445263214L45.3116030548876,40.973924048959816L46.04621541499225,51.34446143081436L46.077737960295245,50.24247538642453L47.001485592217875,61.220004478144574L47.51406958975358,57.75408866925136L47.666200134476746,57.34980140781954L47.79503140658465,48.95639573342032L48.61735867535852,52.44129626061135L49.01618740071383,48.609291108174375L49.4986193983945,49.97893260112619L50.51419357533021,57.51551265790704L50.800637573953104,57.86083097486676L50.84312448283976,60.24665340138972L51.14464448139017,59.49033878141154L51.17479648124522,59.64794933113126L51.45438775262833,58.98632982134973L51.47357538889972,58.75564680010734L52.69884301937277,52.94709152895939L53.68289465100548,62.21346190863278L54.17903210316572,63.90848153302363L54.328421556992964,64.33054879321139L54.453141192757,65.20953709619494L54.81496519101749,65.89705807612677L54.894456826998976,66.95889372612965L54.906791736030584,67.078971030812L55.156231007558645,66.50841170157491L55.1671953711423,66.43797715042842L55.26450409794721,67.09558785207923L55.42485791535811,67.21959088078597L55.5605419147058,65.59405034031874L55.6139931871761,60.69721851005079L55.889472822215346,62.78460282661422L55.89358445855921,62.69107089390627L55.99363427626003,63.49436957601756L56.302007002050225,64.61777054881554L56.38972191071944,65.45264119133458L56.5103299101396,52.007327202190936L56.629567364111814,65.47492850285926L57.354585906080764,67.59182844819861L57.89869244891947,67.26975290998644L58.01518881199577,68.55714113766544L58.05356408453855,68.29368143647343L59.12258953394456,68.89734978208548L59.13629498842413,68.75278343706054L59.19659898813421,68.65337330382931L59.325430260242115,59.54453038976931L59.428221168838846,62.62437512754491L59.51867716840397,64.91008120593278L59.67354880402304,67.43517336570176L59.851719712257385,70.3251709204992L59.86679571218491,70.34862140951259L59.894206621144036,70.36970400149539L60.50546989093261,66.80022385405414L60.69049352640672,70.06802561138875L60.693234617302636,70.30940571132192L60.74531534432498,70.12014011708811L61.15510843326395,70.27878921813704L61.30038625074734,58.207416324448104L61.58408915847431,72.19329628044147L62.021293156372415,73.32330243969318L62.210428428190404,70.72291530855705L62.78742806178006,76.22210690976226L62.83539715245854,75.91652356665782L62.936817515607316,76.29256223193534L63.46036587672668,68.2111996899082L64.13741532801714,78.60022328542254L64.1387858734651,75.42568343745029L64.6267000529376,76.80766292019302L65.1077615051703,89.13979528161804L65.24207495907004,82.83821892347123L65.2900440497485,79.57951487578043L65.54633604851635,81.16093775578315L65.67105568428039,81.45677948741968L66.38648040811366,80.77879240868992L66.53038768014908,83.72618030993908L67.11561058642647,70.95164585330053L67.15124476807334,71.0356438848064L67.24170076763846,68.59160027076837L67.4322065849044,76.1612685728976L67.51718040267771,76.79760974332635L67.80225385585265,79.86700665473018L67.99413021856655,85.04289722715475L68.29290912622105,83.56730272759773L68.53412512506138,84.06950460834673L68.56975930670825,83.82162317709276L68.76574730576601,83.4573616838884L68.97544075930335,81.72042612785094L69.17142875836112,79.57932793654118L69.36604621197094,82.15537142452081L69.49487748407884,83.30085199857763L69.51406512035024,83.33402332803234L70.45425929764833,82.55984562519188L70.50496947922272,83.51780537124796L71.1038978399797,85.0192805699287L71.18064838506525,86.95077833197888L71.55206620146144,83.75035778488291L71.86455056359551,88.85755857239405L72.01119892652684,90.345491061742L72.16881165304184,83.89409328884449L72.31271892507726,82.4663552345371L72.49363092420752,84.15580822380343L72.50459528779116,84.15190327080563L72.68550728692142,86.92090959575103L72.88697746777102,58.41385955766691L73.15286328467455,82.66276606191582L73.19123855721733,82.10068131152502L73.64900073683478,85.65755344582976L73.66544728221027,85.5985429593045L73.7147869183367,85.39043804395897L73.78879637252635,84.96965858741942L73.83950655410074,80.54218964487109L73.89021673567512,87.50794034906926L74.05879382577376,88.69334283622061L74.50559164180756,88.32403398355632L74.72899054982446,87.52501413292134L74.83041091297322,74.6456898471663L75.83639127177325,79.39623133720283L75.86517272618033,82.44386021274659L76.04197308896671,87.76845056448633L76.43669017797816,91.06483325440058L76.68612944950624,91.7927331100118L76.80125526713458,90.87494452936926L77.61261817232479,89.53841205279241L77.65373453576348,90.16256063061633L77.80175344414278,85.76562509714654L77.91550871632316,92.34501393585492L78.39794071400382,89.2035000201513L78.79128725756732,95.32576010579805L79.16818725575534,97.11030285476613L79.32168834592646,95.11894299410073L80.11523416029324,96.76650082274705L80.47842870400169,94.78263930267849L80.64289415775646,89.49203035043024L80.83614106591831,92.05218400307308L81.26786288202459,94.71268248514343L81.8243043338949,99.94959833367193L82.10800724162189,94.79279633467809L82.26013778634504,95.39887411937389L82.63840832998102,96.26778847446417L82.91799960136414,96.34732073525447L83.14139850938103,95.19978382956583L83.14688069117285,95.31826176520121L83.21951959991456,94.70395865397813L83.31956941761537,95.22483368762619L83.65809414326061,92.32490758212157L83.97469014173855,91.66166793226648L84.07062832309549,91.35595996300253L84.34199632179087,92.035110219221L85.15747086332495,91.7268681847138L85.59056322487918,89.99670398334274L85.61523304294239,91.05054278811076L85.90304758701323,95.05166563899502L87.05430576329665,96.59931482977208L87.22014176249938,95.75264624415331L87.31882103475223,103.66229470941016L87.35582576184706,102.33556615738098L87.36130794363889,101.17980392516506L87.44765230686014,99.57634298595667L87.70531485107594,100.79753395191233L87.81495848691247,100.41075666589086L87.98901775880293,98.50181623871094L87.99861157693863,98.33390325980554L88.0589155766487,98.27854847395906L88.13155448539041,99.13441862435457L88.8332737547441,96.56186466884105L89.03611448104165,95.86821623606693L89.59529702380787,102.18734411167725L89.780320659282,101.58515050895267L89.98727302192341,100.43458103338276L90.89183301757467,97.3637924631978L90.91376174474195,97.93279396544108L91.02203483513051,98.49608343537375L92.23907919291584,103.80332997991582L92.70095300887714,103.69748082844353L92.79277955389024,101.76583766920726L92.84623082636053,101.88830364194678L93.03536609817853,101.90838922465355L93.1244515522957,91.06250689942317L93.15597409759869,84.76288301777527L93.30125191508206,96.10980404626594L93.4451591871175,100.17083053781857L93.50820427772348,103.20616296562457L93.91251518487064,101.78536243419626L94.94042427083795,105.77169631415268L95.04869736122652,85.82284927538558L95.22138608766902,101.61630704882873L95.94640462963797,104.86526948505161L96.0149319020358,105.83216077253883L96.16432135586305,106.02254800220817L96.20543771930174,105.93454116257158L97.06065807882655,107.18242289768773L97.27994535049959,105.92866296204829L97.49237989493284,102.15670684746578L97.61984062159277,103.26490342880425L98.4024220723759,104.03397145910503L98.68064279831107,101.48866909046978L99.07947152366638,107.02570550211112L99.16307479599173,108.10608967885355L99.3782504313209,108.00285767673086L99.61398424836939,106.03609071154096L99.92098642871163,104.42662694564979L99.9662144284942,106.38365229937176L100.17590788203154,107.09840409515527L100.19646606375088,107.02815648324804L100.69123297046315,107.8080669894257L101.01742278707678,104.03536311788616L101.02701660521248,104.54788819884743L101.0324987870043,104.44212213148148L101.23122787695797,102.52815511586823L101.29153187666806,104.90257424879655L101.5889402388746,106.6534471636719L102.36741005331386,107.66688632173395L102.5263933252768,109.0687748334575L102.70456423351115,109.35348329484498L102.76623877866918,109.02184269889085L103.20070168567136,108.73403935454235L103.53511477497275,105.98503552819739L103.5460791385564,106.11788701422893L103.76810750112534,107.33243125167769L103.84074640986702,113.42027374627469L104.62332786065015,107.81616768979347L104.85632058680274,107.22953158598034L104.87550822307414,108.4143940264405L104.99474567704634,105.70959094466639L105.24007331223054,112.1064336162409L105.28530131201312,112.65338667376523L105.95001585427198,111.6438109266478L106.19534348945618,107.71229178584667L107.50558493770252,108.30204354364741L107.66456820966548,108.41449788157342L107.88796711768238,113.5538106761835L107.9249718447772,113.19352683456998L107.94827111739245,113.22438219456058L108.63491438681864,118.07307717072001L108.69933002287259,114.92368065042774L108.86516602207531,116.58780337277483L109.15023947525025,113.59020151475875L109.19135583868893,113.11499158305571L109.88896347169876,113.47538966531545L109.89718674438649,113.16298303997814L109.92733874424155,112.55580439087339L110.0506878345576,112.29688315899L110.29464492429386,113.83296288795975L111.29514310130206,111.27223803208585L111.39245182810696,111.8015772590669L111.6144801906759,105.45680755113858L111.94615218908136,111.39068481118136L112.57523254969337,110.93821915358785L112.68487618552987,111.07396819782787L113.09192818357295,113.46358133670242L113.13441509245959,113.32423890486336L113.58258345394134,109.24049929574107L113.78816527113482,110.77903000584774L114.05679217893427,110.5826503350089L114.45836199518551,117.4935759145385L114.67490817596261,108.6759220221602L114.94079399286618,110.44252898967295L115.43419035413048,116.1120741654072L115.8398718067256,116.25481266009274L116.06738235108637,113.58248507838277L116.34423253157357,110.43011830128899L116.83214671104605,111.49860067979876L116.8965623471,111.80420479392978L117.32006089051853,98.84802770981378L117.37762379933271,103.0266182118321L117.93406525120302,111.28557303115281L118.27533106774418,102.65323823795734L118.94552779179486,115.09804303308749L119.20456088145863,113.50549726834902L119.26623542661667,113.11585358065895L119.84049396931042,116.23437396993404L120.96845287297855,114.88010303665442L120.99312269104176,115.07492488049945L121.12606559949354,115.69796220840112L121.19596341733931,121.37236780435603L121.41662123446031,117.32817622984976L122.212908139723,120.71522445080336L122.2320957759944,120.57692057029351L122.60214304694262,118.22906758036618L122.96396704520312,118.42251853645666L123.07224013559168,116.84669344811834L123.23259395300258,118.46031141932633L123.98228231303476,117.24969290590195L124.1440066758936,120.66199869518175L124.24816812993829,122.02474420730766L124.60313940095902,118.48030353241347L124.71415358224348,117.71209749971592L125.30622921576065,116.9243251599762L125.47891794220317,120.36994767589681L125.51455212385005,120.65557006245399L125.67353539581299,118.35226053903614L125.96134993988383,115.74657679612108L126.03124775772962,119.01429546934935L126.06139975758467,120.67291386965167L126.10662775736722,121.4244719245421L126.14089139356614,120.51611338996872L126.4972332100348,118.11403763514375L126.49997430093072,118.09830358250633L126.63976993662227,116.4426969810587L126.64388157296614,116.39837161032835L126.85494557195143,115.79011286784123L127.08108557086423,125.34863812193248L127.28666738805772,118.13316775062765L127.47306156897979,119.45061165377376L127.70605429513238,121.93757859424773L127.89656011239832,122.12849548509496L128.54893974562557,121.711755993226L128.61335538167953,121.4670421435261L128.69558810855693,120.78276144374138L128.7271106538599,120.55568219561133L129.08756410667246,126.33618619535753L130.06613355651336,116.16014870643596L130.43618082746158,117.05284588696497L130.8446033709526,135.03833240890197L130.86927318901581,128.76592895759245L130.97891682485232,117.61279122161761L131.4736837315646,120.48540342716421L131.87114191147197,113.72321916900296L132.1630680918867,120.70052894949515L132.23296590973248,121.4663878561887L132.4303244542382,119.97766606783057L132.49474009029217,120.6728723275985L132.65509390770305,121.83520858972827L132.81407717966601,117.49023177925847L132.8236709978017,117.58280824474355L133.21427645046927,122.27021619947789L133.6692975391908,123.58138725259562L134.17776990038263,118.35850223252464L134.49847753520444,118.5290739028328L134.59852735290528,119.63744703789723L135.37562662189657,123.77688415480463L135.46882371235762,123.51539770113811L135.57435571185025,122.4848432171708L135.59354334812164,122.08986137564864L135.64699462059195,130.25951116617125L135.69085207492657,129.4220441453292L136.25688734493255,123.34770281801184L136.50221498011675,123.78847438763853L137.0202811594443,122.69006095982115L137.09703170452985,122.49459521415201L137.10251388632167,122.48036706094194L137.19159934043884,122.47892347459435L137.280684794556,123.19997927694612L137.58905752034622,130.8592745587855L137.6109862475135,132.07672673995603L137.80834479201923,126.7524998811815L137.8439789736661,126.26633323295539L137.89468915524048,125.84050641695592L138.41960806180782,126.41607156359976L138.44564842531898,126.55992130820755L138.58544406101055,121.36770470888791L138.94726805927104,121.97984763334625L139.10213969489013,123.04013584186862L139.1501087855686,123.08876081510186L139.72984951005415,121.50188554062083L140.80435714125198,125.00214624197076L140.8509556864825,125.22384579421555L140.95922877687107,125.25738061663549L141.53211677411687,127.78523532294014L142.2105367708553,121.43859622261925L142.43119458797628,117.66648432533736L142.80672404071635,122.3524694647507L143.0972796756831,124.35789131041349L143.36042440169075,122.74241433232623L143.47692076476704,135.3593070827052L143.6578327638973,128.57250915804184L143.9346829443845,127.73563411145744L144.02925058029348,126.38943272200572L144.13889421612998,127.01678003792358L144.60350912298722,129.72753401881403L144.64599603187386,127.037706847207L144.69122403165645,126.94492267145608L144.84746621272348,126.73879100363604L144.93381057594473,125.44105880471818L145.2970051196532,127.7019850483913L146.3468429327878,120.00738940687233L146.4633392958641,121.6112761521257L146.65932729492187,125.77637587237768L147.18698729238508,127.79754215619118L147.2651083829186,115.95132719067328L147.5611461996772,119.2053266008428L147.7845451076941,124.10599068551551L148.2066731056647,129.7175431550271L148.94265601121728,127.81904016870567L149.13590291937913,127.05587110995475L149.74853673461567,125.75250996283262L149.86503309769196,126.00905291217214L149.88696182485927,126.26738216979788L150.41051018597864,121.44040330193207L150.43380945859388,122.62873450383177L150.7229945481127,128.3223636848902L150.807968365886,128.38191421810666L151.0848185463732,127.69739465151622L151.37674472678793,124.51120225763032L152.25937599527185,128.88304639098658L152.54170835755087,130.5167914869545L152.98576508268874,127.99586391801563L153.0131759916479,127.81093946833789L153.01728762799178,127.7410345783693L153.13378399106804,119.62751848719006L153.13789562741192,119.81056315896194L153.66555562487517,124.74049362009157L154.50021780268062,130.09740368919608L154.58107998411006,131.64674571863975L155.04432434551933,115.2658210003201L155.1772672539711,124.63301394303244L155.5171625250643,126.28097680669714L156.10649706768555,125.24777401684037L156.97679342713792,126.8190190938169L157.31668869823108,124.84573002627963L157.46333706116243,125.0501376988932L157.6908476055232,126.51482740949359L157.86490687741366,142.56761144983852L158.0526716037837,135.12480219257134L158.12942214886925,131.55407578353504L158.17327960320387,129.5858133044311L158.27058833000876,129.57081662323742L158.79139560023222,128.91339286082587L158.91337414510033,127.94078954102804L158.94489669040334,131.45120727437757L159.395806142781,133.0496623961792L159.7165137776028,132.14765979574054L159.80559923171998,140.0520843478115L160.56762250078376,134.51868286582237L160.66356068214068,133.4151701509786L160.92396431725243,129.20081194118256L161.1706624978846,129.91725657563268L161.44477158747586,132.21062716283006L161.5544152233124,131.2479523937394L161.7051752225876,131.8023726353207L162.01491849382575,130.14674526284648L162.27806321983337,130.95288957559978L162.37400140119033,131.1976034252997L162.4411581281402,130.80894636137236L163.170288306453,127.38124924139379L163.78840430348134,126.69928451107319L163.93368212096476,127.11787262430812L163.93642321186064,126.94688553346828L164.3064704828089,129.30572639645857L165.24118247831518,138.20606974566795L165.2727050236182,137.75649126076962L165.49473338618714,138.25983554798074L165.64138174911844,121.85662351813642L165.7222439305479,121.95651138497908L165.8318875663844,125.70525587735392L165.93467847498115,126.40396205510126L166.04843374716154,126.16304930326623L166.15670683755005,126.90183317680749L166.29513192779365,127.42513842056587L166.4267042907975,127.4490458721641L166.51990138125853,128.707801239697L167.10101265119204,134.87710770055662L167.1284235601512,134.72490800326204L167.62730210320734,131.69234850750502L167.90415228369454,128.7511607576912L167.94800973802913,129.32317405878916L168.02201919221878,130.04840483748433L168.14536828253486,131.82425491182698L168.41262464488636,131.64065980785062L168.455111553773,131.72091905457137L168.53049155341063,131.48223918809413L168.5784606440891,125.80497757598391L168.59216609856864,125.00241626531636L168.85942246092014,126.37298206895116L169.210282095597,129.3705216138875L169.28566209523458,129.77179707646462L169.8749966378559,132.01327125374178L170.32590609023356,132.08843121343614L170.40539772621503,131.2208981316137L170.91249954195888,131.93400901629707L171.07422390481776,132.75981310571217L171.15645663169514,132.54749167197008L171.17564426796653,132.32185601018762L171.19620244968587,132.09970988087127L171.2140195405093,131.99262485331724L171.44564172121395,107.70755599178551L171.9129977189671,131.7642162594858L172.15421371780744,133.63313091843827L172.2803038990194,133.81432696884417L172.37898317127227,140.30086931872188L172.39817080754366,140.23266765293317L172.97654098658128,133.12545587218438L173.0546620771148,133.42933599110893L173.22323916721345,133.3601269305309L173.4644551660538,133.96727442309577L173.6015097108494,136.5623441714264L174.20043807160638,134.56919800247476L175.10636861270558,131.7825674614728L175.2064184304064,131.56850126149766L176.04519224455575,130.25517002161519L176.23295697092578,135.26174557083993L177.1320347847852,132.14045224951587L177.13340533023313,132.15857497021045L177.21289696621463,131.15428544935867L177.4870060558059,129.49657058871276L177.9269511445999,129.99295658201822L178.2572525975574,137.6734694675132L178.43268241489585,131.0262943835478L178.4779104146784,133.12227790511702L178.74379623158197,134.83598106792022L178.97404786683862,134.3125719690289L179.02338750296505,134.59208767377038L179.0494278664762,134.5894497533942L179.18100022948005,121.02431809740051L179.80733949919616,131.7590131173265L179.86353186256235,131.01840139344586L179.98413986198253,131.3873882951981L180.28840095142886,136.93179842127677L180.49809440496617,133.31217701566163L180.79550276717274,133.75410137726374L181.55615549078857,131.6386242472454L181.82204130769207,132.4653111052903L181.8754925801624,132.56095129719654L182.1482311243057,136.04545717488247L182.72386021244745,135.7713938646193L183.0897958470518,138.53229948919693L183.2981187551412,139.51283734114986L183.62567911720276,137.3882625014877L184.05328929696518,126.79567245993644L184.28217038677388,132.90300856298256L184.77693729348616,131.8914076407732L185.15520783712216,139.88973800403062L185.22784674586381,138.8661002719158L185.71713147078427,131.0095010085546L185.73357801615975,130.74710062971837L186.072102741805,136.6927654473476L186.22697437742406,136.9990653908692L186.44763219454506,136.73264581838896L186.57098128486115,136.1491669106166L187.01503800999902,135.10996129407704L187.31655800854944,134.19274391666556L187.36863873557178,133.3434477961839L187.46731800782462,132.96106358228496L187.52076928029493,132.39144933475745L187.7866550971985,132.868206707941L187.8058427334699,138.12718138670175L187.82914200608514,137.1013834678222L187.9771609144644,132.80823036867957L188.6350227294835,133.95959952877297L188.89542636459524,141.23557590051712L189.05440963655818,134.41351915822736L189.3559296351086,138.40213785110802L189.39567545309933,138.31966649005608L190.02749690460726,128.6613260677152L190.37972708473205,132.371197583838L190.4194729027228,132.43221247442864L190.50307617504814,133.20726256038563L190.9197219912269,142.6843965468073L191.14997362648356,137.75474649453656L191.84758125949338,134.78325381693662L193.51005288786456,133.92523386528967L193.5114234333125,133.91197156481576L193.70192925057844,131.9285046942523L193.74304561401715,134.56377676453633L193.79923797738334,136.84621140623722L194.39131361090054,133.5738607940807L194.44887651971467,133.58082947349965L194.8984154266444,133.365714336682L195.46993287844225,133.55078418354583L195.4863794238177,133.39543767572377L195.63028669585313,134.25041467197616L196.08119614823082,132.4260227085066L196.82266123557525,133.343343941051L196.8555543263262,133.54676498990182L196.90078232610875,133.55885372737373L197.49971068686574,126.12818513514492L197.59016668643085,127.22894568896629L197.62854195897364,128.53693877501667L198.08767468403906,136.33340591641706L198.40015904617312,136.19194483986644L198.4193466824445,136.31814959739108L198.47965068215458,119.80053075312185L198.78802340794476,131.4476554288317L199.12654813359,131.95184094261947L200.70815758053175,137.67773791347622L201.04120012438514,137.12047204125292L201.38109539547835,123.0287117772474L201.45373430422,128.35456916160877L201.6031237580473,135.4514369711187L201.7854063026255,136.1030863881399L202.03758666504947,135.2542264592165L202.2130164823879,134.66216911746494L202.34321829994374,142.5533105980354L202.5460590262413,136.68454012082032L202.5899164805759,136.86113538883785L202.67351975290126,136.37471948829273L202.69818957096447,135.89640428811538L202.99422738772304,134.56196968522352L203.2573721137307,134.8962793580937L203.39990884031815,134.44383447152677L204.0084310192108,136.14298753020785L204.41137138091003,134.02214108981752L204.6471051979585,133.8083033711348L204.7677131973787,136.06067195185528L204.78415974275416,136.29476142145745L204.7951241063378,136.22774370418404L204.89928556038248,136.0316340566908L204.9582190146446,135.3171315132263L205.47902628486807,137.45670303408212L205.6791259202697,139.25377071208038L206.54531064337817,133.96200896785672L206.85094227827244,133.10052025477023L207.62530045636785,138.20973583186003L207.64037645629537,138.57340535080675L207.8843335460316,139.72793170694092L207.95834300022125,138.75094570053386L208.15296045383107,140.57544151913635L209.2493968121962,129.07329860898312L209.57832771970575,134.69845610090726L209.9757858996131,134.544168915441L210.12928698978422,133.2760354294054L210.41710153385512,138.14355934116327L210.51578080610798,139.0116116986503L210.87212262257665,139.88199041111477L211.0735928034262,142.95299707707886L211.57932407372215,138.56547081865165L211.59714116454558,138.67784207247132L211.71363752762187,138.7806898106022L212.26596734314833,135.8302381829319L212.4112451606317,135.84396783150396L213.27742988374015,133.89359959180217L213.62966006386495,135.28163382879416L214.0915338798263,138.26552680926477L214.18884260663117,136.7780305114751L214.2957451515718,138.30658074330813L214.72746696767805,138.33607560105747L214.73431969491784,138.30052598905888L214.7548778766372,138.58254460250373L215.2071578744628,132.10647085002438L215.25101532879742,133.05847969696413L215.52101278204483,137.58098647164775L215.83623823507483,141.51952621943428L215.94999350725521,136.51534972378L215.97603387076637,134.33416345116302L216.1172000519059,136.22325716244188L216.49958223188574,136.72277958076154L217.1547029560089,136.52218339152614L217.19307822855168,136.54035803978718L217.31094513707595,136.55070201102603L217.83312295274735,129.85714522469846L217.86327495260238,132.25772546560938L218.27032695064545,137.72783762959693L218.46905604059913,137.65631259955478L218.5321011312051,136.95083506714104L219.2530080368302,138.08659480075653L219.30782985474846,137.37638147428163L219.3187942183321,137.39485730242814L219.34894621818714,137.4463071352768L219.36265167266671,137.4417686659682L219.4668131267114,137.16276185137804L219.51341167194195,137.05197958109204L219.63264912591416,136.66185815979054L219.67513603480077,136.69233964130262L220.31518075899646,140.15307307906312L220.64274112105804,141.02009727073425L220.96207821043188,134.52028223486934L221.8268923880924,142.4715869939405L221.87623202421884,142.78812705356802L222.0091749326706,139.48513917720004L222.29698947674146,139.94161364292427L222.2983600221894,139.93933921551331L222.70815311112838,136.808221198615L223.05764220035724,137.79161506672324L223.25088910851915,137.93201682091808L223.6538294702183,138.79910332566897L223.8676345600995,139.89727788668063L224.0636225591573,137.57208608675649L224.18148946768153,138.04702599511393L224.450116375481,139.4086498718043L224.48438001167992,139.2858931046926L224.6570687381224,137.69005513224056L224.75300691947936,137.46085723939893L225.079196736093,135.94640014910317L225.16005891752243,134.70472895093565L225.32315382582925,135.1782148874322L225.49310146137583,129.99800394147815L226.99384872688813,140.76636879549687L227.1144567263083,140.39968747769547L227.16790799877862,139.9771113273564L227.2241003621448,139.98071510046873L227.93815454053012,140.5009150757528L228.05739199450232,142.80979123429518L228.46444399254537,133.92002033761707L229.3827094426762,144.5569045933588L229.55402762367078,138.06779702169797L230.51066834634435,136.4820122261126L230.64635234569204,138.3245788378432L230.8327465266141,136.145376198265L230.9999530712648,135.01608663943045L231.07944470724627,135.9009323719107L231.17401234315525,136.83364493515387L231.17949452494707,136.84260763312489L231.31791961519068,135.148938125462L231.43578652371494,132.23852265153243L232.22796179263372,138.066197652651L232.38283342825284,128.6976442076974L232.55826324559123,135.6007391102048L232.57882142731057,136.08091331726143L232.83648397152643,137.9024284935491L232.9063817893722,137.36517550543954L233.0009494252812,136.7676034561299L233.006431607073,136.8050951591141L233.72870905814605,140.81810942271773L233.7547494216572,140.51603638310598L233.86439305749374,139.6509127403673L234.0315996021444,137.15285407169745L234.17550687417983,137.6377848438418L234.42083450936403,138.07589772206575L234.44002214563542,137.70464677841585L234.48936178176186,136.4428380699751L234.54555414512808,137.6160583500349L234.67438541723598,137.0244268143283L234.74154214418584,136.45147881703406L234.87448505263762,135.8934963443936L234.988240324818,136.24191992982765L235.1074777787902,136.92935782565314L235.13214759685343,136.96784653791337L235.31717123232752,132.82631154732098L236.45061231778752,139.45272599021564L236.78365486164094,139.14109827837524L237.8663857655265,138.85277565836213L237.9582123105396,138.24835955579306L238.04181558286496,139.11780357206123L238.53521194412923,138.29171907378725L239.18896212280447,138.34356355614102L239.38495012186223,139.62491780059736L240.10448648203936,140.3746480051484L240.21138902697996,136.57721622646056L240.64585193398216,139.2546430951969L240.83224611490422,140.49826676986333L240.85280429662356,140.45286130575062L241.63949738375055,137.8689871407488L241.75325265593094,137.2433742055507L242.1095944723996,138.51024065896468L242.34806938034407,137.03435536503548L242.44811919804488,136.29030603625517L242.6482188334465,138.99342666487598L242.67425919695768,139.26148714845635L242.76471519652281,139.389114721302L242.9853730136438,140.5815066588989L243.11009264940782,146.4537770540934L243.17587883090974,143.58708459112324L243.44039410236533,145.75156057285335L243.69531555568523,143.48588814960578L243.85703991854407,137.28058549967602L243.91734391825415,137.90892982486992L243.95023700900512,136.97206305630993L244.0132820996111,139.58225411199373L244.9137304589185,131.7691701493261L245.1275355487997,132.6603302738879L245.30570645703403,135.20495758415916L245.5236231832591,138.1951857277379L245.88681772696754,139.59891247531414L246.0430599080346,139.85116620766405L246.39529008815938,140.76431246386505L246.97503081264497,142.01252653540655L247.04355808504278,141.41218155404795L247.27929190209127,141.25757241766962L247.33000208366568,140.82941924669274L247.66852680931092,137.68450926814262L248.0056809895082,138.99532721380842L248.28664280633927,138.3993026059793L248.32501807888207,138.69473930259744L248.56760462317035,138.24289677580146L249.3707442556728,138.81379882697718L249.4022668009758,139.01935929156616L249.63388898168043,138.48739252972223L249.6352595271284,138.50568141862948L249.72160389034966,137.2079699907382L249.83398861708207,139.76084339856334L250.01078897986847,143.30977061519968L250.08891007040197,142.59073998793986L250.23829952422923,141.51726217753662L250.33560825103413,142.72352916089164L250.52063188650826,141.80421390979518L250.9852467933655,140.35755345026973L251.21549842862214,139.48278166568275L252.1200584242734,140.67774921057605L252.2804122416843,139.50050973687223L253.03284169261238,140.12034832667996L253.30283914585982,139.01613978244563L253.35766096377807,140.03220647537057L253.5262380538767,133.714065223523L254.18547041434374,139.14097365221573L254.3691235043699,140.06713295657164L254.6473442303051,139.46338152685325L254.91734168355248,142.34456178086577L255.32987586338737,141.26716863195145L255.36139840869038,140.8141213856136L255.60809658932254,130.23283078252405L255.624543134698,131.44509020704857L256.1138278596184,139.40806828305995L256.21935985911114,140.06010196407294L256.4962100395983,132.6876649448725L256.6127064026746,135.7772824506559L256.7648369473978,140.32143263504008L256.8347347652435,139.7654337954384L257.17463003633674,140.31838967964552L257.7132543973836,145.4773414798908L257.90924239644136,144.53146008579336L258.1956863950643,142.88880421942088L258.4149736667373,141.70091959459273L258.64933693833785,136.19548629989902L258.8494365737395,136.7465312496604L258.864512573667,136.46921727373683L259.0413129364534,137.2182620344106L259.06872384541253,137.40463007043593L259.47577584345555,137.7994872857986L259.7923718419335,139.35569413952828L260.15008420385016,141.15270988996008L260.2295758398316,140.56310352934543L260.3529249301477,140.65831791520668L260.53246638383,140.35131175678123L260.6612976559379,139.90470352868442L261.0820551084605,140.5092546429263L262.06473619464526,141.80698684184415L262.6239187374115,137.59844451949164L262.6773700098818,138.4628307907866L262.6910754643614,138.64435917761784L263.4613220061129,142.9883493643249L263.71487291398483,143.11191620147338L264.4768961830486,140.17790484134434L264.64273218225134,141.78120999785335L264.7537463635358,141.39563743137376L264.7743045452551,140.80190802198217L264.9195823627385,140.1123514814451L265.1594278161309,138.06590685827882L265.2772947246552,141.91060310795865L265.5363278143189,138.98708111625456L266.45322271900176,144.88972913782823L266.7725598083756,140.81415254215347L267.14945980656364,151.31810222775732L267.40712235077945,143.98382158439176L267.48935507765685,142.39546118150997L267.63052125879636,142.69498977036517L267.77442853083176,142.92864304840907L268.01153289332825,143.63251082626255L268.73792198074517,141.37421211745232L268.995584524961,145.7832675449339L269.0147721612324,139.82399770489212L269.0353303429517,140.92563064183003L269.1312685243086,138.50502713129208L269.4259357956193,139.47878324306532L270.1139496104934,141.23382074877077L270.91434815209993,143.61489699571928L270.93627687926727,148.16113466827517L271.06236706047923,146.96593864208944L271.23505578692175,144.1308492960669L271.6311434213812,143.21831578515014L272.2739292364727,143.43494720690842L272.2821525091605,143.4569541095742L272.328751054391,143.49070702777328L272.5069219626253,144.80379940085004L272.57544923502314,144.8616570953999L272.96742523313867,145.34741870860762L273.00717105112943,146.17211154810047L273.366253958494,145.38590742086785L273.4334106854439,145.62233363096072L273.67051504794034,145.55812000227615L273.86924413789404,146.55525390446974L274.06249104605587,142.7509157594427L274.5408114073927,141.59431230065013L274.5819277708314,141.53227962975689L274.9053764965491,143.75903753469925L274.9368990418521,144.984143839166L275.5467917661927,141.29474216974177L275.55227394798453,141.26457225362844L275.6276539476221,140.72654035202197L275.8455706738472,143.51161306603012L275.8866870372859,144.3931562052835L276.02922376387335,144.09541392471453L276.11419758164664,145.32998143179032L276.2101357630036,146.62764093211513L276.35130194414313,146.3215071568062L276.96941794117146,145.39115210508032L277.5381943020734,140.93051183307728L277.99458593624286,148.3865626197918L278.0685953904325,146.50385599918752L278.1439753900701,146.3634230884528L278.1508281173099,146.45691347910758L278.52772811549795,142.8170507080863L278.5921437515519,143.092235653785L278.5948848424478,143.13448392185694L278.8868110228625,143.91418671776876L279.0403121130336,141.77365972969005L279.3308677480004,144.67400125572635L279.48299829272355,143.54098329761996L279.4967037472031,143.20940501474558L279.79548265485766,146.367058018105L280.6123277418397,144.97261591941185L280.62603319631927,144.96832670242225L280.7219713776762,143.01640063572665L281.04130846705004,142.74255542124263L281.8047022815618,137.22587461565365L282.3392150062648,141.03608057569068L282.6503288229509,144.96066219361273L282.6681459137743,146.54258357825347L282.95596045784515,144.31785084840305L283.0683451845776,144.66279528688426L283.275297547219,142.06507723266418L283.3136728197618,142.70398362487606L283.60011681838466,134.29154130461256L283.74950627221193,140.12865673731358L283.8262568172975,139.61382607240148L283.89478408969535,139.73919998886277L283.90986008962284,139.66122555506627L284.5252349957553,139.13251984439603L284.6266553589041,139.60240200778026L284.9953320844043,139.43562104982368L285.0583771750103,138.58828779135422L285.1693913562948,138.4418520539367L285.5887782633695,144.69381681508753L286.7605946213722,141.74090382076702L286.7893760757793,142.33039594073546L286.798969893915,142.47576197028388L286.830492439218,143.2503966357092L286.88531425713626,143.73770569039743L287.2361738918131,143.37401540042413L287.4362735272147,136.31437965606608L287.71860588949374,141.76529939148998L287.72271752583765,141.5562286234083L288.11880516029703,140.33684473676544L288.27778843225997,140.9596535833747L288.42032515884745,140.87001621815125L288.9164626110077,142.92622322381203" fill="none"></path></g></g></g></g></g></g><g transform="translate(28, 174)" clip-path="url(#clip_1)"><clipPath id="clip_1"><rect width="301" height="25"></rect></clipPath><g><g><line x1="0" y1="0" x2="0" y2="5" style="visibility: inherit;" fill="rgb(0, 0, 0)" stroke="rgb(204, 204, 204)" stroke-width="1px"></line><line x1="27.41090895912864" y1="0" x2="27.41090895912864" y2="5" style="visibility: inherit;" fill="rgb(0, 0, 0)" stroke="rgb(204, 204, 204)" stroke-width="1px"></line><line x1="54.82181791825728" y1="0" x2="54.82181791825728" y2="5" style="visibility: inherit;" fill="rgb(0, 0, 0)" stroke="rgb(204, 204, 204)" stroke-width="1px"></line><line x1="82.23272687738591" y1="0" x2="82.23272687738591" y2="5" style="visibility: inherit;" fill="rgb(0, 0, 0)" stroke="rgb(204, 204, 204)" stroke-width="1px"></line><line x1="109.64363583651456" y1="0" x2="109.64363583651456" y2="5" style="visibility: inherit;" fill="rgb(0, 0, 0)" stroke="rgb(204, 204, 204)" stroke-width="1px"></line><line x1="137.05454479564318" y1="0" x2="137.05454479564318" y2="5" style="visibility: inherit;" fill="rgb(0, 0, 0)" stroke="rgb(204, 204, 204)" stroke-width="1px"></line><line x1="164.46545375477183" y1="0" x2="164.46545375477183" y2="5" style="visibility: inherit;" fill="rgb(0, 0, 0)" stroke="rgb(204, 204, 204)" stroke-width="1px"></line><line x1="191.87636271390048" y1="0" x2="191.87636271390048" y2="5" style="visibility: inherit;" fill="rgb(0, 0, 0)" stroke="rgb(204, 204, 204)" stroke-width="1px"></line><line x1="219.28727167302912" y1="0" x2="219.28727167302912" y2="5" style="visibility: inherit;" fill="rgb(0, 0, 0)" stroke="rgb(204, 204, 204)" stroke-width="1px"></line><line x1="246.69818063215777" y1="0" x2="246.69818063215777" y2="5" style="visibility: inherit;" fill="rgb(0, 0, 0)" stroke="rgb(204, 204, 204)" stroke-width="1px"></line><line x1="274.10908959128636" y1="0" x2="274.10908959128636" y2="5" style="visibility: inherit;" fill="rgb(0, 0, 0)" stroke="rgb(204, 204, 204)" stroke-width="1px"></line><line x1="301.51999855041504" y1="0" x2="301.51999855041504" y2="5" style="visibility: inherit;" fill="rgb(0, 0, 0)" stroke="rgb(204, 204, 204)" stroke-width="1px"></line></g><g transform="translate(0, 8)"><text style="text-anchor: middle; visibility: hidden; font-family: &quot;Helvetica Neue&quot;, sans-serif; font-size: 12px; font-weight: 200;" x="0" y="0" dx="0em" dy="0.95em" fill="rgb(50, 49, 63)" stroke="none" stroke-width="1px">-20k</text><text style="text-anchor: middle; visibility: inherit; font-family: &quot;Helvetica Neue&quot;, sans-serif; font-size: 12px; font-weight: 200;" x="27.41090895912864" y="0" dx="0em" dy="0.95em" fill="rgb(50, 49, 63)" stroke="none" stroke-width="1px">0</text><text style="text-anchor: middle; visibility: hidden; font-family: &quot;Helvetica Neue&quot;, sans-serif; font-size: 12px; font-weight: 200;" x="54.82181791825728" y="0" dx="0em" dy="0.95em" fill="rgb(50, 49, 63)" stroke="none" stroke-width="1px">20k</text><text style="text-anchor: middle; visibility: inherit; font-family: &quot;Helvetica Neue&quot;, sans-serif; font-size: 12px; font-weight: 200;" x="82.23272687738591" y="0" dx="0em" dy="0.95em" fill="rgb(50, 49, 63)" stroke="none" stroke-width="1px">40k</text><text style="text-anchor: middle; visibility: hidden; font-family: &quot;Helvetica Neue&quot;, sans-serif; font-size: 12px; font-weight: 200;" x="109.64363583651456" y="0" dx="0em" dy="0.95em" fill="rgb(50, 49, 63)" stroke="none" stroke-width="1px">60k</text><text style="text-anchor: middle; visibility: inherit; font-family: &quot;Helvetica Neue&quot;, sans-serif; font-size: 12px; font-weight: 200;" x="137.05454479564318" y="0" dx="0em" dy="0.95em" fill="rgb(50, 49, 63)" stroke="none" stroke-width="1px">80k</text><text style="text-anchor: middle; visibility: hidden; font-family: &quot;Helvetica Neue&quot;, sans-serif; font-size: 12px; font-weight: 200;" x="164.46545375477183" y="0" dx="0em" dy="0.95em" fill="rgb(50, 49, 63)" stroke="none" stroke-width="1px">100k</text><text style="text-anchor: middle; visibility: inherit; font-family: &quot;Helvetica Neue&quot;, sans-serif; font-size: 12px; font-weight: 200;" x="191.87636271390048" y="0" dx="0em" dy="0.95em" fill="rgb(50, 49, 63)" stroke="none" stroke-width="1px">120k</text><text style="text-anchor: middle; visibility: hidden; font-family: &quot;Helvetica Neue&quot;, sans-serif; font-size: 12px; font-weight: 200;" x="219.28727167302912" y="0" dx="0em" dy="0.95em" fill="rgb(50, 49, 63)" stroke="none" stroke-width="1px">140k</text><text style="text-anchor: middle; visibility: inherit; font-family: &quot;Helvetica Neue&quot;, sans-serif; font-size: 12px; font-weight: 200;" x="246.69818063215777" y="0" dx="0em" dy="0.95em" fill="rgb(50, 49, 63)" stroke="none" stroke-width="1px">160k</text><text style="text-anchor: middle; visibility: hidden; font-family: &quot;Helvetica Neue&quot;, sans-serif; font-size: 12px; font-weight: 200;" x="274.10908959128636" y="0" dx="0em" dy="0.95em" fill="rgb(50, 49, 63)" stroke="none" stroke-width="1px">180k</text><text style="text-anchor: middle; visibility: hidden; font-family: &quot;Helvetica Neue&quot;, sans-serif; font-size: 12px; font-weight: 200;" x="301.51999855041504" y="0" dx="0em" dy="0.95em" fill="rgb(50, 49, 63)" stroke="none" stroke-width="1px">200k</text></g><line x1="0" y1="0" x2="301.51999855041504" y2="0" fill="rgb(0, 0, 0)" stroke="rgb(204, 204, 204)" stroke-width="1px"></line></g></g></g></g></svg>